<svg xmlns="http://www.w3.org/2000/svg" fill="none" viewBox="95.57 70.31 521.86 393.99"><path fill="#55B4B3" fill-opacity=".42" d="M123.741 464.3 95.809 261.468a24.976 24.976 0 0 1 5.348-19.171l107.244-132.1a24.95 24.95 0 0 1 15.512-8.917l195.95-30.673a24.945 24.945 0 0 1 19.193 4.966L607.81 207.058a24.995 24.995 0 0 1 8.521 12.358 25.014 25.014 0 0 1-.107 15.012l-74.188 229.858-418.295.014Z"/><path fill="#DCDCDC" d="m409.021 107.246-58.622 11.988c-.88.18-1.697.589-2.37 1.186a5.12 5.12 0 0 0-1.462 2.211l-18.935 56.786a5.133 5.133 0 0 0 1.025 5.02l39.688 44.798a5.117 5.117 0 0 0 4.857 1.622l58.609-11.988a5.126 5.126 0 0 0 3.832-3.397l18.935-56.786a5.14 5.14 0 0 0 .16-2.647 5.144 5.144 0 0 0-1.185-2.373l-39.674-44.798a5.135 5.135 0 0 0-4.858-1.622Z"/><path fill="#448CC7" d="m379.12 170.95-3.013 1.141-8.538 4.369c-.049.076-3.565 1.03-2.571 5.649.156.709.316 1.436.486 2.167 2.446 10.624 1.239 13.085 2.723 19.817 2.107 9.599 11.452 8.4 15.81 18.159 7.411 16.603 5.883 28.631 5.883 28.631l54.219-18.386s0-.406-.771-1.926a66.009 66.009 0 0 0-4.011-6.549c-5.182-7.686-10.423-32.1-10.423-32.1l-2.371-15.988c-1.484-10.013-21.131-13.856-21.131-13.856l-26.292 8.872Z"/><path fill="#F3F3F3" d="M379.503 195.627a.671.671 0 0 0 .381-.043.665.665 0 0 0 .397-.617.665.665 0 0 0-.416-.603.657.657 0 0 0-.717.155.666.666 0 0 0-.175.341.654.654 0 0 0 .289.675.638.638 0 0 0 .241.092ZM412.404 186.826a.66.66 0 1 0-.531-.767.645.645 0 0 0 .289.676.658.658 0 0 0 .242.091ZM413.571 174.731a.663.663 0 0 0 .673-.291.667.667 0 0 0-.012-.734.665.665 0 0 0-.682-.269.653.653 0 0 0-.334.187.652.652 0 0 0-.175.34.664.664 0 0 0 .101.497.658.658 0 0 0 .429.27ZM367.168 181.076a.663.663 0 0 0 .673-.292.66.66 0 1 0-1.203-.475.64.64 0 0 0 .288.675.643.643 0 0 0 .242.092ZM381.713 208.017a.662.662 0 0 0 .779-.659.665.665 0 0 0-.799-.635.665.665 0 0 0-.408 1.024.651.651 0 0 0 .428.27ZM372.85 201.802a.656.656 0 0 0 .778-.659.66.66 0 0 0-1.308-.107.623.623 0 0 0 0 .258.638.638 0 0 0 .53.508ZM389.739 194.308a.663.663 0 0 0 .673-.292.655.655 0 0 0-.012-.733.657.657 0 0 0-1.016-.083.655.655 0 0 0-.175.341.64.64 0 0 0 .288.675.643.643 0 0 0 .242.092ZM416.16 195.627a.671.671 0 0 0 .381-.043.665.665 0 0 0 .397-.617.657.657 0 0 0-.798-.634.661.661 0 0 0-.51.527.664.664 0 0 0 0 .259.635.635 0 0 0 .289.416.632.632 0 0 0 .241.092ZM411.437 203.929a.66.66 0 0 0 .361-1.263.657.657 0 0 0-.717.155.662.662 0 0 0-.175.341.642.642 0 0 0 .289.675.637.637 0 0 0 .242.092ZM390.301 212.738a.652.652 0 0 0 .673-.291.667.667 0 0 0-.012-.733.662.662 0 0 0-1.017-.083.666.666 0 0 0-.073.837.651.651 0 0 0 .429.27ZM403.852 180.037a.664.664 0 0 0 .673-.292.663.663 0 0 0-.312-.971.653.653 0 0 0-.716.155.658.658 0 0 0-.175.341.628.628 0 0 0 .102.496.635.635 0 0 0 .428.271ZM414.231 167.062a.652.652 0 0 0 .673-.291.659.659 0 1 0-1.204-.476.645.645 0 0 0 .289.676.658.658 0 0 0 .242.091ZM381.495 179.372a.656.656 0 0 0 .778-.659.66.66 0 0 0-1.308-.108.654.654 0 0 0 .288.676.641.641 0 0 0 .242.091ZM401.954 203.656a.652.652 0 0 0 .673-.291.66.66 0 1 0-1.204-.476.664.664 0 0 0 .103.497.648.648 0 0 0 .428.27ZM391.847 204.589a.656.656 0 0 0 .672-.291.661.661 0 0 0-.311-.972.657.657 0 0 0-.891.496.633.633 0 0 0 .286.678.64.64 0 0 0 .244.089ZM397.943 189.167a.664.664 0 0 0 .673-.292.657.657 0 0 0-.012-.733.657.657 0 0 0-1.016-.083.655.655 0 0 0-.175.341.64.64 0 0 0 .289.675.632.632 0 0 0 .241.092ZM406.303 193.866a.656.656 0 0 0 .778-.659.66.66 0 0 0-1.308-.108.646.646 0 0 0 .53.767ZM389.08 185.248a.652.652 0 0 0 .672-.291.66.66 0 1 0-1.203-.476.664.664 0 0 0 0 .259.664.664 0 0 0 .289.417.652.652 0 0 0 .242.091ZM394.106 179.055a.655.655 0 0 0 .673-.291.651.651 0 0 0 .105-.368.652.652 0 0 0-.417-.603.664.664 0 0 0-.382-.032.664.664 0 0 0-.509.527.654.654 0 0 0 .288.676.641.641 0 0 0 .242.091ZM406.107 170.754a.656.656 0 0 0 .778-.659.66.66 0 0 0-1.308-.108.645.645 0 0 0 .53.767Z"/><path fill="#448CC7" d="M283.039 216.698h183.896a2.368 2.368 0 0 1 1.854.895c.222.278.378.604.459.951.08.348.08.708 0 1.056l-25.544 112.698a2.376 2.376 0 0 1-2.312 1.846H257.496a2.376 2.376 0 0 1-2.313-2.903l25.561-112.698a2.372 2.372 0 0 1 2.295-1.845Z"/><path fill="#fff" d="M283.039 216.698h183.896a2.368 2.368 0 0 1 1.854.895c.222.278.378.604.459.951.08.348.08.708 0 1.056l-25.544 112.698a2.376 2.376 0 0 1-2.312 1.846H257.496a2.376 2.376 0 0 1-2.313-2.903l25.561-112.698a2.372 2.372 0 0 1 2.295-1.845Z" opacity=".2"/><path fill="#448CC7" d="M278.885 216.698h183.897a2.368 2.368 0 0 1 1.853.895 2.37 2.37 0 0 1 .459 2.007l-25.543 112.698a2.376 2.376 0 0 1-2.313 1.846H253.347a2.38 2.38 0 0 1-2.313-2.903l25.543-112.698a2.368 2.368 0 0 1 2.308-1.845Z"/><path fill="#fff" d="M278.885 216.698h183.897a2.368 2.368 0 0 1 1.853.895 2.37 2.37 0 0 1 .459 2.007l-25.543 112.698a2.376 2.376 0 0 1-2.313 1.846H253.347a2.38 2.38 0 0 1-2.313-2.903l25.543-112.698a2.368 2.368 0 0 1 2.308-1.845Z" opacity=".7"/><path fill="#448CC7" d="M320.85 238.552h-36.051a2.343 2.343 0 0 1-2.34-2.34l2.327-9.002a2.346 2.346 0 0 1 2.339-2.34h36.051a2.344 2.344 0 0 1 2.34 2.34l-2.326 9.002a2.345 2.345 0 0 1-2.34 2.34Zm-33.729-13.085a1.752 1.752 0 0 0-1.747 1.748l-2.326 9.001a1.75 1.75 0 0 0 1.746 1.748h36.056a1.753 1.753 0 0 0 1.747-1.748l2.326-9.001a1.751 1.751 0 0 0-1.747-1.748h-36.055ZM371.428 238.552h-36.051a2.343 2.343 0 0 1-2.339-2.34l2.326-9.002c.001-.62.248-1.215.686-1.654a2.346 2.346 0 0 1 1.654-.686h36.051a2.344 2.344 0 0 1 2.339 2.34l-2.326 9.002a2.34 2.34 0 0 1-.687 1.653 2.34 2.34 0 0 1-1.653.687Zm-33.729-13.085a1.752 1.752 0 0 0-1.747 1.748l-2.326 9.001a1.75 1.75 0 0 0 1.747 1.748h36.051a1.753 1.753 0 0 0 1.747-1.748l2.326-9.001a1.756 1.756 0 0 0-1.747-1.748h-36.051ZM366.616 256.8h-52.005a1.817 1.817 0 0 1-1.285-3.105 1.817 1.817 0 0 1 1.285-.533h52.005a1.817 1.817 0 0 1 1.818 1.819 1.83 1.83 0 0 1-.531 1.288 1.827 1.827 0 0 1-1.287.531ZM336.34 270.71h-23.431a1.809 1.809 0 0 1-1.286-.533 1.827 1.827 0 0 1 0-2.573 1.827 1.827 0 0 1 1.286-.532h23.431a1.827 1.827 0 0 1 1.286.532 1.827 1.827 0 0 1 .395 1.983 1.801 1.801 0 0 1-.985.985 1.808 1.808 0 0 1-.696.138Z"/><path fill="#fff" d="M366.616 256.8h-52.005a1.817 1.817 0 0 1-1.285-3.105 1.817 1.817 0 0 1 1.285-.533h52.005a1.817 1.817 0 0 1 1.818 1.819 1.83 1.83 0 0 1-.531 1.288 1.827 1.827 0 0 1-1.287.531ZM336.34 270.71h-23.431a1.809 1.809 0 0 1-1.286-.533 1.827 1.827 0 0 1 0-2.573 1.827 1.827 0 0 1 1.286-.532h23.431a1.827 1.827 0 0 1 1.286.532 1.827 1.827 0 0 1 .395 1.983 1.801 1.801 0 0 1-.985.985 1.808 1.808 0 0 1-.696.138Z" opacity=".9"/><path fill="#448CC7" d="M381.861 256.8h-6.239a1.82 1.82 0 0 1 0-3.638h6.239a1.817 1.817 0 0 1 1.285 3.105 1.817 1.817 0 0 1-1.285.533ZM303.145 258.713h-4.71a1.363 1.363 0 0 1-1.337-1.627l.945-4.771a1.36 1.36 0 0 1 1.337-1.097h4.715a1.37 1.37 0 0 1 1.052.498 1.367 1.367 0 0 1 .284 1.13l-.944 4.77a1.372 1.372 0 0 1-1.342 1.097Z"/><path fill="#fff" d="M303.145 258.713h-4.71a1.363 1.363 0 0 1-1.337-1.627l.945-4.771a1.36 1.36 0 0 1 1.337-1.097h4.715a1.37 1.37 0 0 1 1.052.498 1.367 1.367 0 0 1 .284 1.13l-.944 4.77a1.372 1.372 0 0 1-1.342 1.097Z" opacity=".9"/><path fill="#448CC7" d="M300.663 272.199h-4.715a1.363 1.363 0 0 1-1.336-1.627l.944-4.77a1.36 1.36 0 0 1 1.337-1.097h4.715a1.363 1.363 0 0 1 1.337 1.627l-.945 4.771a1.365 1.365 0 0 1-1.337 1.096Z"/><path fill="#DCDCDC" d="M128.625 343.376a55.853 55.853 0 0 1 30.42-54.089 55.803 55.803 0 0 1 61.588 7.435 55.846 55.846 0 0 1 17.408 27.354 55.876 55.876 0 0 1-.719 32.421 55.84 55.84 0 0 1-18.606 26.554 55.797 55.797 0 0 1-30.217 11.734 55.758 55.758 0 0 1-40.58-13.297 55.807 55.807 0 0 1-19.294-38.112Z"/><path fill="#FC9D9D" d="m240.499 314.001 8.062-.95a1.381 1.381 0 0 1 1.267.552c.144.195.233.425.259.667.027.241-.011.485-.109.707l-.874 1.957a3.062 3.062 0 0 1-1.72 1.623l-10.539 3.924 4.251-9.144"/><path fill="#000" d="m240.499 314.001 8.062-.95a1.381 1.381 0 0 1 1.267.552c.144.195.233.425.259.667.027.241-.011.485-.109.707l-.874 1.957a3.062 3.062 0 0 1-1.72 1.623l-10.539 3.924" opacity=".15"/><path fill="#448CC7" d="m274.095 363.176-38.324-21.221a1.855 1.855 0 0 1-.888-1.133 1.845 1.845 0 0 1 .198-1.426l29.665-49.818a1.827 1.827 0 0 1 2.415-.691l39.01 20.116a1.829 1.829 0 0 1 .921 1.125 1.837 1.837 0 0 1-.186 1.443l-30.333 50.937a1.845 1.845 0 0 1-2.478.668Z"/><path fill="#F4F4F4" d="m274.095 363.176-38.324-21.221a1.855 1.855 0 0 1-.888-1.133 1.845 1.845 0 0 1 .198-1.426l29.665-49.818a1.827 1.827 0 0 1 2.415-.691l39.01 20.116a1.829 1.829 0 0 1 .921 1.125 1.837 1.837 0 0 1-.186 1.443l-30.333 50.937a1.845 1.845 0 0 1-2.478.668Z" opacity=".5"/><path fill="#fff" d="m272.157 362.159-38.324-21.221a1.848 1.848 0 0 1-.935-1.867c.034-.245.117-.48.244-.692l29.665-49.818a1.83 1.83 0 0 1 2.416-.691l39.01 20.116a1.836 1.836 0 0 1 .735 2.568l-30.334 50.941a1.85 1.85 0 0 1-2.477.664Z"/><path fill="#FC9D9D" d="m230.424 323.857 5.227-8.881a5.62 5.62 0 0 1 3.182-2.523l9.202-2.88a1.168 1.168 0 0 1 .869 2.162l-7.522 3.759-3.427 6.687a.772.772 0 0 0 .185.948.772.772 0 0 0 .965.033l3.444-2.541a2.669 2.669 0 0 1 3.596.423.67.67 0 0 1 0 .856l-12.415 14.788-12.745-3.914 9.439-8.917Z"/><path fill="#61656D" d="M245.784 335.998a.228.228 0 0 1-.106-.026l-5.629-3.086a.207.207 0 0 1-.067-.058.201.201 0 0 1-.04-.08.205.205 0 0 1-.006-.092.206.206 0 0 1 .033-.086l3.382-5.377a.224.224 0 0 1 .294-.076l5.633 3.085a.223.223 0 0 1 .107.139.207.207 0 0 1-.027.178l-3.373 5.377a.22.22 0 0 1-.086.08.226.226 0 0 1-.115.022Zm-5.311-3.406 5.236 2.871 3.146-5.002-5.241-2.871-3.141 5.002ZM250.816 328.009a.224.224 0 0 1-.107-.027l-5.615-3.085a.22.22 0 0 1-.107-.138.211.211 0 0 1 .027-.179l3.386-5.376a.223.223 0 0 1 .294-.076l5.629 3.085a.221.221 0 0 1 .107.138c.009.03.011.061.006.093a.211.211 0 0 1-.033.086l-3.382 5.376a.224.224 0 0 1-.088.082.224.224 0 0 1-.117.021Zm-5.317-3.388 5.241 2.871 3.141-5.002-5.222-2.872-3.16 5.003Z" opacity=".3"/><path fill="#448CC7" d="m243.908 333.332-.312-2.523a.27.27 0 0 1 .219-.281l.664-.08a.266.266 0 0 1 .281.218l.2 1.623 3.917-.49a.265.265 0 0 1 .281.218l.08.664a.266.266 0 0 1-.054.183.265.265 0 0 1-.164.098l-4.818.598a.26.26 0 0 1-.255-.131.255.255 0 0 1-.03-.097M249.002 325.337l-.312-2.523a.267.267 0 0 1 .218-.281l.664-.08a.266.266 0 0 1 .281.218l.201 1.623 3.917-.49a.258.258 0 0 1 .181.056c.053.04.088.098.099.162l.081.665a.264.264 0 0 1-.219.28l-4.826.598a.257.257 0 0 1-.285-.228Z"/><path fill="#61656D" d="m266.952 346.528-17.54-9.75a.476.476 0 0 1 .463-.829l17.54 9.75a.475.475 0 0 1-.463.829ZM259.978 340.037l-9.416-5.216a.477.477 0 0 1-.183-.647.477.477 0 0 1 .646-.182l9.416 5.225a.478.478 0 0 1 .183.646.464.464 0 0 1-.287.221.48.48 0 0 1-.359-.047ZM271.871 338.004l-17.539-9.751a.472.472 0 0 1-.183-.646.477.477 0 0 1 .646-.183l17.54 9.75a.479.479 0 0 1 .183.647.486.486 0 0 1-.647.183ZM264.897 331.512l-9.416-5.225a.477.477 0 0 1 .103-.871.478.478 0 0 1 .361.042l9.416 5.225a.479.479 0 0 1 .182.647.474.474 0 0 1-.646.182Z" opacity=".3"/><path fill="#000" d="M282.557 338.084a.19.19 0 0 1-.111-.031c-1.248-.731-2.758-.856-4.086-.963-1.328-.107-2.438-.2-2.785-.936-.348-.736.24-3.33 1.247-7.45 1.261-5.14 2.99-12.185 1.337-13.076-.976-.517-3.4.851-5.174 1.85-.695.392-1.296.731-1.782.941h-.045a2.32 2.32 0 0 1-2.13-.152 2.612 2.612 0 0 1-1.247-1.984c-.143-1.511.151-3.656.445-5.733.388-2.827.825-6.032-.151-6.554-1.11-.584-4.412 2.185-6.386 3.843-.713.602-1.337 1.119-1.725 1.382-1.72 1.173-3.93.535-4.01.508a.22.22 0 0 1-.14-.109.234.234 0 0 1-.021-.176.23.23 0 0 1 .285-.16s2.104.601 3.65-.446c.37-.254.98-.767 1.689-1.338 2.901-2.434 5.61-4.57 6.88-3.892 1.27.678.847 3.607.384 7.009-.281 2.05-.571 4.168-.446 5.626a2.148 2.148 0 0 0 1.029 1.645c.257.156.546.249.845.272.299.022.599-.027.876-.143h.044c.446-.2 1.07-.552 1.725-.922 1.969-1.111 4.416-2.493 5.61-1.855 1.97 1.056.339 7.704-1.105 13.575-.78 3.193-1.591 6.492-1.279 7.156.236.499 1.248.584 2.42.678 1.31.107 2.941.241 4.273 1.025a.223.223 0 0 1-.111.415l-.005-.005Z"/><path fill="#448CC7" d="M268.106 304.46a.669.669 0 1 0-.002-1.338.669.669 0 0 0 .002 1.338ZM273.489 317.58a.668.668 0 1 0 0-1.336.668.668 0 0 0 0 1.336ZM280.013 337.728a.669.669 0 1 0-.002-1.338.669.669 0 0 0 .002 1.338Z"/><path fill="#000" d="m294.179 299.154-3.654-2.011a5.398 5.398 0 0 0 .452-4.111 5.396 5.396 0 0 0-4.596-3.862 5.402 5.402 0 0 0-5.325 2.771l-3.654-2.011a.88.88 0 0 0-.682-.078.885.885 0 0 0-.535.43l-4.456 8.154a.898.898 0 0 0 .084.993.865.865 0 0 0 .268.224l16.778 9.225a.89.89 0 0 0 1.216-.352l4.479-8.155a.906.906 0 0 0 .068-.687.9.9 0 0 0-.443-.53Zm-6.751-3.736a1.856 1.856 0 0 1-1.837.954 1.859 1.859 0 0 1-.993-.427 1.869 1.869 0 0 1 .033-2.88 1.861 1.861 0 0 1 2.952.935c.138.475.083.985-.155 1.418Z"/><path fill="#fff" d="m275.173 296.413 14.706 8.087a.89.89 0 0 1 .352 1.217l-.664 1.204a.903.903 0 0 1-.535.43.892.892 0 0 1-.681-.078l-14.706-8.087a.894.894 0 0 1-.352-1.217l.664-1.204a.907.907 0 0 1 .224-.269.904.904 0 0 1 .659-.19c.117.013.23.049.333.107Z"/><path fill="#448CC7" d="m209.266 338.263 17.9-11.329 7.892 8.168-20.423 26.26-5.369-23.099Z"/><path fill="#FC9D9D" d="m281.501 340.75-6.809-2.808a1.241 1.241 0 0 0-1.245.17 1.248 1.248 0 0 0-.466 1.167l.276 1.926a2.777 2.777 0 0 0 1.105 1.841l8.244 6.015-1.47-9.033"/><path fill="#000" d="m281.501 340.75-6.809-2.808a1.241 1.241 0 0 0-1.245.17 1.248 1.248 0 0 0-.466 1.167l.276 1.926a2.777 2.777 0 0 0 1.105 1.841l8.244 6.015-1.47-9.033" opacity=".15"/><path fill="#FC9D9D" d="m284.585 349.217-1.609-3.968a.893.893 0 0 1-.004-.62c.533-1.647.98-3.321 1.337-5.015a.89.89 0 0 0-.571-.999c-1.733-.655-6.39-2.394-6.88-2.363a1.065 1.065 0 0 0-1.016.932c-.281 2.153 3.819 3.406 3.819 3.406l-3.374 5.319a.7.7 0 0 1-.871.127.71.71 0 0 1-.314-.823l1.154-3.709a2.408 2.408 0 0 0-1.43-2.96.608.608 0 0 0-.735.249l-8.993 15.043 7.13 9.777 12.174-13.447a.892.892 0 0 0 .183-.949Z"/><path fill="#3F4249" d="M271.756 330.559a.187.187 0 0 0-.099.245l.259.593.361-.143-.259-.593a.187.187 0 0 0-.041-.067.2.2 0 0 0-.067-.044.17.17 0 0 0-.078-.012.196.196 0 0 0-.076.021Z"/><path fill="#000" d="M271.756 330.559a.187.187 0 0 0-.099.245l.259.593.361-.143-.259-.593a.187.187 0 0 0-.041-.067.2.2 0 0 0-.067-.044.17.17 0 0 0-.078-.012.196.196 0 0 0-.076.021Z"/><path fill="#3F4249" d="m275.94 336.297-.74.321 10.53 24.142.575-.25a.185.185 0 0 0 .097-.101.188.188 0 0 0-.003-.14l-10.459-23.972ZM274.862 336.76l-1.783.767 10.454 23.973a.184.184 0 0 0 .241.093l1.595-.691-10.507-24.142Z"/><path fill="#000" d="m275.94 336.297-.74.321 10.53 24.142.575-.25a.185.185 0 0 0 .097-.101.188.188 0 0 0-.003-.14l-10.459-23.972ZM274.862 336.76l-1.783.767 10.454 23.973a.184.184 0 0 0 .241.093l1.595-.691-10.507-24.142Z"/><path fill="#3F4249" d="m286.622 362.908-1.337.571a.297.297 0 0 1-.228.005.3.3 0 0 1-.16-.161l-.802-1.85 1.858-.803.802 1.85a.295.295 0 0 1-.133.388ZM275.94 336.297l-2.839 1.23-.824-1.886c-.339-.785-1.043-4.155-.259-4.494.785-.339 2.759 2.479 3.098 3.264l.824 1.886ZM281.546 356.863l1.475 3.406-1.734-.709-.285-.66-1.19-2.746-3.636-8.404-.624-1.444.268-.116a.782.782 0 0 1 .983.254.785.785 0 0 1-.092 1.012l3.904 9.01.931.397Z"/><path fill="#FC9D9D" d="m265.107 353.84 8.992-15.043a.61.61 0 0 1 .323-.259.593.593 0 0 1 .413.01 2.399 2.399 0 0 1 1.452 2.96l-1.154 3.709-10.026 8.623ZM237.073 272.284l1.96 13.174a1.865 1.865 0 0 0 1.159 1.454l1.524.597a2.484 2.484 0 0 1 1.564 2.483v.049a2.55 2.55 0 0 1-2.023 2.319 94.18 94.18 0 0 0-1.716.361l-1.622 7.191a7.09 7.09 0 0 1-2.965 4.328 7.078 7.078 0 0 1-5.127 1.102l-3.695-.619-12.29 14.128-11.831-20.588 6.626-9.885 6.435-19.986 22.001 3.892Z"/><path fill="#21252B" d="M205.928 267.5c2.228-4.199 5.035-5.622 9.336-5.274.347-.006.685-.105.98-.289.295-.182.536-.441.695-.75.891-1.44 3.075-3.896 7.709-3.597a7.812 7.812 0 0 1 6.502 3.883 2.229 2.229 0 0 0 2.763.847 6.346 6.346 0 0 1 3.204-.502 6.345 6.345 0 0 1 3.035 1.144c4.786 3.147 2.629 11.458-2.545 12.118l-4.135.343a1.607 1.607 0 0 0-1.48 1.44 5.846 5.846 0 0 1-.641 2.095 5.958 5.958 0 0 1-6.003 3.121.967.967 0 0 0-1.052.968v4.641a1.252 1.252 0 0 1-.713 1.15 1.197 1.197 0 0 1-1.381-.303 1.197 1.197 0 0 1-.245-.437l-.963-3.076a2.82 2.82 0 0 0-2.366-1.958l-1.212-.142c-1.208 1.743-2.326 3.696-3.36 5.207a11.458 11.458 0 0 1-2.464 2.742c-1.752 1.306-3.16.843-4.011-.959 0 0-5.267-11.663-2.567-20.24.239-.758.546-1.493.918-2.194"/><path fill="#000" d="m211.592 290.898 3.418.423c.111.067.236.13.361.197 1.18.615 3.146 1.426 4.772 1.007a.446.446 0 1 0-.227-.865c-.27.067-.547.095-.824.085l-5.036-3.567a11.6 11.6 0 0 1-2.464 2.742" opacity=".15"/><path fill="#448CC7" d="m240.55 282.642-20.419 1.43.072 1.029 20.419-1.429-.072-1.03Z"/><path fill="#FC9D9D" d="M219.319 282.498s-1.444-3.121-4.657-1.337c-3.676 2.037-2.117 10.7 4.425 10.588 3.431-.053 2.554-1.944 1.738-4.52l-1.506-4.731Z"/><path fill="#000" d="M214.68 283.439a2.397 2.397 0 0 1 1.827-.651 2.364 2.364 0 0 1 1.591 1.061c.484.684.78 1.483.86 2.318l.129.758a.404.404 0 0 1-.067.318.395.395 0 0 1-.446.149.405.405 0 0 1-.28-.378l-.129-.758a4.636 4.636 0 0 0-.709-1.93 1.668 1.668 0 0 0-1.047-.749 1.633 1.633 0 0 0-1.226.477.39.39 0 0 1-.136.073c-.05.015-.103.02-.155.015a.404.404 0 0 1-.268-.144.403.403 0 0 1-.073-.137c-.015-.05-.02-.102-.015-.154a.41.41 0 0 1 .045-.149.406.406 0 0 1 .099-.119Z" opacity=".2"/><path fill="#448CC7" d="M240.058 288.205a.527.527 0 0 1-.245-.17.51.51 0 0 1-.111-.276l-1.248-9.363a.514.514 0 0 1 .446-.579.506.506 0 0 1 .574.445l1.248 9.363a.514.514 0 0 1-.445.58.67.67 0 0 1-.219 0Z"/><path fill="#000" d="M236.034 295.396c.849.453 1.792.7 2.754.722l.183-1.016a5.548 5.548 0 0 1-3.347-1.235.514.514 0 1 0-.682.767c.329.3.696.557 1.092.762Z" opacity=".2"/><path fill="#448CC7" d="m225.705 325.775-3.877-4.338.285-5.729-17.99-21.092-4.764 4.569a23.668 23.668 0 0 0-22.339 14.9s-24.304 64.98-23.939 71.868a57.628 57.628 0 0 0 32.018 8.984s4.648-.254 6.747-.517c1.038-.129 5.432-.99 5.7-1.052a57.434 57.434 0 0 0 10.057-3.393l1.154-27.588 22.335-19.92-.053-3.076a21.005 21.005 0 0 0-5.334-13.616Z"/><path fill="#fff" d="M208.303 372.516c-18.11-8.221-35.953-45.769-35.953-45.769l-5.276 15.159s14.429 31.903 40.681 44.137l.548-13.527Z" opacity=".2"/><path fill="#000" d="m221.097 321.41-15.82-16.862a.518.518 0 0 1-.094-.563.522.522 0 0 1 .287-.269.49.49 0 0 1 .393.012.517.517 0 0 1 .163.116l15.819 16.861-.022.727a.596.596 0 0 1-.539.138l-.187-.16Z" opacity=".15"/><path fill="#000" d="m226.119 304.723-2.718-.558a.755.755 0 0 0-.81.352.744.744 0 0 0-.099.454.742.742 0 0 0 .187.425l1.412 1.667 2.028-2.34Z" opacity=".2"/><path fill="#448CC7" d="m206.137 357.037 6.203 33.789a12.422 12.422 0 0 0 8.219 7.998 12.423 12.423 0 0 0 11.264-2.139l40.418-33.072-7.13-9.809-30.801 16.34-3.454-30.967-24.719 17.86Z"/><path fill="#000" d="m234.31 370.136.508 3.936a1.19 1.19 0 0 0 .883 1.002 1.191 1.191 0 0 0 1.26-.444l7.357-9.987-10.008 5.493ZM207.594 389.979l1.337-32.822a.67.67 0 0 0-.668-.669.67.67 0 0 0-.669.669l-6.443 35.221s2.602-.865 3.462-1.186c.753-.272 2.981-1.213 2.981-1.213Z" opacity=".15"/><path fill="#fff" d="M380.236 157.028c.938-.131 1.64-.662 1.567-1.187-.073-.524-.893-.843-1.831-.712-.939.131-1.641.662-1.568 1.186.073.525.893.843 1.832.713Z"/><path fill="#21252B" d="M398.081 132.043c5.326 0 9.644-4.32 9.644-9.648 0-5.329-4.318-9.648-9.644-9.648-5.326 0-9.643 4.319-9.643 9.648 0 5.328 4.317 9.648 9.643 9.648Z"/><path fill="#448CC7" d="M394.601 119.564a9.582 9.582 0 0 0-5.945.811c0 .094-.049.187-.067.281a9.582 9.582 0 0 0-.035 3.21 9.628 9.628 0 0 1 10.976 8.052 9.713 9.713 0 0 0 2.767-.865c0-.094.044-.183.062-.272a9.653 9.653 0 0 0-1.558-7.216 9.637 9.637 0 0 0-6.2-4.001Z"/><path fill="#21252B" d="M386.094 164.772a5.43 5.43 0 0 0 5.428-5.431 5.429 5.429 0 1 0-10.856 0 5.43 5.43 0 0 0 5.428 5.431Z"/><path fill="#F59696" d="m393.781 142.364 5.347 17.998a3.35 3.35 0 0 0 1.611 1.987 3.342 3.342 0 0 0 2.543.264l2.152-.544s-4.594 8.195-16.568 11.079c-6.239 1.498-12.736-1.034-12.736-1.034l3.494-1.783s.254-.304.396-2.97c.057-1.26.011-2.523-.138-3.776-.74-5.087-2.99-20.187-2.99-20.187l16.889-1.034Z"/><path fill="#F59696" d="m384.86 160.5.891-.174a11.547 11.547 0 0 0 8.796-13.767l-3.507-15.836a3.834 3.834 0 0 0-3.1-2.967 3.823 3.823 0 0 0-1.507.042l-14.822 3.241a5.02 5.02 0 0 0-3.806 5.975l3.267 14.712a11.638 11.638 0 0 0 13.788 8.774Z"/><path fill="#21252B" d="M380.943 146.911a1.253 1.253 0 1 0-.002-2.506 1.253 1.253 0 0 0 .002 2.506Z"/><path fill="#fff" d="M380.381 145.82a.26.26 0 1 0 0-.518.26.26 0 0 0 0 .518Z"/><path fill="#21252B" d="M371.531 149.417a1.253 1.253 0 1 0-.002-2.506 1.253 1.253 0 0 0 .002 2.506Z"/><path fill="#fff" d="M370.952 148.272a.26.26 0 1 0 0-.518.26.26 0 0 0 0 .518Z"/><path fill="#000" d="m378.358 151.454 1.649-.277a.369.369 0 1 0-.085-.735l-1.649.276a.75.75 0 0 1-.579-.128.752.752 0 0 1-.312-.505.845.845 0 0 1 .615-.919.35.35 0 0 0 .137-.044.352.352 0 0 0 .11-.093.352.352 0 0 0 .066-.129.367.367 0 0 0-.254-.457.39.39 0 0 0-.144-.012 1.523 1.523 0 0 0-1.216 1.725 1.336 1.336 0 0 0 1.662 1.298ZM379.396 160.384c2.018.511 4.13.524 6.154.036l1.337-.361c.172-.037.337-.098.49-.183l.098-.027c.237-.12.491-.183.78-.316.098-.027.187-.107.29-.134a11.986 11.986 0 0 0 3.565-2.457.339.339 0 0 1 .503.446 13.274 13.274 0 0 1-4.687 3.032 10.303 10.303 0 0 1-5.348 3.566c-.848.226-1.721.35-2.598.37l-.584-3.972Z" opacity=".15"/><path fill="#21252B" d="M391.651 130.232c-.379-3.446-1.261-.936-3.244-2.728-1.983-1.792-11.141-.205-11.141-.205-1.6 1.056-5.624 2.916-4.296 5.827 5.321 11.645 20.053 6.687 20.053 6.687l-1.372-9.581Z"/><path fill="#21252B" d="M401.343 129.497c-.445-4.962-4.821-7.579-8.173-8.212-2.094-.383-3.778-.397-6.479-.214-25.267 1.699-20.218 19.269-20.218 19.269l9.585-9.015 16.778 7.606s5.241 1.569 4.011 5.658c-1.065 3.517-4.608 4.084-4.608 4.084a15.995 15.995 0 0 0 4.813 4.774s5.985-7.017 4.291-23.95Z"/><path fill="#21252B" d="M366.473 140.339c-3.529-11.592 7.326-11.543 7.326-11.543 1.114 0 .183-.187.611 1.628 1.256 5.35-.936 8.132-4.59 9.072-.9.237-3.347.843-3.347.843Z"/><path fill="#F59696" d="M391.433 148.824s5.516-.549 5.708-6.104c.192-5.555-6.684-5.403-6.635.196l.32 6.068.607-.16Z"/><path fill="#000" d="M394.949 140.17a2.135 2.135 0 0 0-1.707-.142 2.013 2.013 0 0 0-1.119 1.266 4.118 4.118 0 0 0-.223 2.229l.098.566c.054.419.816.446.731-.084l-.058-.629a3.797 3.797 0 0 1 .161-1.819c.116-.382.379-.703.731-.892a1.548 1.548 0 0 1 1.163.116.4.4 0 0 0 .49-.183.41.41 0 0 0-.267-.428Z" opacity=".15"/><path fill="#448CC7" d="M392.56 147.709a1.102 1.102 0 1 0-.002-2.204 1.102 1.102 0 0 0 .002 2.204Z"/><path fill="#000" d="M392.364 147.656a1.171 1.171 0 0 0 .785-.487 1.18 1.18 0 0 0 .191-.904 1.218 1.218 0 0 0-.317-.566 1.219 1.219 0 0 1 .642.798 1.074 1.074 0 0 1-.488 1.12c-.123.077-.26.128-.403.15a.89.89 0 0 1-.669-.093c.094-.022.192-.054.259-.018Z" opacity=".15"/><path fill="#21252B" d="M390.541 143.063c.165-.254.058-2.38 1.052-3.379l-.891-.776s-.892 2.426-.851 3.982a.38.38 0 0 0 .286.321.376.376 0 0 0 .225-.012.376.376 0 0 0 .179-.136Z"/><path fill="#fff" d="m379.909 153.442.445.402a2.27 2.27 0 0 0 3.037-.181c.261-.265.453-.591.559-.947l.192-.691c.04-.147-.067-.286-.209-.228l-3.971 1.338a.173.173 0 0 0-.122.137.163.163 0 0 0 .01.095c.012.03.032.056.059.075Z"/><path fill="#FC9D9D" d="m307.352 249.221 7.362 1.458a1.276 1.276 0 0 0 1.208-.416 1.276 1.276 0 0 0 .236-1.256l-.655-1.886a2.858 2.858 0 0 0-1.467-1.623l-9.429-4.378 3.262 8.734"/><path fill="#000" d="m307.352 249.221 7.362 1.458a1.276 1.276 0 0 0 1.208-.416 1.276 1.276 0 0 0 .236-1.256l-.655-1.886a2.858 2.858 0 0 0-1.467-1.623l-9.429-4.378 3.262 8.734" opacity=".15"/><path fill="#FC9D9D" d="m302.579 241.351 2.393 3.647a.929.929 0 0 1 .147.602 49.456 49.456 0 0 0-.325 5.274.923.923 0 0 0 .226.584c.14.163.333.272.545.308 1.863.312 6.863 1.124 7.344.999a1.076 1.076 0 0 0 .802-1.119c-.147-2.207-4.492-2.649-4.492-2.649l2.304-5.978a.719.719 0 0 1 1.337.446l-.419 3.936a2.458 2.458 0 0 0 2.014 2.675.62.62 0 0 0 .687-.396l5.2-15.787-8.913-5.796-8.85 12.269a.915.915 0 0 0 0 .985Z"/><path fill="#3F4249" d="M319.108 257.455a.187.187 0 0 0 .078-.198.191.191 0 0 0-.029-.069l-.375-.54-.316.219.374.539c.03.041.074.07.124.079a.199.199 0 0 0 .144-.03Z"/><path fill="#000" d="M319.108 257.455a.187.187 0 0 0 .078-.198.191.191 0 0 0-.029-.069l-.375-.54-.316.219.374.539c.03.041.074.07.124.079a.199.199 0 0 0 .144-.03Z"/><path fill="#3F4249" d="m313.791 252.551.678-.468-15.303-22.033-.522.361a.188.188 0 0 0-.049.259l15.196 21.881ZM314.776 251.869l1.613-1.115-15.196-21.881a.186.186 0 0 0-.258-.049l-1.475 1.007 15.316 22.038Z"/><path fill="#000" d="m313.791 252.551.678-.468-15.303-22.033-.522.361a.188.188 0 0 0-.049.259l15.196 21.881ZM314.776 251.869l1.613-1.115-15.196-21.881a.186.186 0 0 0-.258-.049l-1.475 1.007 15.316 22.038Z"/><path fill="#3F4249" d="m297.847 228.093 1.199-.829a.272.272 0 0 1 .107-.048.276.276 0 0 1 .118-.002.271.271 0 0 1 .109.043.274.274 0 0 1 .084.082l1.168 1.69-1.693 1.173-1.168-1.69a.304.304 0 0 1 .076-.419ZM313.791 252.552l2.594-1.784 1.19 1.726c.494.717 1.867 3.945 1.149 4.458-.717.495-3.248-1.93-3.743-2.644l-1.19-1.756ZM304.117 233.112l-2.148-3.12 1.872.365.414.602 1.733 2.51 5.294 7.668.914 1.338-.245.169a.8.8 0 0 1-1.114-.205.81.81 0 0 1 0-.891l-5.682-8.231-1.038-.205Z"/><path fill="#FC9D9D" d="m320.338 233.902-5.201 15.787a.62.62 0 0 1-.686.397 2.45 2.45 0 0 1-2.014-2.675l.418-3.937 7.483-9.572Z"/><path fill="#448CC7" d="m375.702 193.3-31.417 13.509-23.943 27.097-8.912-5.795 23.658-32.992a16.176 16.176 0 0 1 5.793-5.002l35.227-18.025-.406 21.208Z"/><path fill="#000" d="M365.484 184.299s1.813 6.763 1.805 12.617l-3.61 1.552a32.14 32.14 0 0 0 1.404-5.003c.53-3.025.665-6.106.401-9.166Z" opacity=".15"/><path fill="#F3F3F3" d="M321.875 218.53a.66.66 0 1 0-.53-.767.628.628 0 0 0 .102.496.643.643 0 0 0 .428.271ZM333.974 205.119a.66.66 0 1 0-.531-.767.645.645 0 0 0 .289.676.658.658 0 0 0 .242.091ZM346.148 192.64a.656.656 0 0 0 .778-.659.66.66 0 0 0-1.308-.108.628.628 0 0 0 0 .259.67.67 0 0 0 .101.238.658.658 0 0 0 .429.27ZM374.361 181.735a.66.66 0 1 0-.53-.509.638.638 0 0 0 .288.417.643.643 0 0 0 .242.092ZM331.928 216.362a.655.655 0 0 0 .673-.291.657.657 0 0 0-.012-.733.662.662 0 0 0-.682-.269.655.655 0 0 0-.509.527.64.64 0 0 0 .288.675.641.641 0 0 0 .242.091ZM358.599 196.71a.661.661 0 1 0-.021-1.294.665.665 0 0 0-.407 1.024.648.648 0 0 0 .428.27ZM369.869 190.691a.652.652 0 0 0 .673-.291.657.657 0 0 0-.012-.733.656.656 0 0 0-1.016-.084.67.67 0 0 0-.073.838.641.641 0 0 0 .428.27ZM356.946 188.333a.652.652 0 0 0 .673-.291.665.665 0 0 0-.012-.733.657.657 0 0 0-1.017-.084.677.677 0 0 0-.073.838.638.638 0 0 0 .429.27ZM322.552 227.678a.655.655 0 0 0 .778-.66.651.651 0 0 0-.117-.364.656.656 0 0 0-1.191.257.637.637 0 0 0 .288.676.658.658 0 0 0 .242.091ZM342.975 202.72a.663.663 0 0 0 .673-.291.66.66 0 1 0-1.203-.475.654.654 0 0 0 .288.675.658.658 0 0 0 .242.091Z"/><path fill="#fff" d="M366.772 148.017a5.036 5.036 0 0 0 7.169 3.603 5.037 5.037 0 0 0 2.649-5.85 5.037 5.037 0 0 0-1.093-2.024 4.386 4.386 0 0 1 2.433-.593 5.82 5.82 0 0 0 0 1.667 5.043 5.043 0 0 0 3.906 4.015 5.042 5.042 0 1 0 .136-9.891 5.004 5.004 0 0 0-2.461 1.202 5 5 0 0 0-1.456 2.32 4.633 4.633 0 0 0-3.03.753 5.06 5.06 0 0 0-5.826-.527 5.057 5.057 0 0 0-2.427 5.325Zm11.737-3.295a4.373 4.373 0 0 1 1.917-4.455 4.358 4.358 0 0 1 4.848.068 4.359 4.359 0 0 1 1.792 4.506 4.36 4.36 0 0 1-3.476 3.381 4.414 4.414 0 0 1-5.081-3.496v-.004Zm-11.073 3.161a4.367 4.367 0 0 1 4.351-5.157 4.367 4.367 0 0 1 3.992 2.751c.32.802.394 1.681.213 2.525a4.36 4.36 0 0 1-3.476 3.381 4.362 4.362 0 0 1-5.08-3.496v-.004Z"/><path fill="#000" d="M226.823 327.161s4.011 6.478 4.189 13.077l4.042-5.118-7.892-8.173-.339.214Z" opacity=".15"/><path fill="#DCDCDC" d="m475.304 332.704-101.157 65.225a4.905 4.905 0 0 0 1.105 8.774l101.157 33.727a4.902 4.902 0 0 0 4.416-.674 4.862 4.862 0 0 0 1.497-1.745 4.87 4.87 0 0 0 .539-2.235v-98.948a4.905 4.905 0 0 0-5.08-4.904 4.897 4.897 0 0 0-2.477.78Z"/><path fill="#61656D" d="M410.367 269.221h-1.818a.223.223 0 0 1 0-.446h1.782a.231.231 0 0 1 .237.223.203.203 0 0 1-.054.154.21.21 0 0 1-.147.069Zm-3.605 0h-1.782a.223.223 0 0 1 0-.446h1.782c.059 0 .116.024.158.065a.228.228 0 0 1 .065.158.228.228 0 0 1-.065.158.228.228 0 0 1-.158.065Zm-3.565 0h-1.782a.223.223 0 0 1 0-.446h1.782c.059 0 .116.024.158.065a.228.228 0 0 1 .065.158.228.228 0 0 1-.065.158.228.228 0 0 1-.158.065Zm-3.565 0h-1.782a.223.223 0 0 1 0-.446h1.782c.059 0 .116.024.158.065a.228.228 0 0 1 .065.158.228.228 0 0 1-.065.158.228.228 0 0 1-.158.065Zm-3.565 0h-1.782a.223.223 0 0 1 0-.446h1.782c.059 0 .116.024.158.065a.228.228 0 0 1 .065.158.228.228 0 0 1-.065.158.228.228 0 0 1-.158.065Zm-3.565 0h-.062c-.62 0-1.228-.166-1.761-.482a.225.225 0 0 1-.105-.136.229.229 0 0 1 .024-.171.222.222 0 0 1 .138-.103.218.218 0 0 1 .088-.003c.03.004.058.014.083.03.464.275.993.419 1.533.419h.062c.059 0 .116.024.158.065a.228.228 0 0 1 .065.158.228.228 0 0 1-.065.158.228.228 0 0 1-.158.065Zm19.608-.499a.223.223 0 0 1-.121-.411 2.99 2.99 0 0 0 1.096-1.226.226.226 0 0 1 .128-.113.225.225 0 0 1 .284.139.23.23 0 0 1-.01.171 3.462 3.462 0 0 1-1.262 1.404.178.178 0 0 1-.076.036.183.183 0 0 1-.084 0h.045Zm-22.589-1.222a.223.223 0 0 1-.196-.12 3.444 3.444 0 0 1-.388-1.588v-.263a.224.224 0 0 1 .446.036v.227a3 3 0 0 0 .338 1.383.213.213 0 0 1-.025.245.22.22 0 0 1-.068.053.224.224 0 0 1-.107.027Zm24.175-1.783h-.045a.226.226 0 0 1-.178-.263l.357-1.757a.21.21 0 0 1 .034-.082.227.227 0 0 1 .411.171l-.356 1.752a.215.215 0 0 1-.088.109.214.214 0 0 1-.135.034v.036Zm-24.197-1.69h-.023a.206.206 0 0 1-.08-.031.2.2 0 0 1-.062-.061.213.213 0 0 1-.032-.167l.357-1.756a.212.212 0 0 1 .094-.143.225.225 0 0 1 .169-.031.221.221 0 0 1 .174.263l-.357 1.752a.222.222 0 0 1-.24.138v.036Zm24.905-1.877h-.044a.213.213 0 0 1-.081-.033.204.204 0 0 1-.062-.062.23.23 0 0 1-.033-.081.231.231 0 0 1 .002-.087l.357-1.752a.216.216 0 0 1 .091-.143.23.23 0 0 1 .081-.033.226.226 0 0 1 .086.002.209.209 0 0 1 .082.033.212.212 0 0 1 .062.061.217.217 0 0 1 .034.169l-.356 1.752a.217.217 0 0 1-.079.125.221.221 0 0 1-.14.049Zm-24.197-1.685h-.045a.245.245 0 0 1-.08-.034.226.226 0 0 1-.094-.142.231.231 0 0 1 .001-.087l.356-1.752a.229.229 0 0 1 .094-.145.217.217 0 0 1 .309.063.222.222 0 0 1 .034.166l-.357 1.757a.217.217 0 0 1-.218.192v-.018Zm24.906-1.824h-.045a.225.225 0 0 1-.173-.263l.356-1.756a.24.24 0 0 1 .034-.081.226.226 0 0 1 .142-.094.225.225 0 0 1 .227.097.224.224 0 0 1 .034.167l-.357 1.756a.216.216 0 0 1-.218.192v-.018Zm-24.193-1.685h-.045a.225.225 0 0 1-.174-.176.231.231 0 0 1 .001-.087l.352-1.757a.23.23 0 0 1 .096-.14.228.228 0 0 1 .247 0 .212.212 0 0 1 .061.062.213.213 0 0 1 .033.081.213.213 0 0 1-.001.087l-.352 1.756a.226.226 0 0 1-.218.192v-.018Zm24.906-1.823h-.058a.236.236 0 0 1-.08-.034.23.23 0 0 1-.094-.229l.352-1.757a.229.229 0 0 1 .263-.174.21.21 0 0 1 .08.034.225.225 0 0 1 .062.061.239.239 0 0 1 .033.081.231.231 0 0 1-.001.087l-.352 1.757a.223.223 0 0 1-.205.191v-.017Zm-24.197-1.686h-.045a.23.23 0 0 1-.14-.096.233.233 0 0 1-.034-.167l.357-1.756a.212.212 0 0 1 .094-.143.22.22 0 0 1 .249.003.221.221 0 0 1 .093.229l-.356 1.752a.226.226 0 0 1-.218.196v-.018Zm24.906-1.828h-.045a.212.212 0 0 1-.143-.094.239.239 0 0 1-.033-.081.237.237 0 0 1 .002-.088l.357-1.752a.218.218 0 0 1 .094-.143.218.218 0 0 1 .081-.032.217.217 0 0 1 .088.001.236.236 0 0 1 .08.034.212.212 0 0 1 .061.062.212.212 0 0 1 .032.167l-.356 1.753a.222.222 0 0 1-.218.191v-.018Zm-24.193-1.685h-.045a.223.223 0 0 1-.082-.032.229.229 0 0 1-.096-.143.217.217 0 0 1 0-.088l.356-1.752a.228.228 0 0 1 .096-.141.209.209 0 0 1 .08-.033.212.212 0 0 1 .087 0 .213.213 0 0 1 .081.033.204.204 0 0 1 .062.062.212.212 0 0 1 .031.168l-.352 1.752a.225.225 0 0 1-.218.192v-.018Zm24.879-1.828a.219.219 0 0 1-.195-.154.228.228 0 0 1-.01-.086v-.215c0-.485-.118-.964-.343-1.395a.226.226 0 0 1 .105-.277.23.23 0 0 1 .157-.019.228.228 0 0 1 .13.091c.262.493.398 1.042.396 1.6.005.084.005.167 0 .25a.218.218 0 0 1-.149.211.203.203 0 0 1-.091.012v-.018Zm-24.064-1.649a.223.223 0 0 1-.209-.151.223.223 0 0 1 .009-.17 3.399 3.399 0 0 1 1.265-1.405.223.223 0 0 1 .169-.03.217.217 0 0 1 .139.102.23.23 0 0 1 .026.168.224.224 0 0 1-.098.139 2.944 2.944 0 0 0-1.1 1.222.232.232 0 0 1-.205.143l.004-.018Zm22.486-1.36a.198.198 0 0 1-.111-.031 2.983 2.983 0 0 0-1.524-.415h-.076a.228.228 0 0 1-.158-.065.228.228 0 0 1-.065-.158c0-.059.024-.116.065-.158a.228.228 0 0 1 .158-.065h.054a3.418 3.418 0 0 1 1.746.477.223.223 0 0 1-.111.415h.022Zm-3.498-.446h-1.782a.223.223 0 0 1 0-.446h1.782c.059 0 .116.024.158.065a.228.228 0 0 1 .065.158.228.228 0 0 1-.065.158.228.228 0 0 1-.158.065Zm-3.565 0h-1.782a.223.223 0 0 1 0-.446h1.782c.059 0 .116.024.158.065a.228.228 0 0 1 .065.158.228.228 0 0 1-.065.158.228.228 0 0 1-.158.065Zm-3.565 0h-1.782a.223.223 0 0 1 0-.446h1.782c.059 0 .116.024.158.065a.228.228 0 0 1 .065.158.228.228 0 0 1-.065.158.228.228 0 0 1-.158.065Zm-3.565 0h-1.782a.223.223 0 0 1 0-.446h1.782c.059 0 .116.024.158.065a.228.228 0 0 1 .065.158.228.228 0 0 1-.065.158.228.228 0 0 1-.158.065Zm-3.565 0h-1.782a.24.24 0 0 1-.163-.063.243.243 0 0 1-.05-.073.22.22 0 0 1 .043-.244.22.22 0 0 1 .156-.066h1.783c.059 0 .116.024.158.065a.228.228 0 0 1 .065.158.228.228 0 0 1-.065.158.228.228 0 0 1-.158.065h.013ZM401.259 307.75a.222.222 0 0 1-.223-.223.222.222 0 0 1 .223-.223h1.782a.231.231 0 0 1 .222.308.208.208 0 0 1-.116.121.217.217 0 0 1-.084.017h-1.804Zm-1.783 0h-1.782a.222.222 0 0 1-.223-.223.222.222 0 0 1 .223-.223h1.782a.22.22 0 0 1 .157.066.22.22 0 0 1 0 .315.22.22 0 0 1-.157.065Zm-3.565 0h-1.782a.222.222 0 0 1-.223-.223.222.222 0 0 1 .223-.223h1.782a.22.22 0 0 1 .157.066.22.22 0 0 1 0 .315.22.22 0 0 1-.157.065Zm-3.565 0h-1.782a.222.222 0 0 1-.223-.223.222.222 0 0 1 .223-.223h1.782a.22.22 0 0 1 .157.066.22.22 0 0 1 0 .315.22.22 0 0 1-.157.065Zm-3.565 0h-1.782a.222.222 0 0 1-.223-.223.222.222 0 0 1 .223-.223h1.782a.22.22 0 0 1 .157.066.22.22 0 0 1 0 .315.22.22 0 0 1-.157.065Zm-3.565 0h-.062a3.474 3.474 0 0 1-1.761-.482.225.225 0 0 1-.105-.136.229.229 0 0 1 .024-.171.216.216 0 0 1 .059-.065.219.219 0 0 1 .167-.041.23.23 0 0 1 .083.03c.464.275.993.419 1.533.419h.062a.22.22 0 0 1 .157.066.22.22 0 0 1 0 .315.22.22 0 0 1-.157.065Zm19.608-.5a.222.222 0 0 1-.121-.41 3 3 0 0 0 1.097-1.226.224.224 0 0 1 .127-.113.225.225 0 0 1 .284.139.227.227 0 0 1-.01.17 3.489 3.489 0 0 1-1.262 1.409.201.201 0 0 1-.169.031h.054Zm-22.54-1.239a.231.231 0 0 1-.115-.032.236.236 0 0 1-.081-.088 3.455 3.455 0 0 1-.388-1.587v-.263a.214.214 0 0 1 .153-.198.246.246 0 0 1 .172.016.223.223 0 0 1 .121.217 1.735 1.735 0 0 0 0 .228c0 .481.116.955.338 1.382a.223.223 0 0 1-.093.298.233.233 0 0 1-.161.027h.054Zm24.171-1.783h-.045a.232.232 0 0 1-.14-.097.23.23 0 0 1-.034-.166l.357-1.757a.225.225 0 0 1 .411-.081c.034.05.046.111.034.17l-.356 1.757a.21.21 0 0 1-.038.078.22.22 0 0 1-.234.078l.045.018Zm-24.193-1.69h-.045a.212.212 0 0 1-.143-.094.239.239 0 0 1-.033-.081.237.237 0 0 1 .002-.088l.303-1.783a.23.23 0 0 1 .033-.081.204.204 0 0 1 .062-.062.199.199 0 0 1 .081-.033.232.232 0 0 1 .167.036.212.212 0 0 1 .061.062.209.209 0 0 1 .033.08.213.213 0 0 1 0 .087l-.357 1.752a.228.228 0 0 1-.074.134.222.222 0 0 1-.144.053l.054.018Zm24.906-1.819h-.045a.226.226 0 0 1-.08-.033.225.225 0 0 1-.094-.23l.352-1.757a.233.233 0 0 1 .097-.144.227.227 0 0 1 .349.234l-.352 1.752a.24.24 0 0 1-.107.139.23.23 0 0 1-.174.021l.054.018Zm-24.198-1.69h-.044a.213.213 0 0 1-.142-.095.242.242 0 0 1-.033-.08.237.237 0 0 1 .001-.088l.356-1.756a.24.24 0 0 1 .034-.081.226.226 0 0 1 .142-.094.231.231 0 0 1 .087.001.229.229 0 0 1 .174.263l-.356 1.756a.221.221 0 0 1-.186.164.209.209 0 0 1-.086-.008l.053.018Zm24.906-1.823h-.044a.215.215 0 0 1-.081-.034.226.226 0 0 1-.094-.142.231.231 0 0 1 .001-.087l.356-1.752a.232.232 0 0 1 .097-.145.227.227 0 0 1 .315.064.23.23 0 0 1 .034.17l-.357 1.752a.22.22 0 0 1-.28.156l.053.018Zm-24.193-1.685h-.044a.215.215 0 0 1-.081-.034.234.234 0 0 1-.094-.142.231.231 0 0 1 .001-.087l.352-1.757a.23.23 0 0 1 .096-.14.233.233 0 0 1 .167-.034.22.22 0 0 1 .174.263l-.353 1.757a.225.225 0 0 1-.271.156l.053.018Zm24.906-1.824h-.044a.23.23 0 0 1-.081-.033.24.24 0 0 1-.061-.062.242.242 0 0 1-.033-.08.237.237 0 0 1 .001-.088l.352-1.756a.225.225 0 0 1 .096-.14.224.224 0 0 1 .167-.034.225.225 0 0 1 .174.263l-.353 1.756a.22.22 0 0 1-.271.156l.053.018Zm-24.197-1.69h-.045a.194.194 0 0 1-.08-.033.2.2 0 0 1-.061-.062.2.2 0 0 1-.033-.08.237.237 0 0 1 0-.088l.357-1.752a.218.218 0 0 1 .032-.081.225.225 0 0 1 .231-.093.268.268 0 0 1 .08.034.23.23 0 0 1 .094.229l-.357 1.753a.224.224 0 0 1-.272.156l.054.017Zm24.906-1.819h-.045a.194.194 0 0 1-.08-.033.2.2 0 0 1-.061-.062.2.2 0 0 1-.033-.08.237.237 0 0 1 0-.088l.357-1.756a.226.226 0 0 1 .033-.08.24.24 0 0 1 .062-.061.204.204 0 0 1 .081-.033.212.212 0 0 1 .167.034.234.234 0 0 1 .094.142.254.254 0 0 1 0 .087l-.357 1.757a.227.227 0 0 1-.272.156l.054.017Zm-24.193-1.689h-.085a.199.199 0 0 1-.081-.033.212.212 0 0 1-.095-.142.237.237 0 0 1 .002-.088l.352-1.757a.232.232 0 0 1 .263-.174.228.228 0 0 1 .141.096.216.216 0 0 1 .033.08.212.212 0 0 1 0 .087l-.352 1.757a.224.224 0 0 1-.232.156l.054.018Zm24.825-1.828a.218.218 0 0 1-.152-.075.233.233 0 0 1-.043-.075.228.228 0 0 1-.01-.086v-.219a2.97 2.97 0 0 0-.343-1.391.24.24 0 0 1-.025-.084.233.233 0 0 1 .009-.087.232.232 0 0 1 .11-.132.24.24 0 0 1 .084-.025.214.214 0 0 1 .087.009.232.232 0 0 1 .132.11c.258.494.392 1.043.392 1.6.005.083.005.167 0 .25a.228.228 0 0 1-.022.085.23.23 0 0 1-.131.111c-.029.009-.058.012-.088.009Zm-24.063-1.65a.177.177 0 0 1-.098-.027.21.21 0 0 1-.07-.052.247.247 0 0 1-.044-.075.234.234 0 0 1 .011-.171 3.428 3.428 0 0 1 1.266-1.4.212.212 0 0 1 .081-.032.201.201 0 0 1 .088.002.22.22 0 0 1 .138.101.227.227 0 0 1-.071.308 3.013 3.013 0 0 0-1.105 1.221.226.226 0 0 1-.086.082.228.228 0 0 1-.115.025l.005.018Zm22.486-1.337a.196.196 0 0 1-.111-.031 2.984 2.984 0 0 0-1.525-.415h-.071a.223.223 0 0 1-.223-.223.225.225 0 0 1 .223-.223h.071a3.44 3.44 0 0 1 1.752.477.225.225 0 0 1 .076.303.226.226 0 0 1-.197.072l.005.04Zm-3.498-.446h-1.783a.224.224 0 0 1-.223-.223c0-.059.024-.115.066-.157a.22.22 0 0 1 .157-.066h1.783a.22.22 0 0 1 .157.066.222.222 0 0 1-.157.38Zm-3.565 0h-1.783a.224.224 0 0 1-.223-.223c0-.059.024-.115.066-.157a.22.22 0 0 1 .157-.066h1.783a.22.22 0 0 1 .157.066.222.222 0 0 1-.157.38Zm-3.565 0h-1.783a.224.224 0 0 1-.223-.223c0-.059.024-.115.066-.157a.22.22 0 0 1 .157-.066h1.783a.22.22 0 0 1 .157.066.222.222 0 0 1-.157.38Zm-3.565 0h-1.783a.224.224 0 0 1-.223-.223c0-.059.024-.115.066-.157a.22.22 0 0 1 .157-.066h1.783a.22.22 0 0 1 .157.066.222.222 0 0 1-.157.38Zm-3.565 0h-1.783a.217.217 0 0 1-.087-.016.218.218 0 0 1-.123-.121.227.227 0 0 1-.017-.086.217.217 0 0 1 .022-.09.228.228 0 0 1 .228-.133h1.755a.224.224 0 0 1 .158.381.223.223 0 0 1-.158.065h.005Z"/><path fill="#448CC7" d="m426.191 269.484-17.825 5.987a1.39 1.39 0 0 1-1.755-.891l-5.985-17.834a1.396 1.396 0 0 1 .891-1.756l17.825-5.988a1.398 1.398 0 0 1 1.756.892l5.985 17.833a1.414 1.414 0 0 1-.892 1.757Z"/><path fill="#448CC7" d="m426.191 269.484-17.825 5.987a1.39 1.39 0 0 1-1.755-.891l-5.985-17.834a1.396 1.396 0 0 1 .891-1.756l17.825-5.988a1.398 1.398 0 0 1 1.756.892l5.985 17.833a1.414 1.414 0 0 1-.892 1.757Z"/><path fill="#fff" d="m428.821 271.027-21.609 7.262a1.689 1.689 0 0 1-2.13-1.061l-7.259-21.618a1.693 1.693 0 0 1 1.06-2.131l21.609-7.263a1.687 1.687 0 0 1 2.13 1.061l7.259 21.618a1.717 1.717 0 0 1-1.06 2.132Z"/><path fill="#448CC7" d="m426.191 269.484-17.825 5.987a1.39 1.39 0 0 1-1.755-.891l-5.985-17.834a1.396 1.396 0 0 1 .891-1.756l17.825-5.988a1.398 1.398 0 0 1 1.756.892l5.985 17.833a1.414 1.414 0 0 1-.892 1.757Z"/><path fill="#fff" d="M412.648 258.913a1.908 1.908 0 0 0 1.3-1.681 1.915 1.915 0 0 0-1.056-1.844 1.91 1.91 0 1 0-1.701 3.423c.453.225.977.262 1.457.102ZM406.628 274.633l-1.648-4.904 5.182-7.472a.786.786 0 0 1 .927-.281l3.119 1.297 3.565-5.443a.792.792 0 0 1 .954-.29l5.677 2.363 2.674 7.914a1.396 1.396 0 0 1-.891 1.756l-17.794 5.952a1.462 1.462 0 0 1-1.765-.892Z" opacity=".8"/><path fill="#FB9C9C" d="m400.546 319.894 3.311-35.221 2.464-8.306c.12-.307 1.453-4.119 1.978-6.01a1.284 1.284 0 0 0-.615-1.475 1.29 1.29 0 0 0-1.706.445l-1.31 2.033a1.051 1.051 0 0 1-.945.251 1.046 1.046 0 0 1-.74-.638l-2.807-8.694-.776.138a1.544 1.544 0 0 0-1.283 1.494l-.031.668a1.082 1.082 0 0 1-.642.745l-.495.183c-.713.303-1.016 1.15-1.047 1.93l.027.722a.828.828 0 0 1-.642.803 1.422 1.422 0 0 0-1.279 1.547l-.062 1.395-.054.058a2.197 2.197 0 0 0-.971 2.426l2.745 11.703-9.18 34.329a7.13 7.13 0 0 0 .513 5.038l16.528 33.027 16.889-13.112-19.87-25.479Z"/><path fill="#448CC7" d="m452.559 386.573 14.434 17.129 11.876-13.121-14.88-25.149-21.185-5.916-14.099-3.549-18.507-23.71-14.296 10.99 17.5 34.904 2.286 42.029 54.059 18.03-5.945-38.293-11.243-13.344Z"/><path fill="#F59696" d="m449.235 334.857 1.987 16.313c.085.642.374 1.239.82 1.708.45.467 1.034.781 1.671.895l1.413 5.056s-19.184-.892-20.013-1.28l-3.249-.793c1.154-.446 2.273-2.613 2.304-3.808l.316-19.643 14.751 1.552Z"/><path fill="#F59696" d="m433.544 349.81.744.223a10.102 10.102 0 0 0 7.68-.893 10.09 10.09 0 0 0 3.002-2.556 10.069 10.069 0 0 0 1.796-3.51l3.868-13.665c.12-.427.156-.874.107-1.315a3.398 3.398 0 0 0-1.266-2.258 3.346 3.346 0 0 0-1.176-.596l-12.772-3.66a4.377 4.377 0 0 0-5.41 3.023l-3.591 12.702a10.212 10.212 0 0 0 7.009 12.483"/><path fill="#F59696" d="M427.542 333.929a19.053 19.053 0 0 0-2.353 2.524c-.731 1.065 1.377 1.609 1.377 1.609l.976-4.133Z"/><path fill="#000" d="M451.574 342.324h-1.551l1.645 3.282-.094-3.282ZM437.88 350.385s-2.17.183-3.681-.401l-.031 2.808 3.712-2.407Z" opacity=".15"/><path fill="#000" d="M426.245 341.174a4.873 4.873 0 0 0 3.476-1.338.228.228 0 0 0-.317-.325 4.652 4.652 0 0 1-3.199 1.212l.04.451Z" opacity=".2"/><path fill="#000" d="M440.46 334.197s3.383 9.287-1.965 15.221c-2.999 3.308-21.095 28.382 18.066 35.577 3.449.655 6.978.785 10.463.384 9.327-1.142 13.957-5.595 14.157-9.902.682-10.727-13.845-14.601-14.679-24.303-.512-5.983 2.902-30.49-13.493-36.255-15.481-5.448-24.509 3.228-24.349 6.367.16 3.138-.414 7.552 11.8 12.911Z"/><path fill="#F59696" d="M439.524 340.108s4.359.178 5.121-4.133c.762-4.311-4.599-4.94-5.192-.571l-.29 4.766.361-.062Z"/><path fill="#fff" d="m439.667 334.812.134-.62-11.751-3.763-.134.625 11.751 3.758Z"/><path fill="#fff" d="M427.287 334.058a.32.32 0 0 0 .254-.227l1.596-5.6a.302.302 0 0 0 .011-.123.303.303 0 0 0-.119-.211.323.323 0 0 0-.503.165l-1.586 5.6a.301.301 0 0 0-.01.123.313.313 0 0 0 .228.269.4.4 0 0 0 .138 0"/><path fill="#000" d="M439.908 333.93a9.204 9.204 0 0 0-.517 2.585.54.54 0 0 1-.58.491.546.546 0 0 1-.49-.571l.277-3.816 1.31 1.311ZM443.651 333.692a1.345 1.345 0 0 0-1.063-.526 1.338 1.338 0 0 0-1.063.526 2.988 2.988 0 0 0-.708 1.338l-.143.446a.248.248 0 0 0 .19.269.247.247 0 0 0 .291-.153l.143-.446c.109-.413.308-.797.584-1.124a.851.851 0 0 1 .302-.279.845.845 0 0 1 .799 0 .851.851 0 0 1 .302.279c.023.023.05.041.08.054.03.012.062.019.094.019a.254.254 0 0 0 .094-.019.257.257 0 0 0 .135-.133.237.237 0 0 0 0-.189.23.23 0 0 0-.055-.079"/><path fill="#448CC7" d="M441.931 338.388a.863.863 0 0 0-.624-.725.866.866 0 0 0-.908.299.855.855 0 0 0-.179.467.855.855 0 0 0 .47.831.86.86 0 0 0 1.241-.872Z"/><path fill="#000" d="M440.786 339.252a.923.923 0 0 0 .664-.297.942.942 0 0 0 .254-.683 1.022 1.022 0 0 0-.183-.477.958.958 0 0 1 .414.691.846.846 0 0 1-.846.891.717.717 0 0 1-.513-.147c.085 0 .165 0 .21.027M441.374 339.819s-.793.201-1.061.241c-.267.04-1.15.089-1.15.089s1.11 1.502 2.229 1.815c-.018-.009.044-1.548-.018-2.145Z" opacity=".15"/><path fill="#FB9C9C" d="M523.164 370.973a.836.836 0 0 0 .245-.533.845.845 0 0 0-.178-.559.74.74 0 0 0-1.025-.165l-4.564 3.607s3.405-3.442 4.902-4.905a.968.968 0 0 0 .281-.662.995.995 0 0 0-.249-.675.856.856 0 0 0-1.123-.067l-5.125 4.235s2.58-3.143 3.703-4.498a.82.82 0 0 0 .152-.272.815.815 0 0 0 .035-.31.862.862 0 0 0-.089-.299.823.823 0 0 0-.196-.243.817.817 0 0 0-1.092.067l-6.515 6.75c-.165.232-.597.165-.33-.263.401-.641.745-1.317 1.025-2.019.33-.959.232-1.819-.695-2.283a.274.274 0 0 0-.174.016.258.258 0 0 0-.124.118l-2.977 3.705a15.719 15.719 0 0 0-1.622 3.045l-1.159 2.88-.927 2.599-20.77 18.93-5.695-8.564-11.876 13.12 7.62 10.036a7.56 7.56 0 0 0 2.567 2.158 7.594 7.594 0 0 0 6.532.215 7.625 7.625 0 0 0 2.701-1.985l26.559-30.589 9.951-10.022a.679.679 0 0 0 .169-.403.68.68 0 0 0-.102-.426.603.603 0 0 0-.366-.233.605.605 0 0 0-.427.068l-2.879 2.282s2.5-2.666 3.837-3.856Z"/><path fill="#000" d="m413.402 378.147 3.926 5.961 2.17 37.347-3.81-1.275-2.286-42.033ZM428.691 355.966l-5.227-.967-25.744-33.58 4.234-38.44s5.771-11.03 5.748-14.093l.237.196a1.193 1.193 0 0 1 .378 1.28l-4.456 14.316-3.311 35.22 28.141 36.068ZM463.802 399.916l-2.192-16.192 7.294 17.864-1.911 2.114-3.191-3.786Z" opacity=".15"/><path fill="#000" d="M427.72 419.77a.506.506 0 0 1-.468.468h-3.222a.502.502 0 0 1-.446-.468.506.506 0 0 1 .446-.445h3.222c.29-.023.548.205.468.445ZM432.8 379.515a.502.502 0 0 1-.468.446h-3.222a.504.504 0 0 1-.468-.446.508.508 0 0 1 .468-.446h3.222c.294-.022.526.21.468.446ZM424.19 386.836a.503.503 0 0 1-.445.468h-3.222a.507.507 0 0 1-.446-.468.506.506 0 0 1 .446-.446h3.222c.267-.022.49.209.445.446ZM452.858 390.162a.506.506 0 0 1-.468.446h-3.2a.506.506 0 0 1-.468-.446.506.506 0 0 1 .468-.446h3.222c.267-.022.503.21.446.446ZM459.814 405.298a.521.521 0 0 1-.143.302.51.51 0 0 1-.303.144h-3.222a.51.51 0 0 1-.303-.144.514.514 0 0 1-.142-.302.502.502 0 0 1 .445-.468h3.222c.267-.013.517.236.446.468ZM446.793 425.205a.518.518 0 0 1-.143.301.51.51 0 0 1-.303.144h-3.222a.499.499 0 0 1-.468-.445.506.506 0 0 1 .468-.469h3.222c.267 0 .503.237.446.469ZM427.72 361.692a.506.506 0 0 1-.468.468h-3.222a.509.509 0 0 1-.446-.468.506.506 0 0 1 .446-.446h3.222c.29-.023.548.209.468.446ZM408.487 354.157a.506.506 0 0 1-.446.446h-3.222a.506.506 0 0 1-.445-.446.5.5 0 0 1 .445-.446h3.222c.272-.022.504.21.446.446ZM416.267 364.964a.5.5 0 0 1-.445.446H412.6a.507.507 0 0 1-.468-.446.501.501 0 0 1 .468-.468h3.222c.267 0 .503.236.445.468ZM413.21 345.137a.503.503 0 0 1-.445.469h-3.236a.507.507 0 0 1-.468-.469.509.509 0 0 1 .468-.445h3.222c.285-.023.517.214.459.445ZM444.52 408.089a.51.51 0 0 1-.615-.25l-1.252-2.969a.51.51 0 0 1 .249-.615.513.513 0 0 1 .615.25l1.252 2.969a.435.435 0 0 1 .013.363.446.446 0 0 1-.262.252ZM439.671 385.29a.506.506 0 0 1 .192-.638l2.834-1.529a.506.506 0 0 1 .638.192.508.508 0 0 1-.192.637l-2.834 1.529a.465.465 0 0 1-.176.063.468.468 0 0 1-.186-.015.457.457 0 0 1-.276-.239ZM434.181 397.527a.505.505 0 0 1 .192-.637l2.834-1.529a.505.505 0 0 1 .637.191.5.5 0 0 1 .024.355.5.5 0 0 1-.215.283l-2.834 1.529a.447.447 0 0 1-.638-.192ZM402.315 347.206a.499.499 0 0 1-.446-.5l.205-3.219a.494.494 0 0 1 .164-.318.493.493 0 0 1 .335-.127.496.496 0 0 1 .446.499l-.205 3.219c-.022.299-.268.517-.499.446ZM420.282 373.332a.5.5 0 0 1 .192-.637l2.834-1.529a.5.5 0 0 1 .637.191.5.5 0 0 1-.191.638l-2.834 1.529a.447.447 0 0 1-.638-.192ZM455.17 428.776a.511.511 0 0 1 .192-.638l2.834-1.529a.51.51 0 0 1 .357-.025.519.519 0 0 1 .28.217.516.516 0 0 1 .023.355.492.492 0 0 1-.214.282l-2.834 1.529a.45.45 0 0 1-.638-.191ZM437.764 413.827a.501.501 0 0 1-.142.647l-2.714 1.739a.507.507 0 0 1-.646-.143.507.507 0 0 1 .142-.646l2.714-1.739a.446.446 0 0 1 .646.142ZM425.42 407.937a.504.504 0 0 1-.65-.138l-1.783-2.702a.51.51 0 0 1 .138-.651.51.51 0 0 1 .651.138l1.782 2.702a.453.453 0 0 1 .001.527.447.447 0 0 1-.139.124ZM416.049 355.9a.508.508 0 0 1-.651-.138l-1.76-2.702a.505.505 0 0 1 .138-.651.51.51 0 0 1 .651.139l1.782 2.701a.44.44 0 0 1 .068.362.442.442 0 0 1-.228.289ZM471.11 391.887a.506.506 0 0 1-.65-.138l-1.783-2.702a.51.51 0 0 1 .138-.651.512.512 0 0 1 .651.138l1.782 2.702a.466.466 0 0 1 .076.17.422.422 0 0 1 0 .187.466.466 0 0 1-.076.17.433.433 0 0 1-.138.124ZM454.693 419.234a.506.506 0 0 1-.65-.138l-1.76-2.701a.537.537 0 0 1-.054-.352.516.516 0 0 1 .192-.299.513.513 0 0 1 .352-.053c.12.026.223.094.298.191l1.761 2.702c.035.05.062.108.075.17a.417.417 0 0 1 0 .186.435.435 0 0 1-.214.294Z" opacity=".6"/><path fill="#448CC7" d="M466.569 290.514h39.786a1.428 1.428 0 0 1 1.426 1.427v15.72a1.416 1.416 0 0 1-.419 1.009c-.129.132-.29.237-.459.309a1.454 1.454 0 0 1-.548.108H474.88l-8.311 6.278a.891.891 0 0 1-1.399-.7v-22.738c0-.378.152-.741.419-1.009a1.422 1.422 0 0 1 1.007-.417"/><path fill="#fff" d="M493.383 299.6a2.984 2.984 0 0 0 3.569 2.93 2.99 2.99 0 0 0 1.529-.818 3.01 3.01 0 0 0 .815-1.529 2.974 2.974 0 0 0-.169-1.726 3.004 3.004 0 0 0-1.101-1.34 2.99 2.99 0 0 0-3.77.371 2.998 2.998 0 0 0-.873 2.112ZM483.909 299.6a2.984 2.984 0 0 0 3.569 2.93 2.99 2.99 0 0 0 1.529-.818 3.01 3.01 0 0 0 .815-1.529 2.974 2.974 0 0 0-.169-1.726 3.004 3.004 0 0 0-1.101-1.34 2.99 2.99 0 0 0-3.77.371 2.998 2.998 0 0 0-.873 2.112ZM474.43 299.6a2.981 2.981 0 0 0 3.57 2.93 2.987 2.987 0 1 0-3.57-2.93ZM245.107 210.259c11.526 0 20.869-9.347 20.869-20.878s-9.343-20.879-20.869-20.879c-11.525 0-20.869 9.348-20.869 20.879s9.344 20.878 20.869 20.878Z"/><path fill="#448CC7" d="M253.841 198.842h-17.468a1.294 1.294 0 0 1-1.288-1.289v-17.476a1.292 1.292 0 0 1 1.288-1.289h17.468a1.29 1.29 0 0 1 1.288 1.289v17.476a1.313 1.313 0 0 1-1.288 1.289Z"/><path fill="#448CC7" d="M253.841 198.842h-17.468a1.294 1.294 0 0 1-1.288-1.289v-17.476a1.292 1.292 0 0 1 1.288-1.289h17.468a1.29 1.29 0 0 1 1.288 1.289v17.476a1.313 1.313 0 0 1-1.288 1.289Z"/><path fill="#DCDCDC" d="M253.841 198.842h-17.468a1.294 1.294 0 0 1-1.288-1.289v-17.476a1.292 1.292 0 0 1 1.288-1.289h17.468a1.29 1.29 0 0 1 1.288 1.289v17.476a1.313 1.313 0 0 1-1.288 1.289Z"/><path fill="#84888F" d="M245.031 185.498a1.777 1.777 0 0 0 1.647-1.101 1.785 1.785 0 0 0-2.329-2.33 1.784 1.784 0 0 0 .682 3.431ZM235.085 197.562v-4.819l6.778-5.047a.732.732 0 0 1 .891.027l2.344 2.064 4.768-3.736a.742.742 0 0 1 .927.026l4.305 3.763v7.758a1.291 1.291 0 0 1-1.288 1.288h-17.433a1.334 1.334 0 0 1-1.292-1.324Z"/><path fill="#448CC7" d="M436.802 145.899a11.327 11.327 0 0 1-11.11-13.544 11.338 11.338 0 0 1 3.1-5.803 11.324 11.324 0 0 1 19.337 8.014c0 1.489-.294 2.962-.86 4.338a11.336 11.336 0 0 1-6.131 6.134 11.338 11.338 0 0 1-4.336.861Z"/><path fill="#fff" d="M433.254 135.979a1.176 1.176 0 0 0 .856-.334l3.65 2.126c0 .076-.036.148-.036.223a1.377 1.377 0 1 0 2.754 0 1.333 1.333 0 0 0-.844-1.284 1.327 1.327 0 0 0-.533-.093 1.194 1.194 0 0 0-.462.08c-.146.058-.28.144-.394.254l-3.649-2.127c0-.075.035-.147.035-.222a.487.487 0 0 0-.035-.223l3.649-2.127c.238.209.541.328.856.334a1.378 1.378 0 0 0 1.377-1.377 1.335 1.335 0 0 0-1.377-1.378 1.377 1.377 0 0 0-1.377 1.378.501.501 0 0 0 .036.223l-3.65 2.126a1.338 1.338 0 0 0-.856-.334 1.376 1.376 0 0 0-.973 2.352c.258.258.608.403.973.403Z"/><path fill="#448CC7" d="m427.733 163.741 19.563 28.739a7.81 7.81 0 0 1 1.025 6.675 7.836 7.836 0 0 1-4.545 4.992l-23.552 8.961-4.603-7.467 17.326-9.225-13.52-15.006-14.015-19.345 11.617-2.573a10.272 10.272 0 0 1 10.704 4.249Z"/><path fill="#000" d="M376.108 172.092a23.304 23.304 0 0 0 16.546-.139c8.836-3.486 12.758-9.906 12.758-9.906l2.977-.66s-6.239 9.916-16.386 12.813c-11.635 3.317-18.271-.891-18.271-.891l2.376-1.217Z"/><path fill="#FA9B9B" d="m399.926 210.349 15.691-4.704 4.607 7.463s-5.191 2.122-7.089 2.782c-3.222 1.124-6.239-2.626-6.239-2.626l-6.97-2.915Z"/><path fill="#FA9B9B" d="M399.151 211.659c-.406.183-.366.272-.802 1.338l-3.387 8.283a1.058 1.058 0 0 0 .544 1.365 1.064 1.064 0 0 0 1.394-.482l3.646-6.937-1.56 6.161c-.042.161-.044.33-.006.492.037.163.113.313.221.439.108.127.245.226.399.287a1.055 1.055 0 0 0 1.378-.593l2.58-7.254-1.979 5.484a.952.952 0 0 0 .976 1.27.956.956 0 0 0 .789-.503l3.382-6.416-2.277 4.369a.823.823 0 0 0-.018.762.823.823 0 0 0 .611.455.884.884 0 0 0 .789-.263l3.097-3.513 2.388-2.55-12.165-2.194Z"/><path fill="#000" d="M407.052 214.58a.243.243 0 0 0-.183-.019.248.248 0 0 0-.143.117l-1.827 3.437-.445.865a.814.814 0 0 0 .067.892l2.638-4.98a.253.253 0 0 0-.107-.312ZM403.959 214.892a.242.242 0 0 0 0-.19.235.235 0 0 0-.057-.079.252.252 0 0 0-.083-.05.246.246 0 0 0-.19.017.237.237 0 0 0-.116.15l-.891 2.537.891-2.546-1.042 2.947-.945 2.738a.972.972 0 0 0 .223.789.193.193 0 0 0 .026-.049l2.184-6.264Z" opacity=".15"/><path fill="#FA9B9B" d="m398.701 212.127.606-1.243a1.037 1.037 0 0 1 1.118-.567l10.281 1.873a1.036 1.036 0 0 1 .637 1.65l-.031.04-12.611-1.753Z"/><path fill="#000" d="m420.22 213.108 12.856-4.891 2.785 8.48h-2.281l-2.077-6.398-11.283 2.809ZM415.621 205.641l17.322-9.225-15.455-17.681.41-.326 17.522 18.85-17.384 8.578-.886.441-.874.428-.655-1.065Z" opacity=".15"/><path fill="#000" d="m415.621 205.641 4.603 7.467-6.876 2.711a4.086 4.086 0 0 1-3.119-.049l-.504-.218 2.309-.201 6.653-2.773-4.131-6.603 1.065-.334Z" opacity=".15"/><path fill="#F3F3F3" d="M422.818 207.357a.644.644 0 0 0 .38-.044.661.661 0 0 0-.019-1.219.666.666 0 0 0-.717.155.657.657 0 0 0-.174.341.64.64 0 0 0 .288.676.652.652 0 0 0 .242.091ZM424.137 196.71a.651.651 0 0 0 .672-.291.661.661 0 0 0-.311-.971.657.657 0 0 0-.891.495.652.652 0 0 0 .288.676.658.658 0 0 0 .242.091ZM432.002 174.267a.663.663 0 0 0 .673-.291.657.657 0 0 0-.694-1.003.662.662 0 0 0-.509.527.654.654 0 0 0 .288.676.658.658 0 0 0 .242.091ZM432.002 186.527a.655.655 0 0 0 .673-.291.649.649 0 0 0 .105-.368.652.652 0 0 0-.417-.603.664.664 0 0 0-.382-.032.664.664 0 0 0-.509.527.646.646 0 0 0 .53.767ZM438.005 194.968a.66.66 0 1 0-.53-.767.64.64 0 0 0 .288.675.637.637 0 0 0 .242.092ZM437.345 203.929a.663.663 0 0 0 .673-.291.652.652 0 0 0 .105-.369.643.643 0 0 0-.117-.364.653.653 0 0 0-.681-.27.654.654 0 0 0-.51.527.664.664 0 0 0 0 .259.659.659 0 0 0 .289.416.632.632 0 0 0 .241.092ZM430.028 207.357a.648.648 0 0 0 .381-.044.65.65 0 0 0 .397-.616.659.659 0 0 0-1.308-.107.645.645 0 0 0 .53.767ZM438.005 185.868a.66.66 0 1 0-.53-.766.652.652 0 0 0 .288.675.635.635 0 0 0 .242.091ZM432.002 202.461a.655.655 0 0 0 .673-.291.647.647 0 0 0 .105-.368.652.652 0 0 0-.417-.603.656.656 0 0 0-.716.155.655.655 0 0 0-.175.341.65.65 0 0 0 .53.766ZM443.994 196.71a.656.656 0 0 0 .778-.66.659.659 0 0 0-1.308-.107.654.654 0 0 0 .288.676.658.658 0 0 0 .242.091ZM422.818 179.055a.651.651 0 0 0 .672-.291.66.66 0 1 0-1.202-.476.652.652 0 0 0 .288.676.635.635 0 0 0 .242.091ZM422.818 166.403a.668.668 0 0 0 .38-.043.665.665 0 0 0 .398-.617.659.659 0 0 0-1.308-.107.652.652 0 0 0 .288.675.637.637 0 0 0 .242.092ZM426.062 214.526a.655.655 0 0 0 .778-.66.659.659 0 0 0-1.308-.107.628.628 0 0 0 0 .259.67.67 0 0 0 .101.238.658.658 0 0 0 .429.27Z"/><path fill="#448CC7" d="M282.731 401.758h-13.574a1.337 1.337 0 0 1-1.359-1.279v-14.026a1.336 1.336 0 0 1 1.359-1.28h13.583a1.34 1.34 0 0 1 1.337 1.28v14.026a1.338 1.338 0 0 1-1.346 1.279Z"/><path fill="#fff" d="m274.447 396.761-2.79-2.729a.413.413 0 0 1 0-.548l.718-.731a.414.414 0 0 1 .548 0l1.783 1.756 4.224-4.342a.414.414 0 0 1 .548 0l.731.718a.408.408 0 0 1 0 .548l-5.218 5.35a.395.395 0 0 1-.43.086.38.38 0 0 1-.127-.086M551.786 248.169h-35.752a2.094 2.094 0 0 1-1.48-.613 2.093 2.093 0 0 1-.45-.678 2.059 2.059 0 0 1-.16-.8v-35.769a2.092 2.092 0 0 1 .606-1.488 2.116 2.116 0 0 1 1.484-.617h35.752a2.089 2.089 0 0 1 2.09 2.091V246.1a2.078 2.078 0 0 1-.619 1.464 2.095 2.095 0 0 1-1.471.605Z"/><path fill="#868A91" d="M532.566 240.247a3.893 3.893 0 0 1-3.885-3.888v-14.984a5.233 5.233 0 0 1 5.227-5.23 5.222 5.222 0 0 1 4.83 3.231c.263.635.397 1.316.397 2.003v11.939c0 .096-.018.19-.054.278a.8.8 0 0 1-.16.236.697.697 0 0 1-.236.157.706.706 0 0 1-.553 0 .697.697 0 0 1-.236-.157.8.8 0 0 1-.16-.236.732.732 0 0 1-.054-.278v-11.939a3.84 3.84 0 0 0-.285-1.448 3.797 3.797 0 0 0-2.045-2.046 3.779 3.779 0 0 0-5.223 3.494v14.984a2.436 2.436 0 0 0 2.433 2.335 2.437 2.437 0 0 0 2.438-2.335v-11.564a1.238 1.238 0 0 0-1.23-1.235c-.326 0-.642.131-.874.362a1.253 1.253 0 0 0-.361.873v8.261a.715.715 0 0 1-.214.513.72.72 0 0 1-1.025 0 .719.719 0 0 1-.213-.513v-8.261c0-.71.28-1.391.784-1.892a2.665 2.665 0 0 1 1.889-.783c.709 0 1.391.281 1.89.783.503.501.784 1.182.784 1.892v11.56a3.91 3.91 0 0 1-1.132 2.738 3.907 3.907 0 0 1-2.732 1.15Z"/><path fill="#000" d="m415.621 205.641 1.422-.758 4.772 7.575-1.595.651-4.599-7.468ZM311.452 228.102l8.886 5.8 1.252-1.413-9.167-5.747-.971 1.36Z"/></svg>