<svg width="1302" height="968" viewBox="0 0 1302 968" fill="none" xmlns="http://www.w3.org/2000/svg">
<g clip-path="url(#clip0_160_273)">
<path d="M1262.32 966.19L1301.67 583.79C1302.47 575.59 1301.55 567.315 1298.97 559.49L1159.14 140.1C1151.81 118.1 1131.96 102.1 1108.14 99.0201L335.488 0.540147C324.953 -0.847853 314.239 0.452147 304.341 4.31815C294.443 8.18315 285.684 14.4902 278.878 22.6502L13.4279 345.35C3.95492 356.773 -0.806076 371.379 0.117924 386.19L36.2079 965.34L1262.32 966.19Z" fill="#F0F8F8"/>
<path d="M911.97 624.231L878.97 593.231H370.178L346.958 624.231H911.97Z" fill="#448CC7"/>
<path opacity="0.2" d="M911.97 624.231L878.97 593.231H370.178L346.958 624.231H911.97Z" fill="black"/>
<path d="M911.81 624.231H352.032V964.86H911.81V624.231Z" fill="#448CC7"/>
<path opacity="0.2" d="M911.81 624.231H352.032V964.86H911.81V624.231Z" fill="black"/>
<path d="M886.59 252.231H368.181V854.221H886.59V252.231Z" fill="white"/>
<path d="M863.31 279.241H391.443V827.201H863.31V279.241Z" stroke="#B2B6BB" stroke-width="2.53" stroke-miterlimit="10"/>
<path d="M457.669 381.32C464.749 381.32 468.329 380.97 471.869 381.39C475.409 381.81 478.869 383.63 485.959 383.63C493.049 383.63 496.439 381.18 499.959 380.76C503.479 380.34 507.159 381.29 514.229 381.29C518.947 381.195 523.666 381.395 528.359 381.89C531.899 382.32 535.439 383.89 542.509 383.89C547.286 383.917 552.058 383.599 556.789 382.94C561.422 382.228 566.102 381.871 570.789 381.87C577.859 381.87 581.439 381 584.979 381.42C588.519 381.84 591.979 382.81 599.069 382.81C603.802 382.839 608.53 382.532 613.219 381.89C617.905 381.29 622.626 381.013 627.349 381.06C632.074 381.052 636.793 381.386 641.469 382.06C644.999 382.48 648.569 381.58 655.639 381.58C662.709 381.58 666.259 382.33 669.789 381.91C673.319 381.49 676.849 379.78 683.919 379.78C690.989 379.78 694.729 379.71 698.269 380.14C701.809 380.57 705.139 382.14 712.209 382.14C719.279 382.14 722.889 382.8 726.419 382.38C731.087 381.77 735.792 381.486 740.499 381.53C747.569 381.53 751.099 381.4 754.639 381.82C758.179 382.24 761.709 384.07 768.789 384.07C773.57 384.081 778.346 383.746 783.079 383.07C786.619 382.64 789.999 380.83 797.079 380.83" stroke="#3F4249" stroke-width="1.2" stroke-miterlimit="10" stroke-linecap="round"/>
<path d="M610.868 410.641C618.638 410.641 618.638 412.391 626.418 412.391C634.198 412.391 634.188 411.131 641.968 411.131C649.748 411.131 649.748 412.731 657.518 412.731C665.288 412.731 665.298 410.961 673.068 410.961C680.838 410.961 680.848 413.661 688.618 413.661C696.388 413.661 696.398 411.441 704.178 411.441C711.958 411.441 711.948 413.841 719.728 413.841C727.508 413.841 727.508 410.661 735.278 410.661C743.048 410.661 743.058 413.391 750.838 413.391C758.618 413.391 758.608 410.791 766.388 410.791C774.168 410.791 774.168 413.871 781.948 413.871C789.728 413.871 789.728 410.561 797.508 410.561" stroke="#3F4249" stroke-width="1.2" stroke-miterlimit="10" stroke-linecap="round"/>
<path d="M458.103 411.359C462.773 411.359 462.773 413.509 467.443 413.509C472.113 413.509 472.113 411.269 476.783 411.269C481.453 411.269 481.453 413.269 486.123 413.269C490.793 413.269 490.793 411.909 495.473 411.909C500.153 411.909 500.143 413.389 504.813 413.389C509.483 413.389 509.483 411.459 514.153 411.459C518.823 411.459 518.823 412.789 523.493 412.789C528.163 412.789 528.163 411.389 532.833 411.389C537.503 411.389 537.513 412.529 542.183 412.529C546.853 412.529 546.853 410.879 551.523 410.879C556.193 410.879 556.203 413.239 560.873 413.239C565.543 413.239 565.553 411.139 570.223 411.139" stroke="#3F4249" stroke-width="1.2" stroke-miterlimit="10" stroke-linecap="round"/>
<path d="M525.24 440.67C530.92 440.67 533.67 442.78 536.51 443.2C539.35 443.62 542.28 442.2 547.96 442.2C553.64 442.2 556.66 444.2 559.5 443.82C562.34 443.44 565 441.48 570.68 441.48C574.501 441.41 578.321 441.658 582.1 442.221C584.94 442.641 587.72 442.16 593.4 442.16C599.08 442.16 602.03 443.751 604.87 443.331C607.71 442.911 610.44 440.92 616.12 440.92C621.8 440.92 624.67 442.01 627.51 442.43C630.35 442.85 633.16 442.151 638.84 442.151C644.52 442.151 647.38 443.151 650.22 442.721C653.06 442.291 655.89 440.82 661.57 440.82C667.25 440.82 670 442.75 672.85 443.17C676.623 443.873 680.453 444.228 684.29 444.23C689.97 444.23 692.7 442.231 695.54 441.831C699.33 441.157 703.172 440.822 707.02 440.831C712.7 440.831 715.42 442.981 718.26 443.401C722.065 443.912 725.903 444.126 729.74 444.04C735.43 444.04 738.28 443.04 741.12 442.67C744.857 441.912 748.658 441.517 752.47 441.49C756.295 441.375 760.122 441.549 763.92 442.01C767.661 442.482 771.432 442.666 775.2 442.56C780.88 442.56 783.53 441.67 786.37 441.25C789.21 440.83 792.25 442.771 797.93 442.771" stroke="#3F4249" stroke-width="1.2" stroke-miterlimit="10" stroke-linecap="round"/>
<path d="M458.521 441.88C462.761 441.88 462.761 443.29 467.001 443.29C471.241 443.29 471.241 441.6 475.481 441.6C479.721 441.6 479.721 443.49 483.951 443.49C488.181 443.49 488.201 441.63 492.441 441.63C496.681 441.63 496.681 443.32 500.921 443.32" stroke="#3F4249" stroke-width="1.2" stroke-miterlimit="10" stroke-linecap="round"/>
<path d="M704.193 472.391C710.913 472.391 710.913 474.301 717.643 474.301C724.373 474.301 724.363 472.601 731.083 472.601C737.803 472.601 737.813 473.421 744.533 473.421C751.253 473.421 751.263 471.981 757.993 471.981C764.723 471.981 764.713 473.861 771.443 473.861C778.173 473.861 778.173 472.551 784.893 472.551C791.613 472.551 791.623 474.061 798.353 474.061" stroke="#3F4249" stroke-width="1.2" stroke-miterlimit="10" stroke-linecap="round"/>
<path d="M576.302 472.69C584.082 472.69 584.082 473.69 591.862 473.69C599.642 473.69 599.632 472.37 607.412 472.37C615.192 472.37 615.192 473.57 622.962 473.57C630.732 473.57 630.742 471.77 638.522 471.77C646.302 471.77 646.302 473.71 654.082 473.71C661.862 473.71 661.862 471.91 669.642 471.91C677.422 471.91 677.422 473.35 685.202 473.35" stroke="#3F4249" stroke-width="1.2" stroke-miterlimit="10" stroke-linecap="round"/>
<path d="M458.974 472.13C465.104 472.13 465.104 473.83 471.224 473.83C477.344 473.83 477.344 472.58 483.464 472.58C489.584 472.58 489.594 473.72 495.714 473.72C501.834 473.72 501.844 472.41 507.964 472.41C514.084 472.41 514.084 473.75 520.214 473.75C526.344 473.75 526.344 471.86 532.464 471.86C538.584 471.86 538.594 474.27 544.724 474.27" stroke="#3F4249" stroke-width="1.2" stroke-miterlimit="10" stroke-linecap="round"/>
<path d="M459.361 501.79C466.431 501.79 469.891 503.68 473.421 504.11C476.951 504.54 480.571 503.74 487.651 503.74C494.731 503.74 498.341 504.53 501.871 504.11C505.401 503.69 508.871 502.74 515.931 502.74C522.991 502.74 526.391 504.16 529.931 504.58C533.471 505 537.141 504.15 544.211 504.15C551.281 504.15 554.641 502.34 558.211 501.91C561.781 501.48 565.461 503.32 572.531 503.32C579.601 503.32 582.981 504.32 586.531 504.69C590.081 505.06 593.751 503.46 600.821 503.46C607.891 503.46 611.261 502.46 614.821 501.99C618.381 501.52 622.061 502.27 629.131 502.27C633.867 502.296 638.595 502.69 643.271 503.45C646.801 503.87 650.351 503.57 657.421 503.57C664.491 503.57 668.121 504.63 671.661 504.21C675.201 503.79 678.661 502.88 685.661 502.88C690.375 502.872 695.084 503.206 699.751 503.88C704.442 504.686 709.191 505.11 713.951 505.15C721.021 505.15 724.501 503.41 728.041 502.99C732.735 502.22 737.483 501.822 742.241 501.8C747.008 501.671 751.779 501.815 756.531 502.23C760.061 502.65 763.451 504.9 770.531 504.9C777.611 504.9 780.961 502.44 784.531 502.01C788.101 501.58 791.771 504.24 798.851 504.24" stroke="#3F4249" stroke-width="1.2" stroke-miterlimit="10" stroke-linecap="round"/>
<path d="M460.208 534.501C467.278 534.501 470.828 533.221 474.368 533.641C477.908 534.061 481.418 535.081 488.488 535.081C495.558 535.081 498.938 532.951 502.488 532.531C506.038 532.111 509.708 532.171 516.778 532.171C523.848 532.171 527.238 534.651 530.778 535.071C535.505 535.857 540.287 536.269 545.078 536.301C552.148 536.301 555.658 534.091 559.198 533.661C563.893 533.102 568.62 532.855 573.348 532.921C580.418 532.921 583.868 534.101 587.408 534.521C590.948 534.941 594.558 534.521 601.628 534.521C608.698 534.521 612.278 534.581 615.818 534.151C619.358 533.721 622.818 533.941 629.918 533.941C637.018 533.941 640.668 532.171 644.198 532.601C647.728 533.031 651.128 534.521 658.198 534.521C662.913 534.458 667.615 534.013 672.258 533.191C676.952 532.377 681.704 531.942 686.468 531.891C691.239 531.822 696.009 532.063 700.748 532.611C704.278 533.031 707.678 535.921 714.748 535.921C721.818 535.921 725.428 534.731 728.958 534.311C733.63 533.76 738.334 533.523 743.038 533.601C750.108 533.601 753.778 532.211 757.318 532.601C760.858 532.991 764.258 536.041 771.318 536.041C778.378 536.041 781.958 534.391 785.488 533.971C789.018 533.551 792.538 532.311 799.608 532.311" stroke="#3F4249" stroke-width="1.2" stroke-miterlimit="10" stroke-linecap="round"/>
<path d="M613.404 564.071C621.184 564.071 621.184 564.661 628.954 564.661C636.724 564.661 636.734 564.001 644.504 564.001C652.274 564.001 652.284 564.601 660.064 564.601C667.844 564.601 667.834 564.021 675.614 564.021C683.394 564.021 683.384 565.701 691.164 565.701C698.944 565.701 698.934 562.821 706.714 562.821C714.494 562.821 714.494 565.031 722.264 565.031C730.034 565.031 730.044 564.101 737.814 564.101C745.584 564.101 745.594 564.431 753.374 564.431C761.154 564.431 761.154 563.781 768.934 563.781C776.714 563.781 776.704 565.471 784.484 565.471C792.264 565.471 792.264 563.601 800.044 563.601" stroke="#3F4249" stroke-width="1.2" stroke-miterlimit="10" stroke-linecap="round"/>
<path d="M460.63 562.921C465.3 562.921 465.3 565.481 469.97 565.481C474.64 565.481 474.64 563.061 479.31 563.061C483.98 563.061 483.98 564.801 488.66 564.801C493.34 564.801 493.33 563.801 498 563.801C502.67 563.801 502.67 564.751 507.34 564.751C512.01 564.751 512.01 562.911 516.68 562.911C521.35 562.911 521.35 564.911 526.02 564.911C530.69 564.911 530.69 562.911 535.37 562.911C540.05 562.911 540.04 564.701 544.71 564.701C549.38 564.701 549.38 563.261 554.05 563.261C558.72 563.261 558.73 565.261 563.4 565.261C568.07 565.261 568.08 563.581 572.75 563.581" stroke="#3F4249" stroke-width="1.2" stroke-miterlimit="10" stroke-linecap="round"/>
<path d="M527.771 592.86C531.615 592.86 535.451 593.212 539.231 593.91C542.961 594.428 546.726 594.645 550.491 594.56C556.171 594.56 559.081 595.48 561.921 595.06C565.64 594.332 569.421 593.961 573.211 593.95C578.891 593.95 581.561 595.32 584.401 595.74C588.224 596.269 592.082 596.497 595.941 596.42C599.799 596.533 603.66 596.356 607.491 595.89C610.331 595.47 612.981 593.72 618.661 593.72C624.341 593.72 627.061 594.94 629.901 595.36C632.741 595.78 635.701 595.58 641.381 595.58C647.061 595.58 650.011 595.74 652.851 595.31C655.691 594.88 658.421 593.22 664.101 593.22C667.93 593.214 671.751 593.549 675.521 594.22C678.361 594.64 681.141 596.22 686.831 596.22C692.521 596.22 695.381 595.22 698.221 594.83C701.061 594.44 703.871 595.13 709.551 595.13C713.298 595.012 717.048 595.175 720.771 595.62C724.577 596.222 728.427 596.503 732.281 596.46C737.961 596.46 740.771 594.85 743.611 594.46C747.38 593.897 751.19 593.649 755.001 593.72C760.691 593.72 763.651 593.4 766.491 593.83C769.331 594.26 772.051 595.73 777.731 595.73C781.543 595.746 785.35 595.412 789.101 594.73C791.941 594.31 794.781 595.19 800.461 595.19" stroke="#3F4249" stroke-width="1.2" stroke-miterlimit="10" stroke-linecap="round"/>
<path d="M461.052 593.54C466.352 593.54 466.352 595.27 471.652 595.27C476.952 595.27 476.952 593.66 482.252 593.66C487.552 593.66 487.552 595.46 492.852 595.46C498.152 595.46 498.152 593.75 503.452 593.75" stroke="#3F4249" stroke-width="1.2" stroke-miterlimit="10" stroke-linecap="round"/>
<path d="M706.724 624.491C713.454 624.491 713.454 625.911 720.174 625.911C726.894 625.911 726.894 624.131 733.624 624.131C740.354 624.131 740.344 625.391 747.074 625.391C753.804 625.391 753.794 623.911 760.524 623.911C767.254 623.911 767.244 625.741 773.974 625.741C780.704 625.741 780.704 624.161 787.434 624.161C794.164 624.161 794.164 625.681 800.894 625.681" stroke="#3F4249" stroke-width="1.2" stroke-miterlimit="10" stroke-linecap="round"/>
<path d="M578.829 623.719C586.609 623.719 586.609 625.989 594.389 625.989C602.169 625.989 602.169 624.689 609.949 624.689C617.729 624.689 617.719 625.359 625.499 625.359C633.279 625.359 633.279 624.509 641.059 624.509C648.839 624.509 648.839 625.989 656.609 625.989C664.379 625.989 664.399 624.199 672.179 624.199C679.959 624.199 679.959 626.359 687.739 626.359" stroke="#3F4249" stroke-width="1.2" stroke-miterlimit="10" stroke-linecap="round"/>
<path d="M461.474 624.45C467.604 624.45 467.604 625.8 473.724 625.8C479.844 625.8 479.844 624.04 485.974 624.04C492.104 624.04 492.094 625.96 498.214 625.96C504.334 625.96 504.344 624.09 510.464 624.09C516.584 624.09 516.594 625.66 522.714 625.66C528.834 625.66 528.844 624.33 534.974 624.33C541.104 624.33 541.094 626.12 547.224 626.12" stroke="#3F4249" stroke-width="1.2" stroke-miterlimit="10" stroke-linecap="round"/>
<path d="M461.904 655.271C468.974 655.271 472.354 656.211 475.904 656.631C480.636 657.31 485.412 657.644 490.194 657.631C494.978 657.635 499.757 657.301 504.494 656.631C508.024 656.201 511.404 653.491 518.494 653.491C525.584 653.491 529.144 654.491 532.684 654.941C536.224 655.391 539.684 654.701 546.774 654.701C553.864 654.701 557.304 655.091 560.844 654.701C564.384 654.311 567.984 655.151 575.054 655.151C579.757 655.101 584.458 655.375 589.124 655.971C592.654 656.391 596.264 655.231 603.334 655.231C608.02 655.233 612.7 654.882 617.334 654.181C622.072 653.623 626.843 653.375 631.614 653.441C638.684 653.441 642.254 654.601 645.794 655.021C649.334 655.441 652.794 657.441 659.894 657.441C666.994 657.441 670.314 654.161 673.894 653.731C677.474 653.301 681.154 654.131 688.234 654.131C695.314 654.131 698.694 656.131 702.234 656.531C705.774 656.931 709.444 656.441 716.514 656.441C723.584 656.441 727.224 656.581 730.754 656.151C735.408 655.732 740.082 655.585 744.754 655.711C751.824 655.711 755.294 655.511 758.824 655.941C762.354 656.371 765.974 657.681 773.044 657.681C780.114 657.681 783.574 655.091 787.104 654.681C790.634 654.271 794.264 652.991 801.334 652.991" stroke="#3F4249" stroke-width="1.2" stroke-miterlimit="10" stroke-linecap="round"/>
<path d="M462.74 686.189C469.81 686.189 473.35 685.379 476.88 685.809C480.41 686.239 483.95 685.679 491.02 685.679C498.09 685.679 501.58 685.859 505.12 685.429C508.66 684.999 512.23 685.179 519.3 685.179C526.37 685.179 530.06 684.179 533.59 684.599C537.12 685.019 540.52 686.179 547.59 686.179C554.66 686.179 558.08 685.309 561.59 684.879C565.1 684.449 568.77 685.589 575.84 685.589C582.91 685.589 586.44 685.389 589.98 685.809C593.52 686.229 597.05 687.409 604.12 687.409C608.875 687.423 613.625 687.089 618.33 686.409C621.86 685.979 625.33 683.469 632.4 683.469C639.47 683.469 642.91 686.219 646.4 686.639C651.116 687.281 655.872 687.585 660.63 687.549C667.71 687.549 671.08 684.899 674.63 684.479C678.18 684.059 681.97 686.189 688.97 686.189C695.97 686.189 699.62 685.019 703.15 685.439C706.68 685.859 710.15 687.699 717.26 687.699C724.37 687.699 727.88 686.319 731.42 685.889C736.103 685.289 740.82 685.011 745.54 685.059C750.26 685.081 754.971 685.472 759.63 686.229C763.17 686.649 766.76 687.699 773.83 687.699C780.9 687.699 784.47 686.399 788 685.979C792.673 685.26 797.393 684.896 802.12 684.889" stroke="#3F4249" stroke-width="1.2" stroke-miterlimit="10" stroke-linecap="round"/>
<path d="M463.161 715.47C467.831 715.47 467.831 717.18 472.501 717.18C477.171 717.18 477.171 715.43 481.851 715.43C486.531 715.43 486.521 717.3 491.191 717.3C495.861 717.3 495.861 715.53 500.531 715.53C505.201 715.53 505.201 717.34 509.871 717.34C514.541 717.34 514.541 714.83 519.211 714.83C523.881 714.83 523.881 716.48 528.561 716.48C533.241 716.48 533.231 715.23 537.901 715.23C542.571 715.23 542.571 716.67 547.241 716.67C551.911 716.67 551.921 714.77 556.591 714.77C561.261 714.77 561.261 716.56 565.941 716.56C570.621 716.56 570.611 715.64 575.291 715.64" stroke="#3F4249" stroke-width="1.2" stroke-miterlimit="10" stroke-linecap="round"/>
<path d="M562.486 358.31C561.035 358.31 559.855 357.835 558.945 356.885C558.034 355.929 557.579 354.653 557.579 353.057V352.72C557.579 351.659 557.781 350.712 558.183 349.881C558.592 349.044 559.159 348.391 559.884 347.923C560.616 347.448 561.408 347.21 562.259 347.21C563.65 347.21 564.732 347.669 565.503 348.585C566.275 349.502 566.661 350.814 566.661 352.523V353.284H559.41C559.436 354.34 559.743 355.194 560.33 355.846C560.923 356.493 561.675 356.816 562.585 356.816C563.231 356.816 563.779 356.684 564.227 356.42C564.676 356.156 565.068 355.807 565.404 355.372L566.522 356.242C565.625 357.621 564.28 358.31 562.486 358.31ZM562.259 348.714C561.52 348.714 560.9 348.984 560.399 349.525C559.898 350.059 559.588 350.811 559.469 351.781H564.831V351.642C564.778 350.712 564.527 349.993 564.079 349.486C563.63 348.971 563.024 348.714 562.259 348.714ZM568.728 360.981L567.69 360.268C568.31 359.405 568.633 358.514 568.659 357.597V355.945H570.45V357.38C570.45 358.046 570.285 358.712 569.955 359.378C569.632 360.044 569.223 360.578 568.728 360.981Z" fill="black"/>
<path d="M620.916 704.798L625.624 716.551L630.333 704.798H632.797V719.202H630.897V713.593L631.075 707.538L626.347 719.202H624.892L620.174 707.568L620.362 713.593V719.202H618.462V704.798H620.916ZM637.852 719.202H636.021V708.498H637.852V719.202ZM635.873 705.659C635.873 705.362 635.962 705.111 636.14 704.907C636.325 704.702 636.595 704.6 636.951 704.6C637.308 704.6 637.578 704.702 637.763 704.907C637.947 705.111 638.04 705.362 638.04 705.659C638.04 705.956 637.947 706.203 637.763 706.401C637.578 706.599 637.308 706.697 636.951 706.697C636.595 706.697 636.325 706.599 636.14 706.401C635.962 706.203 635.873 705.956 635.873 705.659ZM644.292 716.521L646.785 708.498H648.743L644.44 720.854C643.774 722.634 642.715 723.525 641.265 723.525L640.918 723.495L640.236 723.366V721.883L640.73 721.922C641.35 721.922 641.832 721.797 642.175 721.546C642.524 721.296 642.811 720.837 643.035 720.171L643.441 719.083L639.622 708.498H641.621L644.292 716.521ZM656.835 719.202C656.73 718.991 656.644 718.615 656.578 718.074C655.727 718.958 654.712 719.4 653.531 719.4C652.476 719.4 651.609 719.103 650.93 718.509C650.257 717.909 649.921 717.151 649.921 716.234C649.921 715.119 650.343 714.255 651.187 713.642C652.038 713.022 653.231 712.712 654.768 712.712H656.549V711.871C656.549 711.232 656.357 710.724 655.975 710.348C655.592 709.965 655.028 709.774 654.283 709.774C653.63 709.774 653.083 709.939 652.641 710.269C652.199 710.598 651.978 710.997 651.978 711.466H650.138C650.138 710.932 650.326 710.417 650.702 709.922C651.085 709.421 651.599 709.026 652.245 708.735C652.898 708.445 653.614 708.3 654.392 708.3C655.625 708.3 656.591 708.61 657.291 709.23C657.99 709.843 658.352 710.691 658.379 711.772V716.699C658.379 717.682 658.504 718.463 658.755 719.043V719.202H656.835ZM653.798 717.807C654.372 717.807 654.916 717.658 655.431 717.362C655.945 717.065 656.318 716.679 656.549 716.204V714.008H655.114C652.872 714.008 651.751 714.664 651.751 715.977C651.751 716.551 651.942 716.999 652.324 717.322C652.707 717.645 653.198 717.807 653.798 717.807Z" fill="black"/>
<path d="M353.603 966.35L633.913 765.141L913.38 966.35H353.603Z" fill="#448CC7"/>
<path opacity="0.5" d="M353.95 965.68L633.78 764.061L912.97 966.23L353.95 965.68Z" fill="white"/>
<path d="M911.38 627.54L650.54 806.76L911.38 963.58V627.54Z" fill="#448CC7"/>
<path d="M911.38 963.58V627.54L650.54 806.76" fill="#448CC7"/>
<path opacity="0.6" d="M911.38 963.58V627.54L650.54 806.76" fill="white"/>
<path d="M352.032 627.54L612.872 806.76L352.032 963.58V627.54Z" fill="#448CC7"/>
<path d="M352.032 963.58V627.54L612.872 806.76" fill="#448CC7"/>
<path opacity="0.6" d="M352.032 963.58V627.54L612.872 806.76" fill="white"/>
<path d="M8.96997 966.23H1292.97" stroke="#B2B6BB" stroke-width="2.01" stroke-miterlimit="10"/>
<path d="M631.492 864.169C660.078 864.169 683.252 840.995 683.252 812.409C683.252 783.823 660.078 760.649 631.492 760.649C602.906 760.649 579.732 783.823 579.732 812.409C579.732 840.995 602.906 864.169 631.492 864.169Z" fill="#448CC7"/>
<path d="M682.752 812.409C682.752 840.719 659.802 863.669 631.492 863.669C603.182 863.669 580.232 840.719 580.232 812.409C580.232 784.099 603.182 761.149 631.492 761.149C659.802 761.149 682.752 784.099 682.752 812.409Z" stroke="black"/>
<path d="M685.968 812.41C685.968 817.99 679.768 822.53 678.128 827.56C676.438 832.79 678.728 840.09 675.568 844.43C672.408 848.77 664.698 848.89 660.308 852.08C655.918 855.27 653.548 862.54 648.308 864.24C643.308 865.87 637.048 861.44 631.468 861.44C625.888 861.44 619.658 865.87 614.618 864.24C609.398 862.54 606.988 855.24 602.618 852.08C598.248 848.92 590.558 848.82 587.358 844.43C584.158 840.04 586.488 832.79 584.798 827.56C583.158 822.56 576.958 817.99 576.958 812.41C576.958 806.83 583.158 802.29 584.798 797.25C586.488 792.03 584.198 784.72 587.358 780.38C590.518 776.04 598.228 775.92 602.618 772.73C607.008 769.54 609.378 762.27 614.618 760.57C619.618 758.94 625.868 763.37 631.458 763.37C637.048 763.37 643.258 758.94 648.298 760.57C653.518 762.27 655.928 769.57 660.298 772.73C664.668 775.89 672.358 775.99 675.558 780.38C678.758 784.77 676.428 792.03 678.118 797.25C679.768 802.29 685.968 806.82 685.968 812.41Z" fill="#448CC7"/>
<path d="M631.49 857.019C656.128 857.019 676.1 837.047 676.1 812.409C676.1 787.772 656.128 767.799 631.49 767.799C606.853 767.799 586.88 787.772 586.88 812.409C586.88 837.047 606.853 857.019 631.49 857.019Z" stroke="white" stroke-width="2.72" stroke-miterlimit="10"/>
<path d="M128.431 236.639V353.739H277.531V236.639H128.431Z" fill="white"/>
<path d="M143.431 252.239V338.189H262.531V252.289L143.431 252.239Z" fill="#DDDDDD"/>
<path d="M280.87 236.659H277.47V353.659H280.87V236.659Z" fill="#DADDDF"/>
<path d="M205.172 299.56C208.85 299.56 212.446 298.469 215.505 296.425C218.564 294.381 220.948 291.477 222.356 288.078C223.764 284.679 224.132 280.939 223.414 277.331C222.696 273.723 220.925 270.409 218.324 267.808C215.722 265.206 212.408 263.435 208.8 262.717C205.192 262 201.452 262.368 198.054 263.776C194.655 265.184 191.75 267.568 189.706 270.626C187.662 273.685 186.572 277.281 186.572 280.96C186.572 285.893 188.531 290.624 192.019 294.112C195.508 297.6 200.239 299.56 205.172 299.56Z" fill="#448CC7"/>
<path opacity="0.2" d="M156.271 330.559L186.571 311.189L156.571 291.889L156.271 330.559Z" fill="black"/>
<path opacity="0.2" d="M209.259 285.258V325.458H249.459V285.258H209.259Z" fill="black"/>
<path d="M303.812 311.831C305.478 309.334 306.27 306.355 306.062 303.361C305.702 296.871 301.232 291.821 295.952 291.761C293.372 277.761 279.952 267.481 264.432 268.351C247.682 269.291 234.822 282.811 235.712 298.551C235.919 302.282 236.899 305.929 238.592 309.261C233.295 311.739 228.902 315.808 226.025 320.9C223.148 325.992 221.931 331.854 222.542 337.671C223.207 343.256 225.508 348.519 229.157 352.8C232.805 357.08 237.638 360.186 243.047 361.727C248.456 363.269 254.2 363.176 259.557 361.461C264.913 359.747 269.643 356.486 273.152 352.091C276.487 356.515 281.121 359.787 286.406 361.45C291.692 363.112 297.364 363.082 302.632 361.364C307.899 359.646 312.498 356.325 315.786 351.865C319.075 347.406 320.888 342.031 320.972 336.491C320.985 331.117 319.345 325.869 316.276 321.458C313.207 317.047 308.855 313.686 303.812 311.831Z" fill="#21252B"/>
<path d="M255.91 332.772C255.91 332.772 260.13 361.472 254.22 364.012L246.22 366.122L252.13 386.382L275.77 399.052L299.41 388.912L301.52 364.012C298.734 363.57 296.114 362.404 293.92 360.632C290.54 356.412 290.54 342.052 290.92 328.122L255.91 332.772Z" fill="#FC9D9D"/>
<path opacity="0.15" d="M273.21 342.481L274.72 346.251C272.13 346.121 267.89 345.581 265.3 343.511C265.214 343.441 265.115 343.389 265.009 343.358C264.903 343.326 264.791 343.316 264.681 343.328C264.571 343.339 264.465 343.372 264.367 343.425C264.27 343.478 264.184 343.55 264.115 343.636C264.045 343.722 263.993 343.82 263.962 343.927C263.93 344.033 263.92 344.144 263.932 344.254C263.943 344.364 263.976 344.471 264.029 344.568C264.082 344.665 264.154 344.751 264.24 344.821C267.82 347.691 273.77 347.981 276.1 347.981C276.65 347.981 276.99 347.981 277.1 347.981C277.208 347.977 277.315 347.951 277.413 347.905C277.511 347.858 277.598 347.792 277.67 347.711C285.84 350.311 290.24 347.581 291.19 347.711L290.56 339.501L273.21 342.481Z" fill="black"/>
<path d="M275.752 346.701C270.153 346.701 264.784 344.476 260.825 340.518C256.866 336.559 254.642 331.189 254.642 325.591V286.751H291.792L296.502 322.871C296.936 325.84 296.723 328.868 295.877 331.748C295.031 334.627 293.573 337.29 291.602 339.553C289.632 341.817 287.195 343.627 284.459 344.861C281.723 346.094 278.753 346.722 275.752 346.701Z" fill="#FC9D9D"/>
<path d="M296.859 302.791C296.859 302.791 273.639 307.441 263.499 295.621C263.499 295.621 265.619 302.791 256.329 308.701C256.329 308.701 258.619 314.281 256.859 319.071C256.781 319.236 256.659 319.376 256.507 319.477C256.355 319.577 256.178 319.634 255.995 319.641C255.813 319.649 255.632 319.606 255.472 319.518C255.313 319.429 255.18 319.299 255.089 319.141L250.419 308.701V285.061H292.629L296.859 302.791Z" fill="#21252B"/>
<path d="M360.4 860.641L364.64 906.22C364.92 911.56 366.3 914.87 367.86 917.08L384.43 950.78L379.83 957.13L361.83 948.13L345.83 919.13C345.83 914.13 345.37 911.22 344.45 904.59L336.47 855.391L360.4 860.641Z" fill="#FC9D9D"/>
<path opacity="0.15" d="M365.362 923.31C363.552 920.78 361.282 914.68 360.732 911.89L355.282 895.89C355.187 895.33 354.914 894.82 354.505 894.43C354.097 894.04 353.573 893.78 353.012 893.71L342.212 892.32L342.032 890.05H363.092L364.912 908.88C365.272 912.1 367.263 916.34 369.253 919.13L384.443 951.07L381.622 955.51L365.362 923.31Z" fill="black"/>
<path d="M393.971 956.58L384.481 950.87C381.113 951.41 377.662 951.07 374.468 949.88C371.273 948.68 368.445 946.67 366.261 944.05L345.671 919.19C341.999 927.12 340.69 935.95 341.901 944.6L344.851 965.22H347.241L347.881 944.04C347.895 943.71 348.011 943.38 348.213 943.11C348.415 942.84 348.694 942.64 349.013 942.53C349.332 942.42 349.677 942.41 350.001 942.51C350.326 942.6 350.615 942.78 350.831 943.04L363.351 958.33C365.123 960.48 367.345 962.21 369.859 963.4C372.373 964.59 375.118 965.22 377.901 965.23H397.421C397.78 965.24 398.136 965.16 398.454 964.99C398.772 964.83 399.041 964.58 399.235 964.28C399.43 963.98 399.542 963.63 399.563 963.27C399.583 962.91 399.51 962.55 399.351 962.23C398.365 959.72 396.434 957.69 393.971 956.58Z" fill="#448CC7"/>
<path d="M277.352 915.19C278.279 918.04 278.646 921.04 278.432 924.03L278.522 948.93C278.408 953.28 277.156 957.52 274.892 961.23L274.402 962.1C273.752 963.19 272.831 964.09 271.728 964.71C270.625 965.33 269.379 965.66 268.112 965.65H260.842C259.233 965.67 257.664 965.15 256.383 964.17C255.103 963.2 254.184 961.83 253.772 960.27C252.808 956.6 252.675 952.75 253.382 949.02L259.572 922.3C259.978 919.8 260.736 917.38 261.822 915.09H277.352V915.19Z" fill="#448CC7"/>
<path d="M278.433 903.92C277.328 912.88 276.867 921.9 277.053 930.92L277.253 941.69C277.14 943.98 276.147 946.14 274.481 947.71C272.816 949.29 270.606 950.16 268.313 950.15H266.743C265.473 950.17 264.214 949.92 263.051 949.41C261.888 948.9 260.85 948.14 260.009 947.19C259.167 946.24 258.542 945.12 258.177 943.9C257.811 942.69 257.715 941.41 257.893 940.15L260.453 927.37C261.75 920.89 262.211 914.26 261.823 907.66L259.373 864.19L282.263 864.57L278.433 903.92Z" fill="#FC9D9D"/>
<path opacity="0.15" d="M280.287 890.66C280.287 890.66 277.537 915.52 277.337 918.87V918.95C277.047 923.67 276.847 928.3 276.947 933.01L277.147 942.61C276.947 946.73 273.217 949.99 268.597 950.16C272.827 947.33 272.427 942.7 272.527 939.27L273.217 897.18C273.182 896.47 272.896 895.8 272.411 895.28C271.926 894.76 271.272 894.43 270.567 894.35L260.347 892.72L260.247 890.72L280.287 890.66Z" fill="black"/>
<path d="M339.91 890.43H365.24C365.24 890.43 361.69 600.431 349.12 556.711L317.12 527.381H236.91C236.91 527.381 200.6 522.311 258.86 890.38H282.5L285.16 583.951C285.138 583.171 285.272 582.395 285.554 581.668C285.837 580.941 286.263 580.278 286.807 579.718C287.35 579.159 288.001 578.714 288.719 578.411C289.438 578.107 290.21 577.951 290.99 577.951C292.393 577.951 293.748 578.457 294.808 579.375C295.868 580.294 296.561 581.563 296.76 582.951L339.91 890.43Z" fill="#3F4249"/>
<path d="M255.568 332.73C255.568 332.73 243.798 332.19 242.968 321.34C242.138 310.49 255.408 310.27 255.918 321.14L256.778 332.95L255.568 332.73Z" fill="#FC9D9D"/>
<path d="M249.971 364.85C252.692 368.815 256.35 372.046 260.621 374.257C264.892 376.467 269.643 377.588 274.451 377.52C274.451 377.52 294.711 377.52 300.621 364.01L304.421 364.43V529.07H263.081L238.181 369.07L249.971 364.85Z" fill="white"/>
<path opacity="0.15" d="M246.869 316.751C247.271 316.432 247.734 316.198 248.229 316.062C248.723 315.926 249.241 315.892 249.749 315.961C250.246 316.083 250.71 316.311 251.109 316.631C251.508 316.95 251.832 317.353 252.059 317.811C252.737 318.913 253.122 320.169 253.179 321.461V322.521C253.179 323.301 251.959 323.521 251.919 322.671V321.601C251.86 320.522 251.552 319.471 251.019 318.531C250.872 318.221 250.662 317.945 250.402 317.721C250.142 317.497 249.838 317.33 249.509 317.231C249.168 317.193 248.823 317.223 248.493 317.319C248.164 317.415 247.856 317.576 247.589 317.791C247.522 317.84 247.445 317.875 247.363 317.893C247.282 317.912 247.197 317.913 247.115 317.899C247.033 317.884 246.955 317.852 246.885 317.806C246.815 317.76 246.755 317.701 246.709 317.631C246.499 317.251 246.579 316.861 246.869 316.751Z" fill="black"/>
<path d="M325.969 524.19H243.169V531.71H325.969V524.19Z" fill="black"/>
<path opacity="0.15" d="M254.151 567.391C254.151 567.391 273.211 570.391 274.901 540.891C274.901 540.891 283.081 469.711 251.681 380.051L254.151 567.391Z" fill="black"/>
<path opacity="0.2" d="M290.971 578.042H290.191C283.191 578.042 274.961 583.752 274.991 590.772L272.111 890.43H282.531L285.191 584.002C285.175 583.23 285.312 582.462 285.595 581.744C285.877 581.025 286.3 580.37 286.837 579.816C287.375 579.261 288.017 578.819 288.726 578.515C289.436 578.21 290.199 578.049 290.971 578.042Z" fill="black"/>
<path opacity="0.2" d="M340.759 563.691C340.759 563.691 344.969 589.841 357.169 890.43H365.239C365.239 890.43 362.449 621.731 350.519 562.641L340.759 563.691Z" fill="black"/>
<path d="M302.338 364.01L334.158 368.54C338.346 369.231 342.356 370.741 345.96 372.984C349.563 375.227 352.689 378.158 355.158 381.61C358.258 385.95 361.298 390.34 364.558 394.56L367.998 399V446L339.938 420.46C339.938 420.46 319.138 499.2 351.938 562.34C352.004 562.485 352.035 562.643 352.027 562.802C352.02 562.961 351.974 563.116 351.895 563.253C351.816 563.391 351.705 563.508 351.572 563.595C351.438 563.681 351.286 563.734 351.128 563.75L328.528 564.75C323.489 564.975 318.525 563.476 314.453 560.5C310.38 557.524 307.444 553.249 306.128 548.38C298.838 521.59 285.048 464.54 302.338 364.01Z" fill="#448CC7"/>
<path d="M247.459 365.702L218.759 375.982C218.759 375.982 242.559 479.892 222.859 570.762C222.834 570.913 222.844 571.068 222.888 571.214C222.932 571.361 223.009 571.495 223.114 571.608C223.218 571.72 223.347 571.806 223.49 571.861C223.633 571.915 223.787 571.936 223.939 571.922L252.589 567.682C257.292 566.985 261.634 564.755 264.94 561.337C268.245 557.92 270.33 553.506 270.869 548.782C274.059 520.722 275.369 459.742 247.459 365.702Z" fill="#448CC7"/>
<path opacity="0.15" d="M269.738 471.021H266.968C252.968 440.021 244.898 423.291 241.208 415.641C241.148 415.521 240.438 415.641 240.488 415.741L262.658 477.021L270.228 476.741L269.738 471.021Z" fill="black"/>
<path opacity="0.15" d="M273.001 471.042L273.511 476.612L322.971 475.002V473.322L273.001 471.042Z" fill="black"/>
<path opacity="0.15" d="M333.971 413.711C333.971 413.711 309.811 479.301 340.281 564.191L349.651 563.781L351.431 563.611C351.659 563.492 351.832 563.289 351.914 563.045C351.995 562.801 351.98 562.534 351.871 562.301C319.111 499.191 339.971 420.001 339.971 420.001L333.971 413.711Z" fill="black"/>
<path d="M274.658 317.651C275.053 317.651 275.44 317.534 275.769 317.314C276.097 317.094 276.354 316.782 276.505 316.416C276.657 316.051 276.697 315.649 276.62 315.261C276.543 314.873 276.352 314.516 276.073 314.237C275.793 313.957 275.436 313.767 275.048 313.689C274.66 313.612 274.259 313.652 273.893 313.803C273.528 313.955 273.215 314.211 272.996 314.54C272.776 314.869 272.658 315.255 272.658 315.651C272.658 316.181 272.868 316.69 273.243 317.065C273.618 317.44 274.128 317.651 274.658 317.651Z" fill="#21252B"/>
<path d="M275.499 315.632C275.6 315.616 275.693 315.565 275.76 315.487C275.827 315.409 275.863 315.31 275.863 315.207C275.863 315.104 275.827 315.005 275.76 314.927C275.693 314.849 275.6 314.797 275.499 314.782C275.397 314.797 275.305 314.849 275.238 314.927C275.171 315.005 275.134 315.104 275.134 315.207C275.134 315.31 275.171 315.409 275.238 315.487C275.305 315.565 275.397 315.616 275.499 315.632Z" fill="white"/>
<path d="M290.45 317.651C290.846 317.651 291.233 317.534 291.562 317.314C291.89 317.094 292.147 316.782 292.298 316.416C292.45 316.051 292.489 315.649 292.412 315.261C292.335 314.873 292.144 314.516 291.865 314.237C291.585 313.957 291.229 313.767 290.841 313.689C290.453 313.612 290.051 313.652 289.685 313.803C289.32 313.955 289.007 314.211 288.788 314.54C288.568 314.869 288.45 315.255 288.45 315.651C288.45 316.181 288.661 316.69 289.036 317.065C289.411 317.44 289.92 317.651 290.45 317.651Z" fill="#21252B"/>
<path d="M291.38 315.542C291.463 315.54 291.543 315.513 291.611 315.466C291.679 315.419 291.731 315.352 291.761 315.276C291.792 315.199 291.798 315.115 291.781 315.034C291.764 314.953 291.723 314.879 291.664 314.821C291.605 314.764 291.53 314.724 291.449 314.709C291.368 314.694 291.284 314.703 291.208 314.735C291.131 314.767 291.066 314.82 291.021 314.889C290.975 314.958 290.95 315.039 290.95 315.122C290.95 315.178 290.962 315.233 290.983 315.285C291.005 315.336 291.037 315.383 291.077 315.422C291.117 315.461 291.165 315.492 291.217 315.513C291.269 315.533 291.324 315.543 291.38 315.542Z" fill="white"/>
<g opacity="0.3">
<path opacity="0.3" d="M281.16 326.601H279.39C279.312 326.603 279.233 326.59 279.16 326.561C279.087 326.533 279.02 326.49 278.964 326.435C278.908 326.379 278.863 326.313 278.833 326.24C278.804 326.168 278.789 326.089 278.79 326.011C278.79 325.932 278.806 325.855 278.836 325.783C278.867 325.71 278.911 325.645 278.967 325.59C279.023 325.535 279.089 325.492 279.162 325.463C279.234 325.434 279.312 325.419 279.39 325.421H281.16C281.336 325.436 281.513 325.415 281.68 325.359C281.847 325.302 282 325.212 282.13 325.093C282.26 324.974 282.364 324.829 282.435 324.668C282.506 324.506 282.543 324.332 282.543 324.156C282.543 323.979 282.506 323.805 282.435 323.644C282.364 323.482 282.26 323.338 282.13 323.219C282 323.1 281.847 323.009 281.68 322.953C281.513 322.896 281.336 322.875 281.16 322.891C281.004 322.891 280.854 322.828 280.743 322.718C280.633 322.607 280.57 322.457 280.57 322.301C280.57 322.144 280.633 321.994 280.743 321.883C280.854 321.773 281.004 321.711 281.16 321.711C281.495 321.689 281.83 321.737 282.145 321.85C282.46 321.963 282.749 322.14 282.993 322.369C283.237 322.598 283.432 322.875 283.565 323.182C283.698 323.489 283.767 323.821 283.767 324.156C283.767 324.491 283.698 324.822 283.565 325.129C283.432 325.437 283.237 325.713 282.993 325.942C282.749 326.172 282.46 326.348 282.145 326.461C281.83 326.575 281.495 326.622 281.16 326.601Z" fill="black"/>
</g>
<path d="M253.41 328.25C253.418 328.074 253.391 327.897 253.331 327.732C253.27 327.566 253.177 327.414 253.057 327.285C252.937 327.155 252.792 327.051 252.631 326.978C252.471 326.905 252.297 326.865 252.12 326.86C251.763 326.86 251.42 327 251.166 327.251C250.911 327.502 250.766 327.843 250.76 328.2C250.752 328.376 250.78 328.552 250.84 328.718C250.901 328.884 250.994 329.036 251.114 329.165C251.234 329.295 251.379 329.399 251.54 329.472C251.7 329.545 251.874 329.585 252.05 329.59C252.408 329.59 252.751 329.449 253.005 329.199C253.26 328.948 253.405 328.607 253.41 328.25Z" fill="#448CC7"/>
<path opacity="0.15" d="M252.529 329.391C252.343 329.392 252.159 329.353 251.988 329.279C251.818 329.204 251.665 329.094 251.54 328.956C251.414 328.819 251.319 328.656 251.261 328.48C251.202 328.303 251.181 328.116 251.199 327.931C251.222 327.662 251.297 327.401 251.419 327.161C251.244 327.289 251.102 327.458 251.006 327.653C250.91 327.848 250.863 328.063 250.869 328.281C250.863 328.459 250.892 328.636 250.956 328.802C251.02 328.968 251.117 329.12 251.242 329.247C251.366 329.374 251.515 329.475 251.68 329.542C251.845 329.61 252.021 329.644 252.199 329.641C252.478 329.653 252.751 329.565 252.969 329.391H252.529Z" fill="black"/>
<path d="M285.133 331.92C285.193 331.922 285.251 331.939 285.303 331.968C285.355 331.998 285.399 332.039 285.431 332.089C285.464 332.139 285.483 332.197 285.489 332.256C285.494 332.315 285.486 332.375 285.463 332.43C284.99 333.416 284.248 334.249 283.323 334.831C282.398 335.414 281.326 335.723 280.233 335.723C279.139 335.723 278.068 335.414 277.143 334.831C276.217 334.249 275.476 333.416 275.003 332.43C274.913 332.18 275.003 331.92 275.333 331.92H285.133Z" fill="white"/>
<path d="M289.972 308.65C288.744 308.757 287.555 309.136 286.492 309.759C285.428 310.381 284.516 311.232 283.822 312.25C282.17 311.68 280.372 311.697 278.732 312.3C277.942 310.996 276.801 309.94 275.439 309.254C274.077 308.568 272.55 308.279 271.032 308.42C269.409 308.55 267.861 309.159 266.584 310.168C265.307 311.178 264.358 312.544 263.857 314.093C263.357 315.642 263.327 317.305 263.771 318.871C264.216 320.437 265.115 321.837 266.354 322.892C267.594 323.947 269.119 324.611 270.736 324.799C272.353 324.987 273.99 324.692 275.439 323.95C276.888 323.208 278.085 322.053 278.877 320.63C279.67 319.208 280.023 317.583 279.892 315.96C279.811 315.051 279.588 314.16 279.232 313.32C280.549 312.853 281.983 312.835 283.312 313.27C282.743 314.404 282.445 315.653 282.44 316.921C282.435 318.189 282.724 319.44 283.284 320.578C283.844 321.715 284.66 322.708 285.667 323.477C286.675 324.246 287.847 324.772 289.092 325.013C290.336 325.253 291.62 325.202 292.842 324.864C294.064 324.525 295.19 323.908 296.134 323.062C297.077 322.215 297.812 321.161 298.28 319.983C298.748 318.804 298.937 317.534 298.832 316.27C298.762 315.184 298.477 314.122 297.991 313.148C297.506 312.173 296.831 311.305 296.005 310.596C295.18 309.886 294.221 309.348 293.185 309.014C292.149 308.68 291.056 308.556 289.972 308.65ZM272.352 323.71C270.932 323.824 269.511 323.515 268.268 322.821C267.024 322.128 266.015 321.081 265.366 319.814C264.717 318.547 264.459 317.115 264.623 315.701C264.788 314.287 265.368 312.953 266.291 311.869C267.213 310.784 268.436 309.998 269.806 309.608C271.175 309.219 272.629 309.244 273.984 309.681C275.339 310.118 276.535 310.946 277.419 312.062C278.303 313.178 278.836 314.531 278.952 315.95C279.104 317.848 278.5 319.729 277.271 321.182C276.042 322.636 274.288 323.545 272.392 323.71H272.352ZM291.292 323.95C289.874 324.048 288.46 323.725 287.226 323.021C285.992 322.317 284.994 321.263 284.358 319.993C283.721 318.723 283.475 317.293 283.649 315.883C283.824 314.474 284.411 313.147 285.338 312.07C286.265 310.994 287.489 310.215 288.858 309.833C290.226 309.451 291.676 309.482 293.027 309.922C294.378 310.363 295.568 311.193 296.448 312.308C297.327 313.424 297.858 314.774 297.972 316.19C298.045 317.136 297.932 318.087 297.638 318.989C297.344 319.89 296.876 320.725 296.259 321.446C295.643 322.167 294.89 322.759 294.045 323.188C293.199 323.618 292.277 323.877 291.332 323.95H291.292Z" fill="white"/>
<path d="M355.49 471.91L368.02 462.02L367.88 466.02L366.88 470.45L355.49 471.91Z" fill="#FC9D9D"/>
<path opacity="0.1" d="M355.49 471.91L368.02 462.02L367.88 466.02L366.88 470.45L355.49 471.91Z" fill="black"/>
<path d="M317.032 497.041L317.473 474.751L346.302 474.861C347.419 474.822 348.515 474.538 349.512 474.031L350.902 473.331C351.252 473.251 351.589 473.119 351.902 472.941L367.432 465.831C369.074 465.009 370.841 464.465 372.662 464.221L393.852 461.451C394.274 461.392 394.703 461.488 395.06 461.722C395.417 461.955 395.677 462.31 395.792 462.721C395.858 463.184 395.746 463.655 395.479 464.04C395.212 464.424 394.809 464.692 394.352 464.791L374.883 469.191L395.602 469.471C395.84 469.46 396.078 469.5 396.299 469.589C396.521 469.678 396.721 469.813 396.886 469.985C397.05 470.158 397.176 470.364 397.255 470.589C397.334 470.814 397.363 471.054 397.342 471.291C397.306 471.762 397.111 472.206 396.789 472.551C396.468 472.897 396.039 473.122 395.573 473.191L375.693 475.291L393.643 473.361C393.869 473.326 394.101 473.338 394.323 473.395C394.545 473.452 394.753 473.554 394.935 473.694C395.116 473.835 395.266 474.011 395.378 474.211C395.489 474.412 395.559 474.633 395.583 474.861C395.624 475.341 395.491 475.819 395.208 476.209C394.925 476.598 394.51 476.872 394.042 476.981L376.653 480.751L391.592 477.531C391.773 477.481 391.963 477.468 392.149 477.495C392.336 477.521 392.515 477.585 392.675 477.684C392.836 477.782 392.975 477.913 393.083 478.067C393.191 478.222 393.264 478.397 393.302 478.581C393.349 478.772 393.359 478.97 393.328 479.164C393.298 479.358 393.229 479.544 393.125 479.71C393.022 479.877 392.886 480.022 392.726 480.135C392.566 480.249 392.384 480.329 392.193 480.371L372.693 484.371C363.003 487.551 353.043 488.581 348.853 489.751C346.933 490.291 345.022 490.881 343.082 491.321L317.032 497.041Z" fill="#FC9D9D"/>
<path opacity="0.15" d="M393.691 473.001L376.501 473.231" stroke="black" stroke-width="1.09" stroke-miterlimit="10" stroke-linecap="round"/>
<path opacity="0.15" d="M375.868 479.19L391.418 477.19" stroke="black" stroke-width="1.09" stroke-miterlimit="10" stroke-linecap="round"/>
<path opacity="0.1" d="M392.971 479.741C392.949 479.627 392.916 479.517 392.871 479.411L377.161 481.611L350.331 486.001L317.171 493.521L317.111 497.041L343.691 491.361C345.691 490.941 347.621 490.361 349.581 489.801C353.851 488.621 364.061 487.331 373.941 484.101L391.871 480.661C392.691 480.471 393.121 480.631 392.971 479.741Z" fill="black"/>
<path d="M234.798 369.92L217.798 376.21C204.048 381.42 196.968 395.92 201.968 409L243.348 494.92C246.028 501.86 253.628 506.01 261.398 504.79L323.118 496.05L322.968 474H264.968C264.968 474 257.428 456.33 240.968 418C239.698 414.44 235.968 406.81 235.638 403.11C234.698 392.19 235.738 380.84 234.798 369.92Z" fill="#448CC7"/>
<g opacity="0.15">
<path opacity="0.15" d="M229.97 464.001L243.2 494.921C245.88 501.861 253.48 506.011 261.2 504.791L322.97 496.051V492.001L273.97 499.001C265.97 500.191 262.09 501.191 258.08 501.001C255.584 500.921 253.153 500.184 251.033 498.866C248.912 497.547 247.176 495.693 246 493.491L229.97 464.001Z" fill="black"/>
</g>
<path opacity="0.15" d="M256.288 335.721L257.967 332.001C257.302 332.31 256.613 332.567 255.908 332.771L256.288 335.721Z" fill="black"/>
<path d="M136.611 746.692L129.431 923.96" stroke="#21252B" stroke-width="0.93" stroke-miterlimit="10" stroke-linecap="round"/>
<path d="M84.4819 823.741L116.342 861.191" stroke="#21252B" stroke-width="0.93" stroke-miterlimit="10" stroke-linecap="round"/>
<path d="M158.64 868.192L129.97 911.75" stroke="#21252B" stroke-width="0.93" stroke-miterlimit="10" stroke-linecap="round"/>
<path d="M172.619 795.042L133.079 840.242" stroke="#21252B" stroke-width="0.93" stroke-miterlimit="10" stroke-linecap="round"/>
<path d="M169.97 819.312C179.34 808.312 182.17 795.312 176.3 790.312C170.43 785.312 158.03 790.192 148.66 801.192C139.29 812.192 136.46 825.192 142.33 830.192C148.2 835.192 160.58 830.322 169.97 819.312Z" fill="#448CC7"/>
<path opacity="0.3" d="M176.65 790.76L142.15 830.04C142.27 830.04 142.27 830.16 142.4 830.16C148.32 835.16 160.66 830.29 169.97 819.34C179.16 808.63 182.06 796.04 176.65 790.76Z" fill="black"/>
<path d="M103.539 845.8C108.089 842.03 106.039 832.03 98.9389 823.45C91.8389 814.87 82.4089 810.98 77.8589 814.75C73.3089 818.52 75.3589 828.52 82.4489 837.09C89.5389 845.66 98.9689 849.56 103.539 845.8Z" fill="#448CC7"/>
<path opacity="0.3" d="M77.558 815.061L103.618 845.651L103.488 845.781C98.958 849.551 89.488 845.651 82.338 837.091C75.538 828.781 73.398 818.961 77.558 815.061Z" fill="black"/>
<path d="M89.271 874.481L122.881 900.67" stroke="#21252B" stroke-width="0.93" stroke-miterlimit="10" stroke-linecap="round"/>
<path d="M112.37 892.19C116.06 887.58 112.01 878.192 103.37 871.252C94.7299 864.312 84.6499 862.412 80.9599 867.032C77.2699 871.652 81.3199 881.032 90.0099 887.97C98.6999 894.91 108.68 896.81 112.37 892.19Z" fill="#448CC7"/>
<path opacity="0.3" d="M80.7009 867.43L112.431 892.11L112.311 892.24C108.661 896.89 98.5809 895.01 89.9009 888.08C81.4609 881.28 77.4309 872.09 80.7009 867.43Z" fill="black"/>
<path d="M149.74 760.021C150.4 745.571 144.79 733.581 137.22 733.231C129.65 732.881 122.98 744.321 122.32 758.771C121.66 773.221 127.27 785.211 134.84 785.561C142.41 785.911 149.09 774.471 149.74 760.021Z" fill="#448CC7"/>
<path opacity="0.3" d="M122.378 758.901C123.008 744.551 129.678 733.091 137.238 733.471L134.838 785.721C127.288 785.191 121.748 773.261 122.378 758.901Z" fill="black"/>
<path d="M161.702 884.64C167.992 874.802 168.702 863.992 163.232 860.512C157.762 857.032 148.232 862.182 141.972 872.022C135.712 881.862 134.972 892.66 140.442 896.15C145.912 899.64 155.402 894.48 161.702 884.64Z" fill="#448CC7"/>
<path opacity="0.3" d="M142.021 871.971C135.851 881.531 135.101 892.11 140.131 895.76L163.131 860.511L161.751 859.881C156.371 857.861 147.811 862.901 142.021 871.971Z" fill="black"/>
<path d="M126.282 921.82L106.642 799.442" stroke="#21252B" stroke-width="0.93" stroke-miterlimit="10" stroke-linecap="round"/>
<path d="M108.497 816.582C115.227 815.502 119.017 804.222 116.967 791.382C114.917 778.542 107.787 769.002 101.057 770.082C94.327 771.162 90.537 782.442 92.597 795.282C94.657 808.122 101.767 817.652 108.497 816.582Z" fill="#448CC7"/>
<path opacity="0.3" d="M92.542 795.291C90.542 782.451 94.302 771.111 100.982 769.981L108.402 816.571C101.732 817.831 94.552 808.261 92.542 795.291Z" fill="black"/>
<path d="M117.6 965.19H141.14C142.184 965.2 143.217 964.99 144.182 964.6C145.147 964.2 146.023 963.61 146.76 962.87C147.497 962.14 148.081 961.26 148.478 960.29C148.874 959.33 149.076 958.3 149.07 957.25V926.03H109.54V957.19C109.564 959.32 110.423 961.35 111.931 962.84C113.439 964.34 115.475 965.18 117.6 965.19Z" fill="#868A91"/>
<path d="M150.082 921.82H108.782C108.239 921.86 107.729 922.1 107.357 922.5C106.986 922.9 106.779 923.42 106.779 923.97C106.779 924.51 106.986 925.04 107.357 925.43C107.729 925.83 108.239 926.07 108.782 926.11H150.082C150.364 926.11 150.644 926.06 150.905 925.95C151.166 925.84 151.403 925.68 151.602 925.48C151.801 925.28 151.958 925.05 152.065 924.78C152.171 924.52 152.225 924.24 152.222 923.96C152.183 923.41 151.944 922.88 151.551 922.49C151.158 922.1 150.637 921.86 150.082 921.82Z" fill="#868A91"/>
<path d="M149.2 925.98H113.2C112.632 925.98 112.088 925.76 111.686 925.35C111.285 924.95 111.06 924.41 111.06 923.84C111.06 923.27 111.285 922.73 111.686 922.33C112.088 921.93 112.632 921.7 113.2 921.7H108.79C108.222 921.7 107.678 921.93 107.276 922.33C106.875 922.73 106.65 923.27 106.65 923.84C106.65 924.41 106.875 924.95 107.276 925.35C107.678 925.76 108.222 925.98 108.79 925.98H109.67V957.08C109.667 958.12 109.871 959.16 110.269 960.12C110.667 961.09 111.252 961.96 111.99 962.7C112.728 963.44 113.604 964.02 114.569 964.42C115.533 964.81 116.567 965.02 117.61 965.01H130.45C127.738 965.02 125.107 964.09 123.013 962.36C120.92 960.64 119.497 958.24 118.99 955.57L113.32 926.48H149.21L149.2 925.98Z" fill="#61656D"/>
<path d="M1165.06 479.7L1226.73 497.87C1225.67 523.523 1218.31 548.52 1205.29 570.65L1143.61 552.48C1156.52 530.304 1163.88 505.334 1165.06 479.7Z" fill="white"/>
<path d="M1171.04 490.879L1215.98 503.119" stroke="#61656D" stroke-width="0.75" stroke-miterlimit="10" stroke-linecap="round"/>
<path d="M1171.04 496.879L1215.98 509.119" stroke="#61656D" stroke-width="0.75" stroke-miterlimit="10" stroke-linecap="round"/>
<path d="M1183.51 506.549L1214.98 515.119" stroke="#61656D" stroke-width="0.75" stroke-miterlimit="10" stroke-linecap="round"/>
<path d="M1170.04 502.879L1180.51 505.729" stroke="#61656D" stroke-width="0.75" stroke-miterlimit="10" stroke-linecap="round"/>
<path d="M1169.04 508.879L1213.98 521.119" stroke="#61656D" stroke-width="0.75" stroke-miterlimit="10" stroke-linecap="round"/>
<path d="M1201.99 524.129L1212.98 527.119" stroke="#61656D" stroke-width="0.75" stroke-miterlimit="10"/>
<path d="M1183.51 519.09L1199.24 523.38" stroke="#61656D" stroke-width="0.75" stroke-miterlimit="10" stroke-linecap="round"/>
<path d="M1168.04 514.879L1180.51 518.279" stroke="#61656D" stroke-width="0.75" stroke-miterlimit="10" stroke-linecap="round"/>
<path d="M1166.04 520.879L1210.98 533.119" stroke="#61656D" stroke-width="0.75" stroke-miterlimit="10" stroke-linecap="round"/>
<path d="M1182.01 531.77L1208.98 539.12" stroke="#61656D" stroke-width="0.75" stroke-miterlimit="10" stroke-linecap="round"/>
<path d="M1164.04 526.879L1178.32 530.769" stroke="#61656D" stroke-width="0.75" stroke-miterlimit="10" stroke-linecap="round"/>
<path d="M1161.04 532.879L1205.98 545.119" stroke="#61656D" stroke-width="0.75" stroke-miterlimit="10" stroke-linecap="round"/>
<path d="M1173.51 543.09L1202.98 551.12" stroke="#61656D" stroke-width="0.75" stroke-miterlimit="10" stroke-linecap="round"/>
<path d="M1158.04 538.879L1168.04 541.599" stroke="#61656D" stroke-width="0.75" stroke-miterlimit="10" stroke-linecap="round"/>
<path d="M1155.04 544.879L1199.98 557.119" stroke="#61656D" stroke-width="0.75" stroke-miterlimit="10" stroke-linecap="round"/>
<path d="M691.568 180.1L635.638 195.44C635.351 186.695 633.68 178.052 630.688 169.83C626.518 158.55 621.488 153.04 618.368 140.03C617.202 135.109 616.532 130.084 616.368 125.03L672.298 109.69C672.078 114.801 672.441 119.921 673.378 124.95C675.548 136.57 679.898 142.63 684.198 153.08C687.73 161.758 690.204 170.83 691.568 180.1Z" fill="white"/>
<path d="M626.658 131.25L663.617 121.11" stroke="#61656D" stroke-width="0.5" stroke-miterlimit="10"/>
<path d="M626.579 138.529L663.539 128.389" stroke="#61656D" stroke-width="0.5" stroke-miterlimit="10"/>
<path d="M630.361 144.75L667.321 134.61" stroke="#61656D" stroke-width="0.5" stroke-miterlimit="10"/>
<path d="M647.298 146.32L670.838 139.87" stroke="#61656D" stroke-width="0.5" stroke-miterlimit="10"/>
<path d="M633.88 150.01L644.18 147.18" stroke="#61656D" stroke-width="0.5" stroke-miterlimit="10"/>
<path d="M636.431 155.529L673.391 145.389" stroke="#61656D" stroke-width="0.5" stroke-miterlimit="10"/>
<path d="M665.919 153.661L675.939 150.911" stroke="#61656D" stroke-width="0.5" stroke-miterlimit="10"/>
<path d="M638.982 161.05L662.242 154.67" stroke="#61656D" stroke-width="0.5" stroke-miterlimit="10"/>
<path d="M667.509 159.45L677.529 156.7" stroke="#61656D" stroke-width="0.5" stroke-miterlimit="10"/>
<path d="M652.06 163.68L664.8 160.19" stroke="#61656D" stroke-width="0.5" stroke-miterlimit="10"/>
<path d="M640.572 166.84L648.942 164.54" stroke="#61656D" stroke-width="0.5" stroke-miterlimit="10"/>
<path d="M643.118 172.359L680.078 162.219" stroke="#61656D" stroke-width="0.5" stroke-miterlimit="10"/>
<path d="M651.419 176.3L680.699 168.27" stroke="#61656D" stroke-width="0.5" stroke-miterlimit="10"/>
<path d="M643.74 178.41L649.329 176.87" stroke="#61656D" stroke-width="0.5" stroke-miterlimit="10"/>
<path d="M644.361 184.461L681.331 174.321" stroke="#61656D" stroke-width="0.5" stroke-miterlimit="10"/>
<path d="M77.1689 537.949L134.649 545.689C133.763 536.999 134.263 528.223 136.129 519.689C138.759 507.959 143.009 501.819 144.369 488.509C144.868 483.478 144.868 478.41 144.369 473.379L86.8889 465.639C87.8009 470.675 88.1359 475.798 87.8889 480.909C87.2889 492.719 83.7789 499.309 80.8889 510.239C78.5439 519.293 77.2949 528.597 77.1689 537.949Z" fill="white"/>
<path d="M133.98 480.868L95.99 475.758" stroke="#61656D" stroke-width="0.5" stroke-miterlimit="10"/>
<path d="M135.03 488.078L97.04 482.958" stroke="#61656D" stroke-width="0.5" stroke-miterlimit="10"/>
<path d="M132.108 494.747L94.1179 489.628" stroke="#61656D" stroke-width="0.5" stroke-miterlimit="10"/>
<path d="M115.531 498.569L91.3409 495.309" stroke="#61656D" stroke-width="0.5" stroke-miterlimit="10"/>
<path d="M129.33 500.429L118.74 498.999" stroke="#61656D" stroke-width="0.5" stroke-miterlimit="10"/>
<path d="M127.542 506.237L89.552 501.128" stroke="#61656D" stroke-width="0.5" stroke-miterlimit="10"/>
<path d="M98.049 508.328L87.759 506.938" stroke="#61656D" stroke-width="0.5" stroke-miterlimit="10"/>
<path d="M125.741 512.049L101.841 508.829" stroke="#61656D" stroke-width="0.5" stroke-miterlimit="10"/>
<path d="M97.248 514.269L86.958 512.889" stroke="#61656D" stroke-width="0.5" stroke-miterlimit="10"/>
<path d="M113.13 516.409L100.04 514.649" stroke="#61656D" stroke-width="0.5" stroke-miterlimit="10"/>
<path d="M124.941 517.998L116.341 516.838" stroke="#61656D" stroke-width="0.5" stroke-miterlimit="10"/>
<path d="M123.149 523.808L85.1689 518.698" stroke="#61656D" stroke-width="0.5" stroke-miterlimit="10"/>
<path d="M115.451 528.828L85.361 524.778" stroke="#61656D" stroke-width="0.5" stroke-miterlimit="10"/>
<path d="M123.341 529.888L117.591 529.118" stroke="#61656D" stroke-width="0.5" stroke-miterlimit="10"/>
<path d="M123.532 535.968L85.552 530.858" stroke="#61656D" stroke-width="0.5" stroke-miterlimit="10"/>
<path d="M948.62 470.45C948.92 467.45 949.12 464.45 949.42 461.35C949.22 464.45 948.97 467.45 948.62 470.45Z" fill="white"/>
<path d="M955.32 389.049C955.52 386.549 955.72 384.049 955.82 381.549C955.72 384.049 955.52 386.449 955.32 389.049Z" fill="white"/>
<path d="M951.42 439.051C951.62 436.051 951.92 433.151 952.12 430.251C951.97 433.191 951.62 436.051 951.42 439.051Z" fill="white"/>
<path d="M942.02 536.351C942.52 532.251 942.92 528.051 943.42 523.751C942.97 528.051 942.52 532.251 942.02 536.351Z" fill="white"/>
<path d="M953.22 417.35C953.42 414.55 953.62 411.75 953.92 408.95C953.62 411.65 953.42 414.45 953.22 417.35Z" fill="white"/>
<path d="M1008.12 384.75C1009.52 355.25 1006.52 334.65 1006.52 334.65H1006.62L1003.42 333.25L999.32 334.15L971.52 340.35L962.62 327.35L958.82 326.95L962.02 327.35C962.42 342.85 970.82 436.55 954.22 556.15H1008.02C1000.92 502.35 1004.92 443.75 1006.52 399.55L1008.12 384.75Z" fill="white"/>
<path d="M944.32 515.189C944.62 512.289 944.92 509.389 945.22 506.389C944.97 509.349 944.62 512.249 944.32 515.189Z" fill="white"/>
<path d="M946.52 493.049C946.92 488.549 947.42 484.049 947.82 479.549C947.42 484.049 946.97 488.549 946.52 493.049Z" fill="white"/>
<path d="M945.22 506.449C945.52 503.549 945.82 500.549 946.12 497.549C945.82 500.449 945.52 503.449 945.22 506.449Z" fill="white"/>
<path d="M950.62 447.949C950.92 444.949 951.12 441.949 951.42 439.049C951.12 441.949 950.97 444.949 950.62 447.949Z" fill="white"/>
<path d="M949.42 461.45L950.62 447.95C950.22 452.35 949.82 456.85 949.42 461.45Z" fill="white"/>
<path d="M962.12 327.35L958.92 326.95C959.02 332.65 957.92 353.45 955.92 381.45C955.72 383.85 955.52 386.35 955.42 388.95C955.12 392.75 954.82 396.65 954.52 400.65C954.32 403.35 954.12 406.05 953.92 408.85C953.72 411.65 953.52 414.35 953.22 417.25C952.92 421.45 952.52 425.75 952.22 430.15C952.02 433.05 951.72 435.95 951.52 438.95C951.32 441.95 951.02 444.85 950.72 447.85L949.52 461.35C949.22 464.35 949.02 467.35 948.72 470.45C948.42 473.55 948.12 476.45 947.92 479.55C947.52 484.05 947.02 488.55 946.62 493.05C946.52 494.55 946.32 496.05 946.22 497.55C945.92 500.55 945.62 503.45 945.32 506.45C945.02 509.45 944.72 512.35 944.42 515.25C944.12 518.15 943.82 521.05 943.52 523.85C943.02 528.15 942.62 532.35 942.12 536.45C941.32 543.35 940.62 549.95 939.82 556.25H954.42C970.97 436.65 962.52 342.85 962.12 327.35Z" fill="white"/>
<path opacity="0.15" d="M959.42 337.549L958.92 327.049C959.02 332.749 957.92 353.549 955.92 381.549C955.72 383.949 955.52 386.449 955.42 389.049C955.12 392.849 954.82 396.749 954.52 400.749C954.32 403.449 954.12 406.149 953.92 408.949C953.72 411.749 953.52 414.449 953.22 417.349C952.92 421.549 952.52 425.849 952.22 430.249C952.02 433.149 951.72 436.049 951.52 439.049C951.32 442.049 951.02 444.949 950.72 447.949L949.52 461.449C949.22 464.449 949.02 467.449 948.72 470.549C948.42 473.649 948.12 476.549 947.92 479.649C947.52 484.149 947.02 488.649 946.62 493.149C946.52 494.649 946.32 496.149 946.22 497.649C945.92 500.649 945.62 503.549 945.32 506.549C945.02 509.549 944.72 512.449 944.42 515.349C944.12 518.249 943.82 521.149 943.52 523.949C943.02 528.249 942.62 532.449 942.12 536.549C941.32 543.449 940.62 550.049 939.82 556.349H954.42C970.97 436.649 959.82 352.949 959.42 337.549Z" fill="black"/>
<path d="M909.52 546.19L916.92 912.59H950.42L969.12 602.59C969.23 600.85 969.99 599.218 971.27 598.028C972.54 596.839 974.22 596.183 975.97 596.196C977.71 596.208 979.38 596.889 980.64 598.097C981.89 599.305 982.64 600.949 982.72 602.69L999.72 912.59H1033.22L1043.52 546.19H909.52Z" fill="#21252B"/>
<path opacity="0.3" d="M917.82 556.19L916.22 592.59H938.22C941.04 592.642 943.79 591.698 945.99 589.924C948.18 588.15 949.68 585.659 950.22 582.89C951.72 573.89 953.02 554.99 954.32 546.29H917.82V556.19Z" fill="black"/>
<path d="M920.42 933.55L919.52 904.35H947.97L946.67 934.45L920.42 933.55Z" fill="#FC9D9D"/>
<path opacity="0.15" d="M947.62 912.55L946.72 934.45L939.92 934.25L940.12 921.35C940.13 920.34 939.8 919.36 939.18 918.56C938.56 917.76 937.7 917.2 936.72 916.95L919.72 912.55H947.62Z" fill="black"/>
<path d="M946.62 959.95V934.45C946.62 930.74 945.14 927.18 942.52 924.55C939.89 921.92 936.33 920.45 932.62 920.45H932.02C928.96 920.43 925.99 921.48 923.62 923.42C921.25 925.35 919.62 928.05 919.02 931.05C918.31 934.71 916.66 938.13 914.22 940.95L910.22 945.65C906.82 949.64 904.94 954.71 904.92 959.95H946.62Z" fill="#448CC7"/>
<path d="M922.52 934.05C922.42 934.05 922.32 934.02 922.23 933.97C922.14 933.92 922.07 933.84 922.02 933.75C921.92 933.45 921.92 933.15 922.22 933.05C924.57 931.72 927.22 931.02 929.92 931.02C932.62 931.02 935.27 931.72 937.62 933.05C937.73 933.13 937.8 933.25 937.81 933.38C937.83 933.51 937.8 933.64 937.72 933.75C937.64 933.86 937.52 933.93 937.39 933.94C937.26 933.96 937.13 933.93 937.02 933.85C934.84 932.61 932.38 931.96 929.87 931.96C927.36 931.96 924.9 932.61 922.72 933.85C922.72 934.05 922.62 934.05 922.52 934.05Z" fill="white"/>
<path d="M920.82 937.65C920.72 937.65 920.61 937.63 920.53 937.57C920.44 937.52 920.37 937.44 920.32 937.35C920.22 937.05 920.22 936.75 920.52 936.65C922.87 935.32 925.52 934.62 928.22 934.62C930.92 934.62 933.57 935.32 935.92 936.65C936.02 936.73 936.1 936.85 936.11 936.98C936.13 937.11 936.1 937.24 936.02 937.35C935.94 937.46 935.82 937.53 935.69 937.55C935.56 937.56 935.42 937.53 935.32 937.45C933.14 936.21 930.68 935.56 928.17 935.56C925.66 935.56 923.2 936.21 921.02 937.45C921.02 937.65 920.97 937.65 920.82 937.65Z" fill="white"/>
<path d="M919.02 941.45C918.92 941.45 918.82 941.42 918.73 941.37C918.64 941.32 918.57 941.24 918.52 941.15C918.42 940.85 918.42 940.55 918.72 940.45C921.07 939.12 923.72 938.42 926.42 938.42C929.12 938.42 931.77 939.12 934.12 940.45C934.23 940.53 934.3 940.65 934.31 940.78C934.33 940.91 934.3 941.04 934.22 941.15C934.14 941.26 934.02 941.33 933.89 941.34C933.76 941.36 933.63 941.33 933.52 941.25C931.34 940.01 928.88 939.36 926.37 939.36C923.86 939.36 921.4 940.01 919.22 941.25C919.12 941.45 919.02 941.45 919.02 941.45Z" fill="white"/>
<path d="M906.72 965.25H944.82C945.06 965.25 945.29 965.21 945.51 965.12C945.73 965.03 945.93 964.89 946.1 964.73C946.26 964.56 946.4 964.36 946.49 964.14C946.58 963.92 946.62 963.69 946.62 963.45V960.05H904.97V963.45C904.97 963.92 905.15 964.37 905.48 964.71C905.8 965.04 906.25 965.24 906.72 965.25Z" fill="#3F4249"/>
<path d="M916.22 912.55L915.92 900.95H951.92L951.22 912.55H916.22Z" fill="#448CC7"/>
<path d="M951.97 900.95L951.27 912.55H916.27L915.97 900.95H951.97Z" fill="#21252B"/>
<path opacity="0.4" d="M951.97 900.95L951.27 912.55H916.27L915.97 900.95H951.97Z" fill="black"/>
<path d="M1078.62 381.349C1077.44 376.033 1075.03 371.07 1071.57 366.865C1068.11 362.659 1063.71 359.33 1058.72 357.149L1006.62 334.549H1006.52C1006.59 335.081 1006.59 335.618 1006.52 336.149C1006.45 336.688 1006.35 337.222 1006.22 337.749C1005.62 344.449 1004.32 360.949 1003.32 383.249C1003.12 387.649 1002.92 392.349 1002.72 397.249C1001.22 439.249 1001.02 528.949 1007.02 583.949C1007.27 586.237 1008.36 588.351 1010.08 589.883C1011.8 591.415 1014.02 592.258 1016.32 592.249H1043.32L1044.92 516.549L1046.52 439.749L1047.82 444.449L1090.02 434.549L1078.62 381.349Z" fill="#448CC7"/>
<path opacity="0.2" d="M1046.97 439.07L1037.55 407.42C1037.48 407.205 1037.33 407.021 1037.14 406.899C1036.95 406.777 1036.72 406.724 1036.49 406.749C1036.27 406.773 1036.06 406.874 1035.9 407.034C1035.74 407.194 1035.63 407.404 1035.61 407.63L1022.05 591.19C1022.04 591.327 1022.06 591.464 1022.1 591.594C1022.15 591.724 1022.22 591.842 1022.32 591.943C1022.41 592.043 1022.52 592.123 1022.65 592.178C1022.78 592.232 1022.91 592.26 1023.05 592.26H1042.05C1042.31 592.26 1042.57 592.154 1042.76 591.967C1042.94 591.779 1043.05 591.525 1043.05 591.26L1047.05 439.38C1047.03 439.274 1047.01 439.17 1046.97 439.07Z" fill="black"/>
<path d="M1000.1 290.269L999.1 285.669C996.52 254.089 955.97 281.189 955.97 281.189C955.97 281.189 957.37 292.439 958.14 304.839C958.14 307.519 960.57 309.439 961.08 311.489V320.309L960.31 337.309C960.31 337.309 966.97 346.189 981.97 346.189C981.97 346.189 997.97 346.189 1006.97 334.189L1000.1 290.269Z" fill="#FC9D9D"/>
<path d="M958.97 326.629L938.67 330.189C930.47 331.639 922.22 332.729 913.94 333.549C904.3 334.499 897.03 335.929 888.22 339.399L886.97 340.769V392.769L900.72 389.699L902.32 402.099C908.92 451.899 911.12 492.199 908.82 542.499L906.62 592.199H928.62C931.43 592.211 934.16 591.252 936.35 589.485C938.53 587.718 940.04 585.251 940.62 582.499C959.72 492.329 959.32 342.029 958.97 326.629Z" fill="#448CC7"/>
<path d="M958.82 359.249L961.02 323.149L951.72 328.249L936.92 363.249L958.82 359.249Z" fill="#448CC7"/>
<path opacity="0.15" d="M937.82 362.551L951.72 328.251L950.42 329.051L936.02 363.951L958.62 365.851L958.82 359.251L937.82 362.551Z" fill="black"/>
<path d="M1005.62 327.85L1013.32 337.55L1022.02 374.85L1004.72 365.05L1006.32 339.45L1006.42 338.95C1006.72 337.571 1006.82 336.157 1006.72 334.75L1005.62 327.85Z" fill="#448CC7"/>
<path opacity="0.2" d="M1014.82 338.19L1013.22 337.59L1021.62 374.29L1004.62 364.99L1004.02 372.59L1023.22 376.19L1014.82 338.19Z" fill="black"/>
<path opacity="0.15" d="M886.97 377.189L887.32 393.009L900.72 390.009L898.72 378.609C898.6 377.923 898.34 377.272 897.94 376.699C897.55 376.127 897.03 375.648 896.43 375.296C895.83 374.943 895.16 374.726 894.47 374.659C893.77 374.593 893.08 374.678 892.42 374.909L886.97 377.189Z" fill="black"/>
<path opacity="0.4" d="M975.97 596.19C974.23 596.187 972.56 596.848 971.3 598.038C970.03 599.228 969.27 600.857 969.17 602.59L951.17 900.99H940.47L944.77 615.99C944.85 610.711 947 605.676 950.76 601.971C954.52 598.266 959.59 596.189 964.87 596.19H975.97Z" fill="black"/>
<path opacity="0.2" d="M951.22 912.55L951.92 900.95H940.42L940.22 912.55H951.22Z" fill="black"/>
<path opacity="0.4" d="M1042.52 592.549L1033.22 912.55H1030.02L1030.32 904.35H1017.97L1022.37 592.549H1042.52Z" fill="black"/>
<path d="M1029.42 933.55L1030.32 904.35H1001.82L1003.12 934.45L1029.42 933.55Z" fill="#FC9D9D"/>
<path opacity="0.15" d="M1030.02 912.55L1029.42 933.55L1017.52 933.95L1017.72 919.75C1017.73 919.09 1017.53 918.45 1017.16 917.91C1016.78 917.37 1016.24 916.96 1015.62 916.75L1002.22 912.45H1030.02V912.55Z" fill="black"/>
<path d="M1003.12 959.95V934.45C1003.12 930.74 1004.6 927.18 1007.22 924.55C1009.85 921.92 1013.41 920.45 1017.12 920.45H1017.72C1020.78 920.43 1023.75 921.48 1026.12 923.42C1028.49 925.35 1030.12 928.05 1030.72 931.05C1031.43 934.71 1033.08 938.13 1035.52 940.95L1039.52 945.65C1042.92 949.64 1044.8 954.71 1044.82 959.95H1003.12Z" fill="#448CC7"/>
<path d="M1027.32 934.05C1027.26 934.06 1027.21 934.05 1027.16 934.03C1027.11 934.02 1027.06 933.99 1027.02 933.95C1024.85 932.67 1022.38 932 1019.87 932C1017.35 932 1014.89 932.67 1012.72 933.95C1012.67 933.99 1012.61 934.02 1012.54 934.03C1012.48 934.05 1012.41 934.05 1012.35 934.04C1012.28 934.03 1012.22 934.01 1012.16 933.98C1012.11 933.95 1012.06 933.9 1012.02 933.85C1011.98 933.8 1011.95 933.74 1011.93 933.67C1011.92 933.61 1011.91 933.54 1011.92 933.48C1011.93 933.41 1011.96 933.35 1011.99 933.29C1012.02 933.24 1012.07 933.19 1012.12 933.15C1014.46 931.8 1017.12 931.08 1019.82 931.08C1022.52 931.08 1025.18 931.8 1027.52 933.15C1027.82 933.25 1027.82 933.65 1027.72 933.85C1027.61 933.95 1027.47 934.02 1027.32 934.05Z" fill="white"/>
<path d="M1028.97 937.65C1028.92 937.66 1028.86 937.65 1028.81 937.63C1028.76 937.62 1028.71 937.59 1028.67 937.55C1026.5 936.27 1024.03 935.6 1021.52 935.6C1019.01 935.6 1016.54 936.27 1014.37 937.55C1014.32 937.59 1014.26 937.62 1014.19 937.64C1014.13 937.65 1014.06 937.66 1014 937.65C1013.93 937.64 1013.87 937.61 1013.81 937.58C1013.76 937.55 1013.71 937.5 1013.67 937.45C1013.63 937.4 1013.6 937.34 1013.59 937.27C1013.57 937.21 1013.57 937.15 1013.57 937.08C1013.58 937.02 1013.61 936.95 1013.64 936.9C1013.67 936.84 1013.72 936.79 1013.77 936.75C1016.11 935.4 1018.77 934.69 1021.47 934.69C1024.17 934.69 1026.83 935.4 1029.17 936.75C1029.47 936.85 1029.47 937.25 1029.37 937.45C1029.27 937.65 1029.12 937.65 1028.97 937.65Z" fill="white"/>
<path d="M1030.82 941.45C1030.76 941.46 1030.71 941.45 1030.66 941.43C1030.61 941.42 1030.56 941.39 1030.52 941.35C1028.35 940.07 1025.88 939.4 1023.37 939.4C1020.85 939.4 1018.39 940.07 1016.22 941.35C1016.17 941.39 1016.11 941.42 1016.04 941.43C1015.98 941.45 1015.91 941.45 1015.85 941.44C1015.78 941.44 1015.72 941.41 1015.66 941.38C1015.61 941.35 1015.56 941.3 1015.52 941.25C1015.48 941.2 1015.45 941.14 1015.43 941.07C1015.42 941.01 1015.41 940.94 1015.42 940.88C1015.43 940.81 1015.46 940.75 1015.49 940.69C1015.52 940.64 1015.57 940.59 1015.62 940.55C1017.96 939.2 1020.62 938.48 1023.32 938.48C1026.02 938.48 1028.68 939.2 1031.02 940.55C1031.32 940.65 1031.32 941.05 1031.22 941.25C1031.17 941.31 1031.11 941.36 1031.04 941.39C1030.97 941.43 1030.9 941.45 1030.82 941.45Z" fill="white"/>
<path d="M1043.02 965.25H1004.97C1004.73 965.25 1004.5 965.21 1004.28 965.12C1004.06 965.03 1003.86 964.89 1003.69 964.73C1003.53 964.56 1003.39 964.36 1003.3 964.14C1003.21 963.92 1003.17 963.69 1003.17 963.45V960.05H1044.97V963.45C1044.95 963.95 1044.73 964.41 1044.37 964.75C1044 965.09 1043.52 965.27 1043.02 965.25Z" fill="#3F4249"/>
<path d="M998.22 900.95L998.92 912.55H1033.92L1034.12 900.95H998.22Z" fill="#21252B"/>
<path opacity="0.4" d="M998.22 900.95L998.92 912.55H1033.92L1034.12 900.95H998.22Z" fill="black"/>
<path opacity="0.2" d="M1017.97 900.95V912.55H1033.97L1034.17 900.95H1017.97Z" fill="black"/>
<path d="M947.68 284.009C944.33 283.861 941.18 282.394 938.91 279.928C936.64 277.462 935.45 274.199 935.58 270.851C935.71 267.503 937.16 264.344 939.62 262.065C942.07 259.786 945.33 258.572 948.68 258.689C949.06 258.689 950.09 258.439 949.96 258.819C947.17 269.819 950.49 284.009 947.68 284.009Z" fill="#21252B"/>
<path d="M949.85 244.12C949.85 244.12 935.4 318.66 969.8 322.24C999.59 325.31 1001.51 278.89 1001.51 278.89L999.2 248.98L976.06 240.54L949.85 244.12Z" fill="#FC9D9D"/>
<path d="M959.7 261.89C963.15 257.03 968.9 253.45 975.04 253.58C981.94 253.71 987.57 259.2 986.93 267.26L986.8 269.05C986.74 269.861 987 270.663 987.53 271.283C988.05 271.904 988.8 272.294 989.61 272.37C990.37 272.383 991.11 272.546 991.81 272.849C992.5 273.153 993.13 273.59 993.65 274.137C994.17 274.684 994.58 275.329 994.86 276.035C995.13 276.741 995.26 277.494 995.24 278.25L995.11 283.5C995.11 283.652 995.14 283.802 995.19 283.942C995.25 284.082 995.34 284.21 995.44 284.317C995.55 284.424 995.68 284.508 995.82 284.566C995.96 284.623 996.11 284.652 996.26 284.65C996.26 284.65 997.8 284.9 998.05 283.65L998.82 278.03L993.45 246.32L967.11 239.42L956.11 248.75L959.7 261.89Z" fill="#21252B"/>
<path opacity="0.15" d="M1000.1 290.4C1000.1 290.4 998.05 290.27 996.39 287.59L1000.48 294.59L1000.1 290.4Z" fill="black"/>
<path d="M962.89 302.29L976.57 299.1C976.64 300.663 976.18 302.203 975.24 303.46C974.31 304.718 972.98 305.615 971.46 306C964.97 307.66 962.89 302.29 962.89 302.29Z" fill="white"/>
<path d="M975.04 284.65C975.6 284.652 976.14 284.489 976.61 284.18C977.07 283.871 977.44 283.432 977.65 282.916C977.87 282.401 977.92 281.834 977.82 281.286C977.71 280.739 977.44 280.235 977.05 279.84C976.65 279.444 976.15 279.175 975.6 279.065C975.06 278.956 974.49 279.011 973.97 279.224C973.46 279.437 973.02 279.799 972.71 280.263C972.4 280.727 972.23 281.272 972.23 281.83C972.23 282.2 972.3 282.567 972.44 282.909C972.58 283.251 972.79 283.562 973.05 283.824C973.31 284.086 973.62 284.294 973.96 284.435C974.3 284.577 974.67 284.65 975.04 284.65Z" fill="#21252B"/>
<path d="M973.76 281.581C973.86 281.581 973.96 281.551 974.04 281.495C974.13 281.439 974.19 281.359 974.23 281.266C974.27 281.173 974.28 281.071 974.26 280.972C974.24 280.873 974.19 280.782 974.12 280.71C974.05 280.639 973.96 280.591 973.86 280.571C973.76 280.551 973.66 280.561 973.56 280.6C973.47 280.639 973.39 280.704 973.34 280.788C973.28 280.872 973.25 280.97 973.25 281.071C973.25 281.206 973.3 281.336 973.4 281.432C973.49 281.527 973.62 281.581 973.76 281.581Z" fill="white"/>
<path d="M953.17 285.41C953.72 285.41 954.27 285.245 954.73 284.936C955.19 284.627 955.55 284.188 955.76 283.675C955.98 283.162 956.03 282.596 955.92 282.051C955.82 281.506 955.55 281.006 955.16 280.613C954.76 280.22 954.26 279.952 953.72 279.844C953.17 279.735 952.61 279.791 952.09 280.004C951.58 280.216 951.14 280.576 950.83 281.038C950.52 281.501 950.36 282.044 950.36 282.6C950.36 283.345 950.65 284.06 951.18 284.587C951.71 285.114 952.42 285.41 953.17 285.41Z" fill="#21252B"/>
<path d="M952.02 282.189C952.09 282.19 952.15 282.178 952.22 282.153C952.28 282.128 952.34 282.091 952.39 282.043C952.43 281.996 952.47 281.939 952.5 281.876C952.53 281.814 952.54 281.747 952.54 281.679C952.54 281.576 952.51 281.474 952.46 281.387C952.4 281.301 952.32 281.232 952.23 281.191C952.13 281.151 952.03 281.139 951.92 281.158C951.82 281.177 951.73 281.225 951.66 281.298C951.58 281.37 951.53 281.463 951.51 281.564C951.49 281.665 951.5 281.77 951.54 281.866C951.58 281.961 951.64 282.043 951.73 282.101C951.82 282.158 951.92 282.189 952.02 282.189Z" fill="white"/>
<g opacity="0.3">
<path opacity="0.3" d="M963.15 298.069L966.73 298.199C966.95 298.216 967.17 298.145 967.34 298.002C967.5 297.858 967.61 297.654 967.62 297.434C967.64 297.214 967.57 296.996 967.43 296.828C967.28 296.66 967.08 296.556 966.86 296.539L963.28 296.409C962.38 296.279 961.61 295.519 961.74 294.749C961.87 293.979 962.64 293.089 963.4 293.209C963.61 293.182 963.8 293.095 963.96 292.961C964.12 292.826 964.24 292.648 964.3 292.449C964.43 292.059 963.91 291.679 963.53 291.549C962.67 291.525 961.84 291.829 961.2 292.4C960.55 292.97 960.16 293.764 960.08 294.619C960.05 295.049 960.1 295.481 960.24 295.89C960.37 296.299 960.59 296.676 960.88 296.998C961.17 297.32 961.51 297.581 961.91 297.765C962.3 297.949 962.72 298.053 963.15 298.069Z" fill="black"/>
</g>
<path d="M941.28 279.79L941.41 282.86C941.51 285.713 942.74 288.408 944.82 290.358C946.91 292.308 949.68 293.355 952.53 293.27C955.38 293.186 958.09 291.977 960.05 289.907C962.02 287.837 963.08 285.074 963.02 282.22L962.89 279.15C962.91 278.707 962.84 278.263 962.69 277.846C962.53 277.429 962.3 277.047 962 276.72L966.22 276.59C965.93 276.923 965.72 277.309 965.59 277.727C965.45 278.144 965.41 278.584 965.45 279.02L965.58 282.09C965.66 284.955 966.88 287.668 968.97 289.634C971.05 291.599 973.83 292.655 976.7 292.57C979.56 292.486 982.28 291.266 984.24 289.181C986.21 287.096 987.26 284.315 987.18 281.45L987.06 278.38C987.01 277.334 986.56 276.346 985.8 275.63C985.03 274.913 984.02 274.526 982.97 274.55L969.41 274.93H969.28L958.8 275.19H957.14L945.14 275.57C944.08 275.656 943.1 276.139 942.38 276.922C941.66 277.705 941.27 278.73 941.28 279.79ZM969.16 276.59L982.84 276.21C983.46 276.202 984.07 276.438 984.52 276.867C984.97 277.297 985.24 277.886 985.27 278.51L985.39 281.581C985.44 282.803 985.26 284.023 984.83 285.172C984.41 286.32 983.77 287.373 982.93 288.27C982.1 289.166 981.1 289.887 979.98 290.391C978.87 290.895 977.67 291.172 976.44 291.206C975.22 291.24 974 291.03 972.86 290.588C971.72 290.147 970.68 289.482 969.8 288.633C968.92 287.785 968.21 286.769 967.73 285.646C967.25 284.522 966.99 283.314 966.98 282.09L966.86 279.02C966.91 278.416 967.17 277.849 967.59 277.408C968.01 276.968 968.56 276.68 969.16 276.59ZM942.82 279.79C942.81 279.166 943.05 278.562 943.48 278.109C943.9 277.655 944.49 277.386 945.12 277.36L957.12 276.98H958.78C959.4 276.972 960.01 277.208 960.46 277.637C960.91 278.067 961.18 278.656 961.21 279.28L961.34 282.35C961.39 283.573 961.21 284.793 960.78 285.942C960.36 287.09 959.72 288.143 958.88 289.04C958.05 289.936 957.05 290.657 955.93 291.161C954.82 291.665 953.62 291.942 952.39 291.976C951.17 292.01 949.95 291.8 948.81 291.358C947.67 290.917 946.63 290.252 945.75 289.403C944.87 288.555 944.16 287.539 943.68 286.416C943.2 285.292 942.94 284.084 942.93 282.86L942.82 279.79Z" fill="#21252B"/>
<path d="M1008.15 258.19C1007.15 250.14 1002.91 244.13 995.88 242.59C992.89 241.994 989.81 242.127 986.88 242.98C986.62 243.065 986.34 243.095 986.07 243.07C985.8 243.044 985.53 242.963 985.29 242.83C985.05 242.698 984.84 242.518 984.68 242.301C984.51 242.084 984.39 241.835 984.32 241.57C983.66 238.914 982.13 236.555 979.98 234.865C977.82 233.175 975.17 232.252 972.43 232.24C970.51 232.217 968.61 232.66 966.9 233.531C965.18 234.402 963.71 235.674 962.59 237.24C962.43 237.47 962.23 237.664 961.99 237.81C961.75 237.956 961.48 238.05 961.21 238.087C960.93 238.124 960.65 238.102 960.38 238.023C960.11 237.944 959.86 237.81 959.65 237.63C959.65 237.63 951.46 231.11 940.72 237.75C937.1 240.109 934.47 243.729 933.37 247.91C932.26 252.091 932.74 256.534 934.72 260.38C939.07 268.95 950.32 271.51 957.23 264.99C959.66 262.69 961.57 259.23 961.96 254.12C962.29 251.283 962.03 248.41 961.19 245.68H964.77C968.99 245.43 975.64 244.68 981.9 245.55C981.77 245.68 981.65 245.68 981.52 245.81L992.64 249.52C992.64 249.52 996.09 278.92 997.89 278.67C1005.72 276.98 1009.18 265.47 1008.15 258.19Z" fill="#21252B"/>
<path d="M998.82 275.439C998.82 275.439 999.97 269.939 1005.82 271.609C1012.47 273.519 1011.32 286.949 1002.5 290.019C997 291.169 997.77 287.839 998.15 283.369L998.82 275.439Z" fill="#FC9D9D"/>
<path opacity="0.15" d="M1006.62 275.31C1006.15 275.008 1005.62 274.817 1005.06 274.751C1004.51 274.685 1003.95 274.746 1003.42 274.93C1002.93 275.131 1002.49 275.426 1002.12 275.798C1001.75 276.171 1001.45 276.613 1001.25 277.1C1000.68 278.352 1000.5 279.745 1000.74 281.1V282.19C1000.77 282.359 1000.87 282.509 1001.02 282.604C1001.16 282.7 1001.34 282.734 1001.51 282.7C1001.68 282.665 1001.83 282.565 1001.92 282.42C1002.02 282.276 1002.05 282.099 1002.02 281.93V280.78C1001.93 279.659 1002.06 278.531 1002.4 277.46C1002.69 276.807 1003.18 276.267 1003.81 275.92C1004.49 275.78 1005.19 275.872 1005.81 276.18C1005.97 276.238 1006.14 276.244 1006.3 276.198C1006.46 276.151 1006.61 276.053 1006.71 275.92C1006.97 275.95 1006.88 275.57 1006.62 275.31Z" fill="black"/>
<path opacity="0.15" d="M991.88 314.759C987.97 319.638 982.36 322.855 976.17 323.759C971.62 326.959 966.17 328.63 960.61 328.529L961.03 319.269L962.29 319.969C967.02 322.385 972.44 323.09 977.63 321.966C982.81 320.841 987.45 317.956 990.76 313.799C990.9 313.519 991.46 313.519 991.76 313.659C991.87 313.817 991.94 314.001 991.96 314.193C991.98 314.386 991.95 314.58 991.88 314.759Z" fill="black"/>
<path d="M1034.12 641.339C1033.72 641.339 1033.32 641.339 1032.9 641.339C1026.55 641.009 1020.3 636.709 1014.33 628.549L1013.73 627.729C1011.73 624.959 1009.62 622.099 1007.5 619.359L945.5 538.869C945.16 538.479 944.9 538.023 944.74 537.529C944.58 537.035 944.52 536.514 944.57 535.997C944.62 535.48 944.77 534.979 945.02 534.524C945.28 534.069 945.62 533.671 946.03 533.353C946.44 533.035 946.91 532.805 947.41 532.677C947.92 532.549 948.44 532.525 948.95 532.607C949.47 532.689 949.96 532.875 950.39 533.154C950.83 533.433 951.21 533.799 951.5 534.229L1013.5 614.729C1015.66 617.539 1017.78 620.439 1019.83 623.239L1020.43 624.059C1024.87 630.129 1029.27 633.479 1033.14 633.749C1034.1 633.815 1035.07 633.681 1035.98 633.356C1036.89 633.031 1037.72 632.521 1038.42 631.859C1038.75 631.49 1039.16 631.192 1039.61 630.979C1040.06 630.767 1040.54 630.646 1041.04 630.623C1041.54 630.6 1042.04 630.675 1042.5 630.844C1042.97 631.013 1043.4 631.273 1043.77 631.609C1044.51 632.293 1044.96 633.243 1045 634.252C1045.05 635.262 1044.7 636.249 1044.02 636.999C1041.4 639.668 1037.85 641.222 1034.12 641.339Z" fill="#3F4249"/>
<path d="M819.772 323.679C819.595 323.684 819.419 323.652 819.255 323.585C819.092 323.518 818.944 323.417 818.821 323.289L810.972 315.069C810.749 314.824 810.631 314.501 810.643 314.169C810.655 313.838 810.796 313.524 811.037 313.296C811.277 313.067 811.597 312.942 811.929 312.946C812.261 312.95 812.577 313.084 812.812 313.319L820.652 321.539C820.819 321.717 820.932 321.939 820.976 322.179C821.02 322.42 820.994 322.667 820.902 322.893C820.809 323.119 820.653 323.313 820.452 323.453C820.252 323.592 820.016 323.671 819.772 323.679Z" fill="black"/>
<path d="M1072.83 611.999L988.56 500.819L952.7 527.589L1038.8 638.189C1040.56 640.453 1042.76 642.34 1045.26 643.739C1047.77 645.139 1050.53 646.021 1053.38 646.336C1056.23 646.65 1059.11 646.389 1061.86 645.568C1064.61 644.748 1067.17 643.385 1069.38 641.559C1073.67 638.035 1076.42 632.987 1077.07 627.475C1077.71 621.962 1076.19 616.415 1072.83 611.999Z" fill="#3F4249"/>
<path opacity="0.15" d="M1072.83 611.999L988.56 500.819L952.7 527.589L1038.8 638.189C1040.56 640.453 1042.76 642.34 1045.26 643.739C1047.77 645.139 1050.53 646.021 1053.38 646.336C1056.23 646.65 1059.11 646.389 1061.86 645.568C1064.61 644.748 1067.17 643.385 1069.38 641.559C1073.67 638.035 1076.42 632.987 1077.07 627.475C1077.71 621.962 1076.19 616.415 1072.83 611.999Z" fill="white"/>
<path d="M984.87 496.09L988.87 500.71L952.51 527.97L822.971 345.19C818.833 339.435 816.819 332.423 817.271 325.35C817.411 323.35 817.781 321.64 818.811 320.71C819.499 320.166 820.354 319.876 821.231 319.89C824.543 319.788 827.835 320.436 830.862 321.785C833.889 323.133 836.572 325.149 838.711 327.68L984.87 496.09Z" fill="#3F4249"/>
<path opacity="0.15" d="M984.87 496.09L988.87 500.71L952.51 527.97L822.971 345.19C818.833 339.435 816.819 332.423 817.271 325.35C817.411 323.35 817.781 321.64 818.811 320.71C819.499 320.166 820.354 319.876 821.231 319.89C824.543 319.788 827.835 320.436 830.862 321.785C833.889 323.133 836.572 325.149 838.711 327.68L984.87 496.09Z" fill="white"/>
<path d="M948.45 522.23L983.72 495.2L988.47 500.36L952.23 527.57L948.45 522.23Z" fill="white"/>
<path d="M927.72 486.849C925.72 487.109 924.11 487.849 923.84 488.849C923.36 490.629 925.58 491.959 928.62 492.129C929.97 492.209 930.97 492.209 930.97 492.209L929.36 492.279C928.89 492.29 928.43 492.408 928.01 492.625C927.59 492.842 927.22 493.151 926.94 493.529C925.59 495.459 927.81 497.019 929.94 497.209C931.95 497.231 933.95 497.371 935.94 497.629L932.88 497.309C932.49 497.257 932.1 497.289 931.73 497.403C931.36 497.517 931.01 497.71 930.72 497.969C929.29 499.329 930.51 501.079 933.89 502.209C935.98 502.829 938.16 503.106 940.34 503.029L937.81 503.179C936.99 503.207 936.19 503.419 935.46 503.799C933.55 504.859 933.72 506.369 937.89 507.209C942.24 508.079 977.74 507.129 990.34 504.829L1083.84 494.629C1086.25 494.393 1088.59 493.645 1090.69 492.436C1092.8 491.227 1094.62 489.584 1096.04 487.617C1097.46 485.649 1098.44 483.402 1098.92 481.025C1099.41 478.647 1099.38 476.195 1098.84 473.829L1090.34 434.729L1048.14 444.629L1056.54 466.329L985.94 485.029L982.04 485.829C980.74 486.129 979.54 486.229 978.64 485.329L978.19 484.879C977.22 483.876 976.11 483.023 974.89 482.349C974.08 481.926 973.22 481.591 972.34 481.349L957.69 475.899C956.45 475.446 955.18 475.094 953.88 474.849C950.05 473.991 946.35 472.619 942.88 470.769C942.45 470.523 941.96 470.378 941.47 470.345C940.97 470.312 940.47 470.392 940.01 470.579C939.75 470.678 939.53 470.844 939.36 471.059C938.96 471.639 939.08 473.829 939.88 475.579C940.35 476.551 941.11 477.351 942.06 477.869C946.69 480.173 951.44 482.236 956.29 484.049C945.68 486.879 927.72 486.849 927.72 486.849Z" fill="#FC9D9D"/>
<path opacity="0.1" d="M937.97 506.189C942.97 506.189 966.52 506.189 975.97 502.609C981.09 500.708 986.38 499.301 991.77 498.409C1012.17 495.009 1065.27 486.009 1079.57 482.809C1080.56 482.597 1081.5 482.188 1082.33 481.608C1083.16 481.028 1083.87 480.288 1084.41 479.43C1084.95 478.573 1085.31 477.617 1085.48 476.617C1085.64 475.617 1085.61 474.594 1085.37 473.609L1077.17 438.009L1090.47 434.909L1098.97 474.009C1099.44 476.375 1099.42 478.814 1098.91 481.172C1098.39 483.529 1097.39 485.754 1095.97 487.707C1094.55 489.659 1092.75 491.296 1090.66 492.515C1088.58 493.734 1086.27 494.508 1083.87 494.789L990.37 504.989C973.92 506.989 940.92 508.189 937.92 507.189C937.92 507.189 934.73 507.029 934.32 505.109C935.42 505.792 936.68 506.166 937.97 506.189Z" fill="black"/>
<path d="M985.97 485.25L989.67 505.25L995.97 504.55L992.27 483.85L985.97 485.25Z" fill="#001B34"/>
<path d="M991.22 501.95C992.47 501.95 993.68 501.581 994.72 500.888C995.76 500.196 996.56 499.212 997.04 498.061C997.52 496.91 997.64 495.643 997.4 494.421C997.16 493.199 996.56 492.076 995.67 491.195C994.79 490.314 993.67 489.714 992.45 489.471C991.23 489.228 989.96 489.353 988.81 489.83C987.66 490.307 986.67 491.114 985.98 492.15C985.29 493.186 984.92 494.404 984.92 495.65C984.92 497.321 985.58 498.923 986.76 500.105C987.95 501.286 989.55 501.95 991.22 501.95Z" fill="#448CC7"/>
<path d="M991.22 500.95C992.27 500.95 993.29 500.639 994.16 500.057C995.04 499.475 995.71 498.647 996.12 497.678C996.52 496.71 996.62 495.644 996.42 494.616C996.21 493.588 995.71 492.644 994.97 491.903C994.23 491.161 993.28 490.657 992.25 490.452C991.23 490.248 990.16 490.352 989.19 490.754C988.22 491.155 987.39 491.834 986.81 492.706C986.23 493.577 985.92 494.602 985.92 495.65C985.92 497.056 986.48 498.404 987.47 499.398C988.47 500.392 989.81 500.95 991.22 500.95Z" fill="white"/>
<path d="M994.72 496.191L991.12 495.991L988.52 494.091C988.42 493.991 988.32 493.791 988.42 493.691C988.52 493.591 988.72 493.491 988.82 493.591L991.22 495.391L994.62 495.591C994.66 495.586 994.7 495.59 994.74 495.604C994.78 495.617 994.81 495.639 994.84 495.668C994.87 495.697 994.89 495.732 994.91 495.77C994.92 495.809 994.92 495.85 994.92 495.891C995.02 495.951 994.97 496.191 994.72 496.191Z" fill="#001B34"/>
<path opacity="0.1" d="M931.22 492.259C931.22 492.259 943.47 492.729 951.47 490.729" stroke="black" stroke-miterlimit="10" stroke-linecap="round"/>
<path opacity="0.1" d="M933.47 497.729C933.47 497.729 946.47 497.729 953.47 495.729" stroke="black" stroke-miterlimit="10" stroke-linecap="round"/>
<path opacity="0.1" d="M939.97 503.039C945.17 502.871 950.35 502.433 955.5 501.729" stroke="black" stroke-miterlimit="10" stroke-linecap="round"/>
<path d="M1202.58 744.83H1094.58C1093.69 744.83 1092.84 744.477 1092.21 743.848C1091.58 743.22 1091.23 742.368 1091.23 741.479C1091.23 740.591 1091.58 739.739 1092.21 739.111C1092.84 738.482 1093.69 738.13 1094.58 738.13H1202.58C1203.02 738.127 1203.46 738.212 1203.87 738.379C1204.27 738.546 1204.64 738.793 1204.96 739.105C1205.27 739.416 1205.51 739.787 1205.68 740.194C1205.85 740.602 1205.93 741.039 1205.93 741.479C1205.92 742.363 1205.56 743.206 1204.93 743.831C1204.31 744.456 1203.47 744.814 1202.58 744.83Z" fill="#61656D"/>
<path d="M1198.08 744.829L1215.97 965.19H1212.37L1185.46 744.809L1198.08 744.829Z" fill="#61656D"/>
<path d="M1098.44 744.829L1080.44 965.21H1084.04L1110.97 744.829H1098.44Z" fill="#61656D"/>
<path d="M1098.44 744.829L1097.92 749.079H1104.1L1082.48 965.19H1084.02L1110.97 744.829H1098.44Z" fill="#3F4249"/>
<path d="M1202.97 829.269H1199.75L1185.46 744.829H1198.08L1215.97 965.19H1214.17L1202.97 829.269Z" fill="#3F4249"/>
<path d="M1140.54 744.829L1143.37 965.19H1146.97L1153.15 744.809L1140.54 744.829Z" fill="#3F4249"/>
<path d="M1137.08 734.831H1088.37V738.191H1137.08V734.831Z" fill="#AFB3B8"/>
<path d="M1137.08 718.03H1088.37V738.19H1137.08V718.03Z" fill="#D7DADC"/>
<path d="M1088.36 718.03H1204.58V738.19H1137.08V721.39H1088.36V718.03Z" fill="#AFB3B8"/>
<path d="M1088.36 718.03H1204.58V738.19H1137.08V721.39H1088.36V718.03Z" fill="#AFB3B8"/>
<path d="M1137.08 734.831H1088.37V738.191H1137.08V734.831Z" fill="#AFB3B8"/>
<path d="M1176.87 725.02H1148.38V732.19H1176.87V725.02Z" fill="#D7DADC"/>
<path d="M1183.97 728.091C1183.97 726.916 1184.32 725.768 1184.97 724.791C1185.62 723.814 1186.55 723.053 1187.64 722.603C1188.72 722.154 1189.92 722.036 1191.07 722.265C1192.22 722.494 1193.28 723.06 1194.11 723.891C1194.94 724.721 1195.51 725.78 1195.74 726.932C1195.97 728.084 1195.85 729.279 1195.4 730.364C1194.95 731.449 1194.19 732.377 1193.21 733.03C1192.23 733.683 1191.08 734.031 1189.91 734.031C1188.33 734.031 1186.82 733.405 1185.71 732.291C1184.6 731.177 1183.97 729.666 1183.97 728.091ZM1185.97 728.091C1185.97 728.861 1186.19 729.614 1186.62 730.256C1187.04 730.898 1187.65 731.401 1188.36 731.701C1189.07 732.001 1189.85 732.085 1190.6 731.942C1191.36 731.8 1192.06 731.437 1192.61 730.899C1193.16 730.362 1193.54 729.674 1193.7 728.921C1193.86 728.168 1193.8 727.385 1193.52 726.668C1193.24 725.952 1192.75 725.335 1192.12 724.894C1191.49 724.453 1190.74 724.209 1189.97 724.191C1189.45 724.18 1188.93 724.273 1188.45 724.464C1187.97 724.655 1187.53 724.94 1187.15 725.303C1186.78 725.666 1186.48 726.1 1186.28 726.578C1186.08 727.057 1185.97 727.571 1185.97 728.091Z" fill="#D7DADC"/>
<path d="M1145.49 701.19H1106.26V718.04H1145.49V701.19Z" fill="#D7DADC"/>
<path d="M1106.26 701.19H1199.85V718.04H1145.49V703.85H1106.26V701.19Z" fill="#AFB3B8"/>
<path d="M1146.29 714.71H1106.29V718.03H1146.29V714.71Z" fill="#AFB3B8"/>
<path d="M1106.26 701.19H1199.85V718.04H1145.49V703.85H1106.26V701.19Z" fill="#AFB3B8"/>
<path d="M1145.49 714.71H1106.26V718.03H1145.49V714.71Z" fill="#AFB3B8"/>
<path d="M1177.54 706.809H1154.6V712.609H1177.54V706.809Z" fill="#D7DADC"/>
<path d="M1183.27 709.281C1183.27 708.335 1183.55 707.411 1184.08 706.625C1184.6 705.839 1185.35 705.226 1186.22 704.864C1187.09 704.503 1188.06 704.408 1188.98 704.592C1189.91 704.777 1190.76 705.232 1191.43 705.901C1192.1 706.569 1192.55 707.421 1192.74 708.348C1192.92 709.275 1192.83 710.236 1192.47 711.11C1192.11 711.983 1191.49 712.73 1190.71 713.255C1189.92 713.78 1189 714.061 1188.05 714.061C1186.78 714.061 1185.57 713.557 1184.67 712.661C1183.77 711.764 1183.27 710.548 1183.27 709.281ZM1184.9 709.281C1184.9 709.904 1185.09 710.513 1185.43 711.031C1185.78 711.549 1186.27 711.952 1186.85 712.191C1187.42 712.429 1188.05 712.492 1188.67 712.37C1189.28 712.248 1189.84 711.948 1190.28 711.508C1190.72 711.067 1191.02 710.506 1191.14 709.895C1191.26 709.284 1191.2 708.651 1190.96 708.075C1190.72 707.499 1190.32 707.008 1189.8 706.661C1189.28 706.315 1188.67 706.131 1188.05 706.131C1187.64 706.131 1187.23 706.212 1186.85 706.37C1186.46 706.529 1186.12 706.761 1185.82 707.053C1185.53 707.346 1185.3 707.693 1185.14 708.075C1184.98 708.457 1184.9 708.867 1184.9 709.281Z" fill="#D7DADC"/>
<path opacity="0.15" d="M1199.85 716.96H1106.26V718.03H1199.85V716.96Z" fill="black"/>
</g>
<defs>
<clipPath id="clip0_160_273">
<rect width="1301.95" height="967.23" fill="white"/>
</clipPath>
</defs>
</svg>
