<svg width="1330" height="826" viewBox="0 0 1330 826" fill="none" xmlns="http://www.w3.org/2000/svg">
<g clip-path="url(#clip0_155_1265)">
<path d="M1261.08 824.1H74.8L0.780016 367.35C-1.89998 350.81 2.39002 333.9 12.63 320.64L224.17 46.7799C235.25 32.4299 252.18 23.8099 270.3 23.2699L1051.51 0.0298816C1075.93 -0.700118 1098.4 13.3199 1108.48 35.5799L1324.11 511.63C1329.7 523.97 1330.99 537.82 1327.78 550.98L1261.08 824.1Z" fill="#F0F8F8"/>
<path d="M1216.64 504.889H719.33V768.549H1216.64V504.889Z" fill="white"/>
<path d="M1204.59 756.48V516.94H731.4V756.48H1204.59Z" fill="#F2F2F2"/>
<path d="M1203.91 756.48V516.94H731.4V756.48H1203.91Z" fill="#F2F2F2"/>
<path d="M1246.66 768.549V504.889H1216.65V768.549H1246.66Z" fill="#E8E8E8"/>
<path d="M1204.59 643.15V630.29H731.4V643.15H1204.59Z" fill="white"/>
<path d="M839.59 525.71H814.4V630.289H839.59V525.71Z" fill="#E8E8E8"/>
<path d="M839.59 630.289H906.92V525.71H839.59V630.289Z" fill="white"/>
<path d="M861.95 537.67H847.76V630.281H861.95V537.67Z" fill="#E8E8E8"/>
<path d="M861.95 630.29H899.88V537.68H861.95V630.29Z" fill="white"/>
<path d="M905.12 630.29H884.1L871.98 543.01H893L905.12 630.29Z" fill="#E8E8E8"/>
<path d="M905.12 630.29H961.31L949.19 543.01H893L905.12 630.29Z" fill="white"/>
<path d="M820.63 756.489H799.61L787.49 669.219H808.51L820.63 756.489Z" fill="#E8E8E8"/>
<path d="M820.63 756.489H876.82L864.7 669.219H808.51L820.63 756.489Z" fill="white"/>
<path d="M1122.5 756.5V729.37H993.38V756.5H1122.5Z" fill="white"/>
<path d="M1084.45 708.21V686.28H993.38V708.21H1084.45Z" fill="white"/>
<path d="M1106.02 729.359V708.21H993.39V729.359H1106.02Z" fill="white"/>
<path d="M1099.88 545.559H1079.47V630.289H1099.88V545.559Z" fill="#E8E8E8"/>
<path d="M1099.88 630.289H1154.43V545.559H1099.88V630.289Z" fill="white"/>
<path d="M1144.99 555.251H1125.4V630.291H1144.99V555.251Z" fill="#E8E8E8"/>
<path d="M1144.99 630.291H1178.49V555.251H1144.99V630.291Z" fill="white"/>
<path d="M1084.45 704.559H993.38V708.219H1084.45V704.559Z" fill="#E8E8E8"/>
<path d="M1106.01 725.71H993.38V729.37H1106.01V725.71Z" fill="#E8E8E8"/>
<path d="M1122.5 752.84H993.38V756.5H1122.5V752.84Z" fill="#E8E8E8"/>
<path d="M1239.48 768.549L1244.11 819.94C1244.47 821.81 1243.04 823.59 1241.17 823.59C1239.92 823.59 1238.77 822.79 1238.32 821.54L1224.87 768.549H1239.48Z" fill="white"/>
<path d="M1237.78 798.469L1232.17 797.129L1224.96 768.629H1239.57L1244.2 820.02C1244.47 821.44 1243.67 822.87 1242.42 823.4L1237.78 798.469Z" fill="#E8E8E8"/>
<path d="M1187.02 768.549L1191.65 819.94C1192.01 821.81 1190.58 823.59 1188.71 823.59C1187.46 823.59 1186.31 822.79 1185.86 821.54L1172.41 768.549H1187.02Z" fill="white"/>
<path d="M1182.12 774.249L1173.75 772.649L1172.32 768.549H1186.93L1191.56 819.94C1191.83 821.36 1191.03 822.79 1189.78 823.32L1182.12 774.249Z" fill="#E8E8E8"/>
<path d="M797.99 768.549L793.36 819.94C793 821.81 794.43 823.59 796.3 823.59C797.55 823.59 798.7 822.79 799.15 821.54L812.6 768.549H797.99Z" fill="white"/>
<path d="M800.57 795.89L795.58 794.64L797.98 768.54H812.59L799.14 821.53C798.69 822.78 797.54 823.58 796.29 823.58C796.2 823.58 796.2 823.58 796.11 823.58L800.57 795.89Z" fill="#E8E8E8"/>
<path d="M744.1 768.549L739.47 819.94C739.11 821.81 740.54 823.59 742.41 823.59C743.66 823.59 744.81 822.79 745.26 821.54L758.71 768.549H744.1Z" fill="white"/>
<path d="M749.8 773L743.39 771.84L744.1 768.54H758.71L745.26 821.53C744.81 822.78 743.66 823.58 742.41 823.58C742.32 823.58 742.32 823.58 742.23 823.58L749.8 773Z" fill="#E8E8E8"/>
<path d="M484.37 363.751L509.42 287.851L467.42 281.581L445.17 358.111L447.13 364.361C452.91 382.831 479.19 382.391 484.37 363.751Z" fill="#F99A9A"/>
<path d="M426.06 276.171L396.83 233.951C396.25 232.791 396.61 231.391 397.66 230.631L397.77 230.551C399 229.661 400.43 229.711 401.54 231.271C404.49 235.391 412.06 244.441 412.06 244.441C412.06 244.441 402.88 230.191 400.42 225.081C399.9 223.991 400.18 222.701 401.1 221.921L401.11 221.911C402.38 220.841 404.3 221.181 405.12 222.621C408.44 228.451 416.31 239.901 416.31 239.901C410.91 228.981 406.77 222.821 405.66 219.671C405.27 218.561 405.67 217.331 406.63 216.641C407.93 215.721 409.74 216.141 410.5 217.531L420.75 236.391L424.35 228.141L439.75 231.511C441.24 231.891 442.09 233.471 441.56 234.921C441.16 236.041 440.04 236.751 438.85 236.631L430.07 235.761L428.9 243.631C428.81 244.221 428.92 244.831 429.2 245.361C429.2 245.361 433.45 250.051 436.22 250.371C437.73 250.331 438.24 249.181 438.25 247.671L438.26 246.061C438.05 234.141 445.58 236.861 445.58 236.861L446.32 249.681C446.32 249.681 450.87 259.661 445.77 266.341L482.79 336.371C488.6 347.361 484.4 360.981 473.4 366.791C466.46 370.461 458.29 370.171 451.74 366.441C448.44 364.561 446.09 361.361 445.22 357.671L430.4 294.651L426.06 276.171Z" fill="#F99A9A"/>
<path opacity="0.15" d="M422.11 238.791L420.76 236.391L424.36 228.151L422.11 238.791Z" fill="black"/>
<path opacity="0.15" d="M417.64 238.589L416.32 239.899L405.97 220.439C405.53 219.619 405.35 218.579 405.75 217.739L405.94 217.379L417.64 238.589Z" fill="black"/>
<path opacity="0.15" d="M412.07 244.441C412.07 244.441 402.81 229.871 400.28 224.691C399.98 224.071 400.34 223.001 400.34 223.001L413.4 243.111L412.07 244.441Z" fill="black"/>
<path opacity="0.15" d="M441.57 237.129C441.57 237.129 440.49 237.479 439.46 239.329C437.47 242.899 438.9 248.359 437.73 249.689C436.56 251.009 434.82 249.909 434.26 249.619C432.56 248.709 430.24 246.429 430.24 246.429L434.28 250.709C435.82 252.349 438.58 252.029 439.6 250.019C439.61 250.009 439.61 249.999 439.62 249.979C440.21 248.799 439.24 244.889 439.34 243.869C439.44 242.839 439.37 239.419 441.57 237.129Z" fill="black"/>
<path opacity="0.15" d="M482.63 339.85L462.52 298.02L465.93 286.68L484.59 339.04C484.75 339.49 484.59 340 484.19 340.27C483.65 340.64 482.92 340.44 482.63 339.85Z" fill="black"/>
<path d="M758.81 381.911L665.89 352.491C661.99 351.171 658.67 348.531 656.51 345.021L629.31 300.261L669.23 285.831L690.56 332.511L763.05 367.351" fill="#F99A9A"/>
<path opacity="0.15" d="M748.53 384.189L750.89 378.449C736.09 373.259 690.34 352.009 672.84 345.099C668.04 343.209 664.05 339.719 661.51 335.229L639.59 297.059L632.07 304.799L654.48 342.729C657.2 347.269 661.43 350.709 666.43 352.439L748.53 384.189Z" fill="black"/>
<path d="M590.56 176.76L590.27 216.04C590.27 216.99 589.98 217.95 589.41 218.71L589.98 220.2C580.45 234.41 559.85 236.35 546.69 225.48C545.36 224.34 544.69 222.62 544.97 220.9L552.12 173.61L590.56 176.76Z" fill="#F99A9A"/>
<path d="M547.94 157.31C547.94 157.31 540.12 208.99 568.63 211.08C596.47 213.18 597.33 160.93 597.33 160.93L598.09 145.96L562.24 139.67L553.18 144.34L547.94 157.31Z" fill="#F99A9A"/>
<path opacity="0.15" d="M547.27 206.8L549.37 192.59C551.94 201.74 557.28 209.37 566.63 210.9H566.53C567.2 211 567.86 211.09 568.53 211.19C575.97 211.76 582.16 208.33 586.84 200.99C587.03 200.7 587.41 200.61 587.7 200.8C587.99 200.99 588.08 201.37 587.89 201.66C582.93 209.48 576.35 213.1 568.44 212.53C566.72 212.43 565.1 212.05 563.58 211.58C558.52 212.13 552.7 210.89 547.27 206.8Z" fill="black"/>
<path d="M554.71 145.771C554.71 145.771 545.65 139.761 541.36 150.061C537.74 158.741 543.84 168.181 543.84 168.181L549.08 167.611C551.27 167.511 552.8 166.471 552.99 164.371L554.71 145.771Z" fill="#21252B"/>
<path d="M548.22 139.481C547.46 149.301 555.85 151.871 559.28 152.161L587.41 154.541C589.7 154.731 591.41 156.731 591.32 159.021L590.84 167.981C590.74 169.221 591.6 170.271 592.84 170.461L594.56 170.651L596.47 173.031C607.53 170.361 612.11 138.991 591.8 132.701C589.7 132.031 587.7 130.411 586.75 128.411C583.79 122.311 571.69 120.691 565.58 127.551C564.25 129.081 562.72 129.651 560.72 129.651C553.37 129.471 548.6 134.051 548.22 139.481Z" fill="#21252B"/>
<path d="M594.47 173.71C594.85 170.09 599.14 168.18 602 170.56L602.1 170.66C606.96 174.86 603.82 188.01 593.14 186.87L594.47 173.71Z" fill="#F99A9A"/>
<path d="M541.36 166.75L541.46 166.65C544.61 164.74 548.52 167.22 548.42 170.85L547.84 183.44C537.07 183.05 536.02 170.18 541.36 166.75Z" fill="#F99A9A"/>
<path d="M593.13 175.329C593.03 175.999 593.61 176.569 594.27 176.659C594.94 176.759 595.6 176.279 595.7 175.709L596.94 167.219L593.41 167.319L593.13 175.329Z" fill="#21252B"/>
<path d="M546.22 171.9C546.12 172.57 546.7 173.14 547.36 173.23C548.03 173.33 548.69 172.85 548.79 172.28L550.03 163.79L546.5 163.89L546.22 171.9Z" fill="#21252B"/>
<path d="M559.09 153.4C559.95 153.5 560.42 153.4 560.52 153.4C560.81 153.4 561.09 153.11 561.09 152.73C561.09 152.44 560.8 152.16 560.42 152.16C560.32 152.16 554.7 152.45 552.32 148.73C552.13 148.44 551.75 148.35 551.46 148.54C551.17 148.73 551.08 149.11 551.27 149.4C553.37 152.54 557.09 153.31 559.09 153.4Z" fill="#F99A9A"/>
<path d="M580.26 181.05C581.63 181.05 582.74 179.94 582.74 178.57C582.74 177.2 581.63 176.09 580.26 176.09C578.89 176.09 577.78 177.2 577.78 178.57C577.78 179.94 578.89 181.05 580.26 181.05Z" fill="#21252B"/>
<path d="M581.4 178.859C581.72 178.859 581.97 178.599 581.97 178.289C581.97 177.969 581.71 177.719 581.4 177.719C581.09 177.719 580.83 177.979 580.83 178.289C580.83 178.609 581.08 178.859 581.4 178.859Z" fill="white"/>
<path d="M561.19 179.621C562.56 179.621 563.67 178.511 563.67 177.141C563.67 175.771 562.56 174.661 561.19 174.661C559.82 174.661 558.71 175.771 558.71 177.141C558.71 178.511 559.82 179.621 561.19 179.621Z" fill="#21252B"/>
<path d="M562.33 177.519C562.65 177.519 562.9 177.259 562.9 176.949C562.9 176.639 562.64 176.379 562.33 176.379C562.02 176.379 561.76 176.639 561.76 176.949C561.76 177.269 562.01 177.519 562.33 177.519Z" fill="white"/>
<g opacity="0.45">
<path opacity="0.3" d="M569.48 190.299L567.48 190.109C567.1 190.109 566.81 189.729 566.81 189.349C566.81 188.969 567.19 188.679 567.57 188.679L569.57 188.869C570.43 188.969 571.1 188.299 571.19 187.439C571.28 186.579 570.62 185.909 569.76 185.819C569.38 185.819 569.09 185.439 569.09 185.059C569.09 184.679 569.47 184.389 569.85 184.389C571.47 184.489 572.71 185.919 572.52 187.539C572.54 189.249 571.11 190.399 569.48 190.299Z" fill="black"/>
</g>
<path d="M550.51 174.09L550.32 176.85C550.03 182.19 554.13 186.77 559.47 187.05C564.81 187.34 569.39 183.24 569.67 177.9L569.86 175.14C569.96 174.28 569.67 173.61 569.29 172.95L573.01 173.14C572.53 173.71 572.15 174.47 572.15 175.24L571.96 178C571.67 183.34 575.77 187.92 581.11 188.2C586.45 188.49 591.03 184.39 591.31 179.05L591.5 176.29C591.6 174.29 590.17 172.57 588.16 172.48L576.05 171.81H575.95L566.51 171.24L565.08 171.14L554.31 170.57C552.32 170.47 550.61 171.9 550.51 174.09ZM575.78 173.23H575.88L587.99 173.9C589.13 174 590.09 175.04 589.99 176.19L589.8 178.95C589.61 183.43 585.7 186.96 581.12 186.67C576.64 186.48 573.11 182.57 573.4 177.99L573.59 175.23C573.58 174 574.63 173.14 575.78 173.23ZM551.85 174C551.95 172.86 552.99 171.9 554.14 172L564.91 172.57L566.34 172.67C567.48 172.77 568.44 173.81 568.34 174.96L568.15 177.72C567.96 182.2 564.05 185.73 559.47 185.44C554.99 185.25 551.46 181.34 551.75 176.76L551.85 174Z" fill="#21252B"/>
<g opacity="0.45">
<path opacity="0.3" d="M597.13 180.581C597.51 180.581 597.8 180.291 597.89 179.911L598.08 178.381C598.27 176.761 598.75 175.621 599.41 175.041C599.98 174.561 600.55 174.661 600.55 174.661C600.93 174.761 601.31 174.471 601.41 174.091C601.51 173.711 601.22 173.331 600.84 173.231C600.74 173.231 599.7 173.041 598.55 173.801C597.5 174.561 596.83 176.091 596.64 178.091L596.45 179.621C596.47 180.101 596.75 180.481 597.13 180.581Z" fill="black"/>
</g>
<g opacity="0.45">
<path opacity="0.3" d="M544.7 176.67C544.32 176.67 544.03 176.29 544.03 175.91V174.38C544.13 172.76 543.84 171.62 543.17 170.95C542.69 170.38 542.12 170.38 542.03 170.38C541.65 170.38 541.36 170.09 541.27 169.71C541.27 169.33 541.56 169.04 541.94 168.95C542.04 168.95 543.18 168.95 544.04 169.9C544.99 170.85 545.37 172.38 545.28 174.48V176.01C545.46 176.38 545.17 176.67 544.7 176.67Z" fill="black"/>
</g>
<g opacity="0.45">
<path opacity="0.3" d="M564.82 198.18C564.88 198.29 564.79 198.26 564.82 198.18C567 199.08 568.01 199.51 568.01 199.51C568.44 199.65 568.78 199.48 569.01 199.07C569.15 198.64 569 198.21 568.57 198.07C568.57 198.07 567.56 197.65 565.47 196.77C565.04 196.63 564.61 196.78 564.5 197.12C564.33 197.64 564.47 198.07 564.82 198.18Z" fill="black"/>
</g>
<g opacity="0.45">
<path opacity="0.3" d="M564.62 194.68C570.2 197.45 573.91 195.14 575.36 193.9C575.64 193.61 575.67 193.24 575.41 192.87C575.12 192.59 574.75 192.56 574.38 192.82C573.01 194.09 568.99 196.49 562.68 191.86C562.36 191.66 561.96 191.72 561.68 192.01C561.48 192.33 561.54 192.73 561.83 193.01C562.84 193.72 563.79 194.32 564.62 194.68Z" fill="black"/>
</g>
<path d="M624.41 428.401L613.8 774.311H581.86L564.04 478.741C563.85 475.311 560.99 472.641 557.56 472.641C554.13 472.641 551.27 475.311 551.08 478.841L534.86 774.301H502.92L493.1 431.961L624.41 428.401Z" fill="#3F4249"/>
<path d="M610.47 794.331L611.33 766.491H584.25L585.49 795.181L610.47 794.331Z" fill="#F99A9A"/>
<path opacity="0.15" d="M584.54 774.3L585.4 795.18L591.88 794.99L591.69 782.69C591.69 780.69 593.02 778.97 594.93 778.49L611.14 774.29L584.54 774.3Z" fill="black"/>
<path d="M506.54 794.331L505.69 766.491H532.86L531.62 795.181L506.54 794.331Z" fill="#F99A9A"/>
<path d="M585.49 819.5V795.19C585.49 787.85 591.5 781.84 598.84 781.84H599.41C605.42 781.84 610.66 786.04 611.8 791.95C612.47 795.48 614.09 798.72 616.38 801.39L620.19 805.87C623.43 809.68 625.24 814.55 625.24 819.5H585.49Z" fill="#242830"/>
<path d="M608.47 794.8C608.66 794.8 608.85 794.7 608.95 794.51C609.05 794.22 609.05 793.94 608.76 793.84C600.94 789.45 594.08 793.84 594.08 793.84C593.89 794.03 593.79 794.32 593.98 794.51C594.17 794.7 594.46 794.8 594.65 794.61C594.75 794.61 601.04 790.51 608.28 794.61C608.28 794.8 608.37 794.8 608.47 794.8Z" fill="white"/>
<path d="M610.09 798.24C610.28 798.24 610.47 798.14 610.57 797.95C610.67 797.66 610.67 797.38 610.38 797.28C602.56 792.89 595.7 797.28 595.7 797.28C595.51 797.47 595.41 797.76 595.6 797.95C595.79 798.14 596.08 798.24 596.27 798.05C596.37 798.05 602.66 793.95 609.9 798.05C609.9 798.24 609.99 798.24 610.09 798.24Z" fill="white"/>
<path d="M611.8 801.861C611.99 801.861 612.18 801.761 612.28 801.571C612.38 801.281 612.38 801.001 612.09 800.901C604.27 796.511 597.41 800.901 597.41 800.901C597.22 801.091 597.12 801.381 597.31 801.571C597.5 801.761 597.79 801.861 597.98 801.671C598.08 801.671 604.37 797.571 611.61 801.671C611.71 801.861 611.8 801.861 611.8 801.861Z" fill="white"/>
<path opacity="0.5" d="M623.53 824.55H587.2C586.25 824.55 585.48 823.79 585.48 822.83V819.59H625.24V822.83C625.25 823.79 624.49 824.55 623.53 824.55Z" fill="black"/>
<path d="M614.47 774.301L614.76 763.241H580.44L581.1 774.301H614.47Z" fill="#448CC7"/>
<path d="M580.44 763.241L581.1 774.301H614.47L614.76 763.241H580.44Z" fill="#21252B"/>
<path opacity="0.15" d="M557.55 472.629C560.98 472.629 563.84 475.299 564.03 478.729L581.19 763.239H591.39L587.29 491.509C587.1 481.019 578.61 472.629 568.13 472.629H557.55Z" fill="black"/>
<path opacity="0.2" d="M581.1 774.301L580.44 763.241H591.4L591.59 774.301H581.1Z" fill="black"/>
<path opacity="0.15" d="M505.97 774.3L506.54 794.32L517.89 794.7L517.7 781.16C517.7 779.92 518.46 778.68 519.7 778.3L532.48 774.2H505.97V774.3Z" fill="black"/>
<path opacity="0.15" d="M493.18 434.5L502.92 774.3H505.97L505.69 766.49H517.51L512.51 433.37L493.18 434.5Z" fill="black"/>
<path d="M531.62 819.5V795.19C531.62 787.85 525.61 781.84 518.27 781.84H517.7C511.69 781.84 506.45 786.04 505.31 791.95C504.64 795.48 503.02 798.72 500.73 801.39L496.92 805.87C493.68 809.68 491.87 814.55 491.87 819.5H531.62Z" fill="#242830"/>
<path d="M508.55 794.799C508.65 794.799 508.74 794.799 508.84 794.699C516.18 790.599 522.47 794.599 522.47 794.699C522.66 794.889 523.04 794.799 523.14 794.599C523.33 794.409 523.24 794.029 523.04 793.929C522.94 793.929 516.18 789.449 508.36 793.929C508.07 794.029 508.07 794.409 508.17 794.599C508.26 794.709 508.45 794.799 508.55 794.799Z" fill="white"/>
<path d="M507.02 798.241C507.12 798.241 507.21 798.241 507.31 798.141C514.65 794.041 520.94 798.041 520.94 798.141C521.13 798.331 521.51 798.241 521.61 798.041C521.8 797.851 521.71 797.471 521.51 797.371C521.41 797.371 514.65 792.891 506.83 797.371C506.54 797.471 506.54 797.851 506.64 798.041C506.64 798.141 506.83 798.241 507.02 798.241Z" fill="white"/>
<path d="M505.21 801.86C505.31 801.86 505.4 801.86 505.5 801.76C512.84 797.66 519.13 801.66 519.13 801.76C519.32 801.95 519.7 801.86 519.8 801.66C519.99 801.47 519.9 801.09 519.7 800.99C519.6 800.99 512.84 796.51 505.02 800.99C504.73 801.09 504.73 801.47 504.83 801.66C504.92 801.76 505.02 801.86 505.21 801.86Z" fill="white"/>
<path d="M493.58 824.55H529.91C530.86 824.55 531.63 823.79 531.63 822.83V819.59H491.78V822.83C491.77 823.79 492.62 824.55 493.58 824.55Z" fill="#3F4249"/>
<path opacity="0.5" d="M623.53 824.55H587.2C586.25 824.55 585.48 823.79 585.48 822.83V819.59H625.24V822.83C625.25 823.79 624.49 824.55 623.53 824.55Z" fill="black"/>
<path opacity="0.8" d="M623.53 824.55H587.2C586.25 824.55 585.48 823.79 585.48 822.83V819.59H625.24V822.83C625.25 823.79 624.49 824.55 623.53 824.55Z" fill="black"/>
<path opacity="0.8" d="M493.58 824.55H529.91C530.86 824.55 531.63 823.79 531.63 822.83V819.59H491.78V822.83C491.77 823.79 492.62 824.55 493.58 824.55Z" fill="black"/>
<path d="M536.29 763.241L535.62 774.301H502.25L502.06 763.241H536.29Z" fill="#21252B"/>
<path opacity="0.2" d="M517.51 763.241V774.301H502.25L502.06 763.241H517.51Z" fill="black"/>
<path d="M590.21 216.77L619.06 224.46C619.71 224.61 620.35 224.78 621 224.95C636.2 229.07 648.59 240.1 655.07 254.46L669.23 285.84L632.38 304.65L621.87 289.8" fill="white"/>
<path d="M485.78 359.47L487.95 427.51C488.06 431.26 491.03 434.31 494.78 434.49L621.98 432.29C625.84 432.48 629.17 429.59 629.51 425.74L624.5 285.37L664.37 292.25L684.26 260.7L652.32 238.36C643.97 232.52 634.64 228.23 624.78 225.68L590.22 216.76C590.22 216.76 583.97 232.12 567.63 231.46C546.12 230.6 545.75 215.86 545.75 215.86L505.63 222.67C490.15 225.3 477.75 236.95 474.17 252.25L462.75 297.28L503.16 308.3L510.4 285.02L485.78 359.47Z" fill="#448CC7"/>
<path opacity="0.2" d="M632.07 304.799L621.98 289.789L622.82 269.879L641.32 300.079L632.07 304.799Z" fill="black"/>
<path d="M614.78 332.62L637.23 366.7L717.85 301.77" stroke="white" stroke-width="23" stroke-miterlimit="10" stroke-linecap="round" stroke-linejoin="round"/>
<path d="M976.14 143.61C976.14 105.9 947.66 74.83 910.92 70.78V70.29H902.83C862.37 70.29 829.51 103.14 829.51 143.61C829.51 184.08 862.36 216.93 902.83 216.93L910.92 216.44C947.66 212.39 976.14 181.32 976.14 143.61Z" fill="#B0B4B9"/>
<path d="M896.92 216.93C937.41 216.93 970.24 184.1 970.24 143.61C970.24 103.12 937.41 70.29 896.92 70.29C856.43 70.29 823.6 103.12 823.6 143.61C823.6 184.1 856.43 216.93 896.92 216.93Z" fill="#84888F"/>
<path d="M896.92 208.829C932.94 208.829 962.14 179.629 962.14 143.609C962.14 107.589 932.94 78.3889 896.92 78.3889C860.9 78.3889 831.7 107.589 831.7 143.609C831.7 179.629 860.9 208.829 896.92 208.829Z" fill="white"/>
<path d="M896.92 208.829C932.94 208.829 962.14 179.629 962.14 143.609C962.14 107.589 932.94 78.3889 896.92 78.3889C860.9 78.3889 831.7 107.589 831.7 143.609C831.7 179.629 860.9 208.829 896.92 208.829Z" fill="#84888F"/>
<path opacity="0.9" d="M896.92 208.829C932.94 208.829 962.14 179.629 962.14 143.609C962.14 107.589 932.94 78.3889 896.92 78.3889C860.9 78.3889 831.7 107.589 831.7 143.609C831.7 179.629 860.9 208.829 896.92 208.829Z" fill="white"/>
<path d="M896.94 78.3789C898.07 78.3789 899.21 78.3789 900.5 78.5389C866.19 80.3189 838.84 108.809 838.84 143.599C838.84 178.389 866.19 206.879 900.5 208.659C899.37 208.659 898.23 208.819 896.94 208.819C860.85 208.819 831.72 179.689 831.72 143.599C831.72 107.519 860.85 78.3789 896.94 78.3789Z" fill="#B0B4B9"/>
<path d="M898.77 148.931L896.93 100.761C896.87 98.9511 898.33 97.311 900.14 97.241C901.95 97.181 903.59 98.641 903.66 100.451L905.19 141.901L932.76 141.141C934.57 141.081 936.21 142.541 936.21 144.491C936.27 146.301 934.81 147.941 932.86 147.941L898.77 148.931Z" fill="#448CC7"/>
<path opacity="0.7" fill-rule="evenodd" clip-rule="evenodd" d="M859.8 95.69L954.44 174.36C954.44 174.36 956.98 169.1 957.69 167.34C958.3 165.84 959.71 161.34 959.71 161.34L902.66 78.51C902.66 78.51 881.78 75.78 859.8 95.69Z" fill="white"/>
<path opacity="0.7" fill-rule="evenodd" clip-rule="evenodd" d="M846.43 174.36L913.09 206.81C913.09 206.81 907.19 209.12 898.15 208.5C883.61 207.51 861.46 200.34 846.43 174.36Z" fill="white"/>
<path d="M179.95 552.641H111.78C109.85 552.641 108.33 551.121 108.33 549.191C108.33 547.261 109.85 545.741 111.78 545.741H179.95V552.641Z" fill="#B0B4B9"/>
<path d="M189.39 549.29H120.61V761.12H189.39V549.29Z" fill="#B0B4B9"/>
<path d="M397.67 549.29H187.26V761.12H397.67V549.29Z" fill="#D8DBDD"/>
<path d="M197.93 578.951L387.82 578.751V744.961H197.93V578.951ZM386.29 580.481H199.45V743.441H386.29V580.481Z" fill="#B0B4B9"/>
<path d="M405.49 552.641H179.84C177.91 552.641 176.39 551.121 176.39 549.191C176.39 547.261 177.91 545.741 179.84 545.741H405.49C407.42 545.741 408.94 547.261 408.94 549.191C408.84 551.121 407.32 552.641 405.49 552.641Z" fill="#D8DBDD"/>
<path d="M387.82 660.84H197.93V662.36H387.82V660.84Z" fill="#B0B4B9"/>
<path d="M301.05 605.471C303.97 605.471 306.33 603.111 306.33 600.191C306.33 597.271 303.97 594.911 301.05 594.911C298.13 594.911 295.77 597.271 295.77 600.191C295.77 603.111 298.13 605.471 301.05 605.471Z" fill="#B0B4B9"/>
<path opacity="0.15" d="M299.12 600.191C299.12 597.851 300.64 595.921 302.68 595.211C302.17 595.011 301.56 594.911 300.95 594.911C298 594.911 295.67 597.251 295.67 600.191C295.67 603.131 298.01 605.471 300.95 605.471C301.56 605.471 302.07 605.371 302.68 605.171C300.64 604.461 299.12 602.531 299.12 600.191Z" fill="black"/>
<path d="M301.05 687.25C303.97 687.25 306.33 684.89 306.33 681.97C306.33 679.05 303.97 676.69 301.05 676.69C298.13 676.69 295.77 679.05 295.77 681.97C295.77 684.89 298.13 687.25 301.05 687.25Z" fill="#B0B4B9"/>
<path opacity="0.15" d="M299.12 681.97C299.12 679.63 300.64 677.7 302.68 676.99C302.17 676.79 301.56 676.69 300.95 676.69C298 676.69 295.67 679.03 295.67 681.97C295.67 684.91 298.01 687.25 300.95 687.25C301.56 687.25 302.07 687.15 302.68 686.95C300.64 686.24 299.12 684.31 299.12 681.97Z" fill="black"/>
<path d="M176.39 559.749L187.26 552.639H397.67V555.889L176.39 559.749Z" fill="#B0B4B9"/>
<path d="M134.12 761.12L128.84 819.74C128.43 821.87 130.06 823.91 132.19 823.91C133.61 823.91 134.93 823 135.44 821.57L150.78 761.12H134.12Z" fill="#D8DBDD"/>
<path d="M136.06 795.259L142.46 793.739L150.69 761.229H134.03L128.75 819.85C128.45 821.48 129.36 823.1 130.78 823.71L136.06 795.259Z" fill="#B0B4B9"/>
<path d="M193.97 761.12L188.69 819.74C188.28 821.87 189.91 823.91 192.04 823.91C193.46 823.91 194.78 823 195.29 821.57L210.63 761.12H193.97Z" fill="#D8DBDD"/>
<path d="M199.55 767.62L209.1 765.79L210.73 761.12H194.07L188.79 819.74C188.49 821.37 189.4 822.99 190.82 823.6L199.55 767.62Z" fill="#B0B4B9"/>
<path d="M325.84 761.12L331.12 819.74C331.53 821.87 329.9 823.91 327.77 823.91C326.35 823.91 325.03 823 324.52 821.57L309.18 761.12H325.84Z" fill="#D8DBDD"/>
<path d="M322.89 792.31L328.58 790.89L325.84 761.12H309.18L324.52 821.57C325.03 822.99 326.35 823.91 327.77 823.91C327.87 823.91 327.87 823.91 327.97 823.91L322.89 792.31Z" fill="#B0B4B9"/>
<path d="M387.31 761.12L392.59 819.74C393 821.87 391.37 823.91 389.24 823.91C387.82 823.91 386.5 823 385.99 821.57L370.65 761.12H387.31Z" fill="#D8DBDD"/>
<path d="M380.8 766.2L388.12 764.88L387.31 761.12H370.65L385.99 821.57C386.5 822.99 387.82 823.91 389.24 823.91C389.34 823.91 389.34 823.91 389.44 823.91L380.8 766.2Z" fill="#B0B4B9"/>
<path d="M252.21 522.17H218.12V545.73H252.21V522.17Z" fill="#D8DBDD"/>
<path d="M252.21 522.17H218.12H161.32V528.45V545.73H218.12V528.45H252.21V522.17Z" fill="#B0B4B9"/>
<path d="M295.09 545.73H273.76C270.51 545.73 267.87 543.09 267.87 539.84C267.87 536.59 270.51 533.95 273.76 533.95H295.1V545.73H295.09Z" fill="#B0B4B9"/>
<path d="M359.31 545.73H295.1V533.95H359.31C362.56 533.95 365.2 536.59 365.2 539.84C365.2 543.1 362.56 545.73 359.31 545.73Z" fill="#D8DBDD"/>
<path d="M317.2 536.84H288.33V533.96H317.2C318 533.96 318.64 534.61 318.64 535.4C318.65 536.19 318 536.84 317.2 536.84Z" fill="#B0B4B9"/>
<path d="M200.22 90.52H355.69C357.62 90.52 359.19 92.09 359.19 94.02V451.63C359.19 453.56 357.62 455.13 355.69 455.13H200.22C198.29 455.13 196.72 453.56 196.72 451.63V94.01C196.72 92.08 198.29 90.52 200.22 90.52Z" fill="#B0B4B9"/>
<path d="M207.27 90.52H362.74C364.67 90.52 366.24 92.09 366.24 94.02V451.63C366.24 453.56 364.67 455.13 362.74 455.13H207.27C205.34 455.13 203.77 453.56 203.77 451.63V94.01C203.77 92.08 205.33 90.52 207.27 90.52Z" fill="#D8DBDD"/>
<path d="M238.09 156.241H231.48V326.071H238.09V156.241Z" fill="#B0B4B9"/>
<path d="M352.11 181.39V174.78H215.17V181.39H352.11Z" fill="#B0B4B9"/>
<path d="M275.82 192.639H246.73V221.729H275.82V192.639Z" fill="#B0B4B9"/>
<path d="M319.63 229.87H290.54V258.96H319.63V229.87Z" fill="#B0B4B9"/>
<path d="M355.06 196.43H325.97V225.52H355.06V196.43Z" fill="#B0B4B9"/>
<path d="M344.91 273.821H315.82V302.911H344.91V273.821Z" fill="#B0B4B9"/>
<path d="M755.05 256.521C755.05 253.681 755.61 250.971 756.59 248.481C733.41 233.661 703.58 227.831 676.1 227.831C648.62 227.831 618.79 233.661 595.61 248.481C596.59 250.971 597.15 253.681 597.15 256.521C597.15 268.611 587.37 278.411 575.3 278.461C575.84 313.891 579.31 356.111 596.32 388.501C614.68 423.461 651.42 447.721 676.1 458.881C700.78 447.721 737.52 423.461 755.88 388.501C772.89 356.111 776.36 313.891 776.9 278.461C764.82 278.411 755.05 268.611 755.05 256.521Z" fill="#448CC7"/>
<path opacity="0.5" d="M755.05 256.521C755.05 253.681 755.61 250.971 756.59 248.481C733.41 233.661 703.58 227.831 676.1 227.831C648.62 227.831 618.79 233.661 595.61 248.481C596.59 250.971 597.15 253.681 597.15 256.521C597.15 268.611 587.37 278.411 575.3 278.461C575.84 313.891 579.31 356.111 596.32 388.501C614.68 423.461 651.42 447.721 676.1 458.881C700.78 447.721 737.52 423.461 755.88 388.501C772.89 356.111 776.36 313.891 776.9 278.461C764.82 278.411 755.05 268.611 755.05 256.521Z" fill="white"/>
<path d="M676.09 440.59C652.65 428.64 624.99 407.66 610.9 380.83C596.92 354.23 593.16 318.98 592.1 291C604.62 284.83 613.34 272.03 613.61 257.24C630.77 248.85 652.53 244.29 676.09 244.29C699.65 244.29 721.41 248.84 738.57 257.24C738.85 272.03 747.56 284.83 760.08 291C759.02 318.97 755.25 354.22 741.28 380.83C727.19 407.66 699.53 428.64 676.09 440.59Z" fill="#448CC7"/>
<path d="M676.09 440.59C652.65 428.64 624.99 407.66 610.9 380.83C596.92 354.23 593.16 318.98 592.1 291C604.62 284.83 613.34 272.03 613.61 257.24C630.77 248.85 652.53 244.29 676.09 244.29C699.65 244.29 721.41 248.84 738.57 257.24C738.85 272.03 747.56 284.83 760.08 291C759.02 318.97 755.25 354.22 741.28 380.83C727.19 407.66 699.53 428.64 676.09 440.59Z" fill="#448CC7"/>
<path opacity="0.7" d="M676.09 434.329C654.15 423.139 628.25 403.499 615.06 378.379C601.98 353.469 598.45 320.479 597.46 294.289C609.19 288.509 617.34 276.529 617.6 262.679C633.67 254.819 654.04 250.559 676.09 250.559C698.14 250.559 718.52 254.819 734.58 262.679C734.84 276.519 743 288.509 754.72 294.289C753.73 320.479 750.2 353.479 737.12 378.379C723.93 403.499 698.04 423.139 676.09 434.329Z" fill="white"/>
<path d="M733.46 306.72L725.14 298.4C724.22 297.59 723.06 297.19 721.93 297.19H715.18L716.33 300.99L669.93 347.61L649.6 327.28C647.75 325.66 644.98 325.66 643.36 327.28L635.04 335.6C633.42 337.45 633.42 340.22 635.04 341.84L664.76 371.56L663.03 374.88H669.7C670.83 374.89 672 374.43 672.93 373.5L733.46 312.97C735.08 311.11 735.08 308.34 733.46 306.72Z" fill="#448CC7"/>
<path opacity="0.5" d="M733.46 306.72L725.14 298.4C724.22 297.59 723.06 297.19 721.93 297.19H715.18L716.33 300.99L669.93 347.61L649.6 327.28C647.75 325.66 644.98 325.66 643.36 327.28L635.04 335.6C633.42 337.45 633.42 340.22 635.04 341.84L664.76 371.56L663.03 374.88H669.7C670.83 374.89 672 374.43 672.93 373.5L733.46 312.97C735.08 311.11 735.08 308.34 733.46 306.72Z" fill="white"/>
<path d="M760.09 291.031C760.09 291.021 760.09 291.011 760.09 291.011C759.77 290.851 759.46 290.671 759.14 290.501C759.45 290.681 759.77 290.851 760.09 291.031Z" fill="#FFD16E"/>
<path d="M660.16 373.479L628.51 341.829C626.89 340.209 626.89 337.439 628.51 335.589L636.83 327.269C638.45 325.649 641.22 325.649 643.07 327.269L663.4 347.599L712.37 298.389C713.99 296.769 716.76 296.769 718.61 298.389L726.93 306.709C728.55 308.329 728.55 311.099 726.93 312.949L666.4 373.479C664.55 375.329 661.78 375.329 660.16 373.479Z" fill="white"/>
<path d="M771.21 295.98C770.33 294.31 771.22 292.25 773.04 291.75L784.39 288.63C785.51 288.32 786.68 288.93 787.07 290.02L788.3 293.48C788.79 294.85 787.85 296.31 786.41 296.43L774.08 297.53C772.9 297.65 771.77 297.03 771.21 295.98Z" fill="#F99A9A"/>
<path d="M767.48 308.8C767.46 306.8 769.09 305.18 771.09 305.22L772.48 305.25C772.55 305.39 772.68 305.5 772.85 305.53L780.06 306.71C781.47 306.99 783.28 307.29 784.7 307.15L787.87 306.74C787.89 306.74 787.9 306.73 787.92 306.73C788 306.71 788.06 306.67 788.12 306.63C788.24 306.82 788.34 307.04 788.4 307.27L789.3 310.69C789.67 312.08 788.7 313.48 787.26 313.62L783.91 313.95C782.7 314.07 781.48 314.03 780.28 313.84L770.46 312.27C768.76 311.99 767.5 310.52 767.48 308.8Z" fill="#F99A9A"/>
<path d="M787.87 306.741L784.7 307.151C783.28 307.291 781.46 306.981 780.06 306.711L771.81 305.241L778.38 305.371L780.24 305.681C781.59 305.951 783.31 306.231 784.58 306.111L787.16 305.771C787.55 305.961 787.88 306.261 788.11 306.631C788.05 306.681 787.98 306.711 787.91 306.731C787.91 306.731 787.89 306.741 787.87 306.741Z" fill="#F99A9A"/>
<path d="M780.25 305.67L778.39 305.36L786.19 305.52C786.54 305.53 786.87 305.62 787.18 305.77L784.6 306.11C783.32 306.23 781.61 305.94 780.25 305.67Z" fill="#F99A9A"/>
<path d="M781.87 315.139L770.13 313.259C770.55 312.779 771.17 312.479 771.85 312.469L781.98 314.089L785.23 313.799C785.62 314.039 785.92 314.369 786.12 314.779L782.01 315.139C781.96 315.149 781.92 315.149 781.87 315.139Z" fill="#F99A9A"/>
<path d="M769.55 314.61C769.59 314.09 769.81 313.62 770.13 313.26L781.87 315.14C781.91 315.15 781.96 315.15 782 315.14L786.11 314.78C786.29 315.16 786.39 315.59 786.34 316.04L786.09 318.38C785.94 319.82 784.52 320.78 783.13 320.39L771.26 317.05C770.18 316.75 769.46 315.73 769.55 314.61Z" fill="#F99A9A"/>
<path opacity="0.15" d="M787.87 306.741L784.7 307.151C783.28 307.291 781.46 306.981 780.06 306.711L771.81 305.241L778.38 305.371L780.24 305.681C781.59 305.951 783.31 306.231 784.58 306.111L787.16 305.771C787.55 305.961 787.88 306.261 788.11 306.631C788.05 306.681 787.98 306.711 787.91 306.731C787.91 306.731 787.89 306.741 787.87 306.741Z" fill="black"/>
<path opacity="0.15" d="M781.87 315.139L770.13 313.259C770.55 312.779 771.17 312.479 771.85 312.469L781.98 314.089L785.23 313.799C785.62 314.039 785.92 314.369 786.12 314.779L782.01 315.139C781.96 315.149 781.92 315.149 781.87 315.139Z" fill="black"/>
<path d="M771.24 297.85C771.1 297.8 771 297.7 770.94 297.58C771.35 297.34 771.83 297.19 772.35 297.17L774.73 297.59L775.88 297.48C775.99 297.47 776.1 297.48 776.21 297.47L786.64 296.53C787.3 296.59 787.9 296.93 788.29 297.44L776.3 298.52C774.6 298.66 772.85 298.43 771.24 297.85Z" fill="#F99A9A"/>
<path d="M775.89 297.48L781.38 296.98L786.34 296.52C786.45 296.52 786.55 296.52 786.65 296.53L776.22 297.47C776.11 297.48 776 297.48 775.89 297.48Z" fill="#F99A9A"/>
<path d="M770.94 297.58C771 297.7 771.1 297.8 771.24 297.85C772.85 298.43 774.6 298.66 776.31 298.52L788.3 297.44C788.5 297.7 788.66 298.01 788.73 298.35L789.71 302.81C790 304.15 789.09 305.45 787.74 305.63L784.95 306.01C783.58 306.2 782.19 306.11 780.85 305.76L773.28 304.52C771.57 304.24 770.14 303.05 769.56 301.41C768.98 299.91 769.66 298.31 770.94 297.58Z" fill="#F99A9A"/>
<path opacity="0.15" d="M771.24 297.85C771.1 297.8 771 297.7 770.94 297.58C771.35 297.34 771.83 297.19 772.35 297.17L774.73 297.59L775.88 297.48C775.99 297.47 776.1 297.48 776.21 297.47L786.64 296.53C787.3 296.59 787.9 296.93 788.29 297.44L776.3 298.52C774.6 298.66 772.85 298.43 771.24 297.85Z" fill="black"/>
<path d="M1014.93 607.11H991.5L1023.89 823.51H1037.02L1014.93 607.11Z" fill="#B0B4B9"/>
<path d="M1037.02 823.51H1027.65L1006.22 647.17L997.52 647.25L996.75 642.1L1002.47 617.3C1002.13 614.82 1000.16 612.85 997.67 612.67L992.19 612.16L991.5 607.19H1014.92L1037.02 823.51Z" fill="#84888F"/>
<path d="M1103.27 607.11H1079.85L1109.96 823.51H1123.1L1103.27 607.11Z" fill="#B0B4B9"/>
<path d="M883.78 823.51H897.23L927.47 607.11H903.72L883.78 823.51Z" fill="#B0B4B9"/>
<path d="M1123.1 823.51H1113.64L1096.73 694.83C1096.73 694.83 1096.73 694.83 1091.5 691.83L1080.53 612.08L1079.84 607.11H1103.35L1123.1 823.51Z" fill="#84888F"/>
<path d="M888.72 823.51L905.17 695.86C899.26 691.75 899.26 691.75 899.26 691.75L904.62 643.87L900.34 643.81L900.81 638.72H905.2L908.75 607.04H927.47L897.24 823.52H888.72V823.51Z" fill="#84888F"/>
<path d="M1106.33 409.969H991.24C983.14 409.969 976.57 416.539 976.57 424.639V628.399C976.57 636.499 983.14 643.069 991.24 643.069H1106.33V409.969Z" fill="#B0B4B9"/>
<path d="M1106.09 620.69H896.92C890.72 620.69 885.69 625.72 885.69 631.92C885.69 638.12 890.72 643.15 896.92 643.15H1106.09V620.69Z" fill="#B0B4B9"/>
<path d="M1121.16 620.69H1011.01C1004.81 620.69 999.78 625.72 999.78 631.92C999.78 638.12 1004.81 643.15 1011.01 643.15H1121.16V620.69Z" fill="#84888F"/>
<path d="M1109.93 409.969C1103.73 409.969 1098.7 414.999 1098.7 421.199V636.539C1098.7 640.089 1101.58 642.969 1105.13 642.969H1114.72C1118.27 642.969 1121.15 640.089 1121.15 636.539V421.199C1121.16 414.999 1116.13 409.969 1109.93 409.969Z" fill="#84888F"/>
<path d="M894.6 559.649L911.57 442.759C913.35 430.709 922.26 420.959 934.05 418.159L979.43 407.389L1025.15 407.809L1067.39 417.899C1082.4 421.459 1092.16 435.969 1089.87 451.239L1084.95 483.639L1076.64 501.619C1076.22 502.639 1075.96 503.659 1075.71 504.669L1067.99 546.829C1066.63 554.289 1060.1 558.469 1052.55 558.469L894.6 559.649Z" fill="#21252B"/>
<path d="M1079.51 435.91C1079.32 435.91 1079.14 435.84 1078.99 435.7L1074.34 431.34C1074.03 431.05 1074.02 430.57 1074.31 430.26C1074.6 429.95 1075.08 429.94 1075.39 430.23L1080.04 434.59C1080.35 434.88 1080.36 435.36 1080.07 435.67C1079.92 435.83 1079.72 435.91 1079.51 435.91Z" fill="white"/>
<path d="M1075.01 436.06C1074.82 436.06 1074.64 435.99 1074.49 435.85C1074.18 435.56 1074.17 435.08 1074.46 434.77L1078.82 430.12C1079.11 429.81 1079.59 429.8 1079.9 430.09C1080.21 430.38 1080.22 430.86 1079.93 431.17L1075.57 435.82C1075.42 435.98 1075.21 436.06 1075.01 436.06Z" fill="white"/>
<path d="M1025.03 456.141C1024.84 456.141 1024.66 456.071 1024.51 455.931L1019.86 451.571C1019.55 451.281 1019.54 450.801 1019.83 450.491C1020.12 450.181 1020.6 450.171 1020.91 450.461L1025.56 454.821C1025.87 455.111 1025.88 455.591 1025.59 455.901C1025.44 456.061 1025.24 456.141 1025.03 456.141Z" fill="white"/>
<path d="M1020.53 456.28C1020.34 456.28 1020.16 456.21 1020.01 456.07C1019.7 455.78 1019.69 455.3 1019.98 454.99L1024.34 450.34C1024.63 450.03 1025.11 450.02 1025.42 450.31C1025.73 450.6 1025.74 451.08 1025.45 451.39L1021.09 456.04C1020.94 456.2 1020.73 456.28 1020.53 456.28Z" fill="white"/>
<path d="M978.62 435.961C975.53 435.961 973.01 433.441 973.01 430.351C973.01 427.261 975.53 424.741 978.62 424.741C981.71 424.741 984.23 427.261 984.23 430.351C984.23 433.441 981.71 435.961 978.62 435.961ZM978.62 426.261C976.37 426.261 974.53 428.091 974.53 430.351C974.53 432.611 976.36 434.441 978.62 434.441C980.88 434.441 982.71 432.611 982.71 430.351C982.71 428.091 980.87 426.261 978.62 426.261Z" fill="white"/>
<path d="M993.44 516.849C993.02 516.849 992.68 516.509 992.68 516.089C992.68 513.839 990.85 511.999 988.59 511.999C986.34 511.999 984.5 513.829 984.5 516.089C984.5 516.509 984.16 516.849 983.74 516.849C983.32 516.849 982.98 516.509 982.98 516.089C982.98 512.999 985.5 510.479 988.59 510.479C991.68 510.479 994.2 512.999 994.2 516.089C994.2 516.499 993.86 516.849 993.44 516.849Z" fill="white"/>
<path d="M924.69 441.951C924.27 441.951 923.93 441.611 923.93 441.191C923.93 438.941 922.11 437.101 919.87 437.101C917.63 437.101 915.81 438.931 915.81 441.191C915.81 441.611 915.47 441.951 915.05 441.951C914.63 441.951 914.29 441.611 914.29 441.191C914.29 438.101 916.8 435.581 919.88 435.581C922.96 435.581 925.47 438.101 925.47 441.191C925.45 441.611 925.11 441.951 924.69 441.951Z" fill="white"/>
<path d="M918.08 516.849C914.99 516.849 912.47 514.329 912.47 511.239C912.47 508.149 914.99 505.629 918.08 505.629C921.17 505.629 923.69 508.149 923.69 511.239C923.68 514.339 921.17 516.849 918.08 516.849ZM918.08 507.159C915.83 507.159 913.99 508.989 913.99 511.249C913.99 513.499 915.82 515.339 918.08 515.339C920.33 515.339 922.17 513.509 922.17 511.249C922.16 508.989 920.33 507.159 918.08 507.159Z" fill="white"/>
<path d="M964.16 474.511C963.74 474.511 963.4 474.171 963.4 473.751C963.4 471.871 964.81 471.111 965.84 470.561C966.76 470.061 967.14 469.811 967.14 469.331C967.14 468.911 967.48 468.571 967.9 468.571C968.32 468.571 968.66 468.911 968.66 469.331C968.66 470.771 967.5 471.401 966.56 471.901C965.51 472.461 964.92 472.831 964.92 473.751C964.92 474.171 964.58 474.511 964.16 474.511Z" fill="white"/>
<path d="M964.16 465.65C963.74 465.65 963.4 465.31 963.4 464.89C963.4 463.01 964.81 462.25 965.84 461.7C966.76 461.2 967.14 460.95 967.14 460.47C967.14 460.05 967.48 459.71 967.9 459.71C968.32 459.71 968.66 460.05 968.66 460.47C968.66 461.91 967.5 462.539 966.56 463.039C965.51 463.599 964.92 463.97 964.92 464.89C964.92 465.31 964.58 465.65 964.16 465.65Z" fill="white"/>
<path d="M967.89 470.079C967.47 470.079 967.13 469.739 967.13 469.319C967.13 468.829 966.75 468.579 965.83 468.089C964.8 467.529 963.39 466.769 963.39 464.899C963.39 464.479 963.73 464.139 964.15 464.139C964.57 464.139 964.91 464.479 964.91 464.899C964.91 465.819 965.53 466.209 966.55 466.749C967.48 467.249 968.65 467.879 968.65 469.319C968.65 469.739 968.31 470.079 967.89 470.079Z" fill="white"/>
<path d="M967.89 461.22C967.47 461.22 967.13 460.88 967.13 460.46C967.13 459.97 966.75 459.72 965.83 459.23C964.8 458.67 963.39 457.91 963.39 456.04C963.39 455.62 963.73 455.28 964.15 455.28C964.57 455.28 964.91 455.62 964.91 456.04C964.91 456.96 965.53 457.35 966.55 457.89C967.48 458.39 968.65 459.02 968.65 460.46C968.65 460.88 968.31 461.22 967.89 461.22Z" fill="white"/>
<path d="M929.52 475.399H918.59C918.17 475.399 917.83 475.059 917.83 474.639C917.83 474.219 918.17 473.879 918.59 473.879H929.52C929.94 473.879 930.28 474.219 930.28 474.639C930.28 475.059 929.94 475.399 929.52 475.399Z" fill="white"/>
<path d="M1027.5 424.79H1016.57C1016.15 424.79 1015.81 424.45 1015.81 424.03C1015.81 423.61 1016.15 423.27 1016.57 423.27H1027.5C1027.92 423.27 1028.26 423.61 1028.26 424.03C1028.27 424.45 1027.92 424.79 1027.5 424.79Z" fill="white"/>
<path d="M1067.51 464.14C1067.32 464.14 1067.12 464.07 1066.97 463.92C1066.67 463.62 1066.67 463.14 1066.97 462.84L1074.7 455.11C1075 454.81 1075.48 454.81 1075.78 455.11C1076.08 455.41 1076.08 455.89 1075.78 456.19L1068.05 463.92C1067.9 464.06 1067.7 464.14 1067.51 464.14Z" fill="white"/>
<path d="M985.57 439.42C982.81 439.42 980.57 437.18 980.57 434.42C980.57 431.66 982.81 429.42 985.57 429.42C988.33 429.42 990.57 431.66 990.57 434.42C990.57 437.18 988.33 439.42 985.57 439.42ZM985.57 429.721C982.98 429.721 980.87 431.83 980.87 434.42C980.87 437.01 982.98 439.12 985.57 439.12C988.16 439.12 990.27 437.01 990.27 434.42C990.27 431.83 988.16 429.721 985.57 429.721Z" fill="white"/>
<path d="M1000.54 520.151H1000.24C1000.24 517.561 998.13 515.451 995.54 515.451C992.95 515.451 990.84 517.561 990.84 520.151H990.54C990.54 517.391 992.78 515.151 995.54 515.151C998.3 515.151 1000.54 517.401 1000.54 520.151Z" fill="white"/>
<path d="M931.79 445.26H931.49C931.49 442.67 929.39 440.56 926.82 440.56C924.24 440.56 922.15 442.67 922.15 445.26H921.85C921.85 442.5 924.08 440.26 926.83 440.26C929.56 440.26 931.79 442.5 931.79 445.26Z" fill="white"/>
<path d="M925.03 520.309C922.27 520.309 920.03 518.069 920.03 515.309C920.03 512.549 922.27 510.309 925.03 510.309C927.79 510.309 930.03 512.549 930.03 515.309C930.03 518.069 927.78 520.309 925.03 520.309ZM925.03 510.619C922.44 510.619 920.33 512.729 920.33 515.319C920.33 517.909 922.44 520.019 925.03 520.019C927.62 520.019 929.73 517.909 929.73 515.319C929.72 512.719 927.62 510.619 925.03 510.619Z" fill="white"/>
<path d="M971.26 477.819H970.96C970.96 476.299 972.08 475.699 973.08 475.159C973.95 474.689 974.7 474.289 974.7 473.389H975C975 474.469 974.1 474.959 973.22 475.429C972.25 475.939 971.26 476.479 971.26 477.819Z" fill="white"/>
<path d="M971.26 468.96H970.96C970.96 467.44 972.08 466.84 973.08 466.3C973.95 465.83 974.7 465.43 974.7 464.53H975C975 465.61 974.1 466.1 973.22 466.57C972.25 467.09 971.26 467.62 971.26 468.96Z" fill="white"/>
<path d="M974.99 473.39H974.69C974.69 472.49 973.94 472.09 973.07 471.62C972.08 471.08 970.95 470.48 970.95 468.96H971.25C971.25 470.29 972.24 470.829 973.21 471.349C974.09 471.819 974.99 472.31 974.99 473.39Z" fill="white"/>
<path d="M974.99 464.53H974.69C974.69 463.63 973.94 463.23 973.07 462.76C972.08 462.22 970.95 461.62 970.95 460.1H971.25C971.25 461.43 972.24 461.97 973.21 462.49C974.09 462.96 974.99 463.45 974.99 464.53Z" fill="white"/>
<path d="M936.48 478.559H925.55V478.859H936.48V478.559Z" fill="white"/>
<path d="M1034.46 427.94H1023.53V428.24H1034.46V427.94Z" fill="white"/>
<path d="M1082.07 459.61L1074.34 467.34L1074.55 467.55L1082.28 459.82L1082.07 459.61Z" fill="white"/>
<path d="M1006.55 486C1006.35 486 1006.15 485.98 1005.95 485.93C1005.25 485.77 1004.66 485.35 1004.28 484.75C1003.9 484.15 1003.78 483.43 1003.94 482.74C1004.1 482.04 1004.52 481.45 1005.12 481.07C1005.72 480.69 1006.44 480.57 1007.13 480.73C1007.83 480.89 1008.42 481.31 1008.8 481.91C1009.18 482.51 1009.3 483.23 1009.14 483.92C1008.98 484.62 1008.56 485.21 1007.96 485.59C1007.54 485.86 1007.05 486 1006.55 486ZM1006.54 482.18C1006.33 482.18 1006.12 482.24 1005.93 482.36C1005.67 482.52 1005.49 482.78 1005.42 483.08C1005.35 483.38 1005.4 483.69 1005.57 483.95C1005.73 484.21 1005.99 484.39 1006.29 484.46C1006.59 484.53 1006.9 484.48 1007.16 484.31C1007.42 484.15 1007.6 483.89 1007.67 483.59C1007.74 483.29 1007.69 482.98 1007.52 482.72C1007.36 482.46 1007.1 482.28 1006.8 482.21C1006.72 482.19 1006.63 482.18 1006.54 482.18Z" fill="white"/>
<path d="M963.4 496.91C963.2 496.91 963 496.89 962.8 496.84C962.1 496.68 961.51 496.26 961.13 495.66C960.35 494.41 960.72 492.76 961.97 491.98C962.57 491.6 963.29 491.48 963.98 491.64C964.68 491.8 965.27 492.22 965.65 492.82C966.03 493.42 966.15 494.14 965.99 494.83C965.83 495.53 965.41 496.12 964.81 496.5C964.38 496.77 963.9 496.91 963.4 496.91ZM963.39 493.09C963.18 493.09 962.97 493.15 962.78 493.27C962.25 493.61 962.08 494.32 962.42 494.85C962.58 495.11 962.84 495.29 963.14 495.36C963.44 495.43 963.75 495.38 964.01 495.21C964.27 495.05 964.45 494.79 964.52 494.49C964.59 494.19 964.54 493.88 964.37 493.62C964.21 493.36 963.95 493.18 963.65 493.11C963.56 493.1 963.48 493.09 963.39 493.09Z" fill="white"/>
<path d="M952.93 435.9C952.73 435.9 952.53 435.88 952.33 435.83C951.63 435.67 951.04 435.25 950.66 434.65C950.28 434.05 950.16 433.33 950.32 432.64C950.48 431.94 950.9 431.35 951.5 430.97C952.1 430.59 952.82 430.47 953.51 430.63C954.21 430.79 954.8 431.21 955.18 431.81C955.56 432.41 955.68 433.13 955.52 433.82C955.36 434.52 954.94 435.11 954.34 435.49C953.91 435.76 953.42 435.9 952.93 435.9ZM952.92 432.08C952.71 432.08 952.5 432.14 952.31 432.26C952.05 432.42 951.87 432.68 951.8 432.98C951.73 433.28 951.78 433.59 951.95 433.85C952.11 434.11 952.37 434.29 952.67 434.36C952.97 434.43 953.28 434.38 953.54 434.21C953.8 434.05 953.98 433.79 954.05 433.49C954.12 433.19 954.07 432.88 953.9 432.62C953.74 432.36 953.48 432.18 953.18 432.11C953.09 432.09 953 432.08 952.92 432.08Z" fill="white"/>
<path d="M1047.55 435.9C1046.66 435.9 1045.79 435.46 1045.29 434.65C1044.91 434.05 1044.79 433.33 1044.95 432.64C1045.11 431.94 1045.53 431.35 1046.13 430.97C1046.73 430.59 1047.45 430.47 1048.14 430.63C1048.84 430.79 1049.43 431.21 1049.81 431.81C1050.19 432.41 1050.31 433.13 1050.15 433.82C1049.99 434.52 1049.57 435.11 1048.97 435.49C1048.53 435.77 1048.03 435.9 1047.55 435.9ZM1047.54 432.08C1047.33 432.08 1047.12 432.14 1046.93 432.26C1046.67 432.42 1046.49 432.68 1046.42 432.98C1046.35 433.28 1046.4 433.59 1046.57 433.85C1046.91 434.39 1047.62 434.55 1048.15 434.21C1048.41 434.05 1048.59 433.79 1048.66 433.49C1048.73 433.19 1048.68 432.88 1048.51 432.62C1048.35 432.36 1048.09 432.18 1047.79 432.11C1047.71 432.09 1047.63 432.08 1047.54 432.08Z" fill="white"/>
<path opacity="0.15" d="M1035.76 521.48L1042.55 454.21C1042.63 453.36 1041.45 453.11 1041.19 453.96L1020.15 523.69L1035.76 521.48Z" fill="black"/>
<path d="M911.23 550.57C912.08 551.59 913.61 551.839 914.71 550.989L929.72 539.96L910.63 548.7C910.55 549.39 910.81 550.06 911.23 550.57Z" fill="#84888F"/>
<path opacity="0.15" d="M937.78 453.871L929.72 533.351L922.68 540.311L916.23 536.071L930.31 459.721C931.76 453.441 937.78 452.941 937.78 453.871Z" fill="black"/>
<path d="M1024.1 309.911C1036.52 310.241 1040.32 324.271 1039.88 341.081C1039.44 357.891 1035.46 367.641 1023.04 367.321C1010.62 367.001 1000.81 356.881 1001.25 340.071C1001.69 323.251 1011.68 309.581 1024.1 309.911Z" fill="#3F4249"/>
<path d="M981.94 346.239C981.94 346.239 1022.95 321.989 1023.72 352.979L1023.67 360.999L1025.25 407.719C1025.22 408.909 979.01 410.059 979.24 408.589L980.23 400.509L983.43 376.549C982.99 374.459 982.76 372.079 982.83 369.409C982.74 357.239 981.94 346.239 981.94 346.239Z" fill="#F69797"/>
<path d="M978.69 348.029C986.23 348.029 992.34 341.919 992.34 334.379C992.34 326.839 986.23 320.729 978.69 320.729C971.15 320.729 965.04 326.839 965.04 334.379C965.04 341.919 971.15 348.029 978.69 348.029Z" fill="#3F4249"/>
<path d="M977.96 324.27C977.96 324.27 962.05 384.01 992.79 388.87C1019.39 393.13 1023.45 351.58 1023.45 351.58L1022.87 324.55L977.96 324.27Z" fill="#F69797"/>
<path d="M1018.99 344.35C1018.92 358.88 1012.97 366.99 1012.97 366.99C980.04 361.66 974.75 367.59 974.75 367.59C974.75 367.59 976.33 384.13 989.85 388.06C1003.38 391.99 1024.17 384.11 1024.59 365.46C1024.69 360.85 1017.8 335.76 1017.8 335.76L1018.99 344.35Z" fill="#3F4249"/>
<path d="M993.19 373.541C1000.36 374.731 1003.85 367.761 1003.44 367.431C1003.02 367.211 989.14 370.031 988.92 370.451C988.8 370.871 991.14 373.361 993.19 373.541Z" fill="white"/>
<path d="M1015.51 316.111C1015.76 306.521 1006.16 298.491 994.07 298.171C981.98 297.851 971.97 305.371 971.72 314.961C971.47 324.551 981.07 332.581 993.16 332.901C1005.25 333.211 1015.26 325.701 1015.51 316.111Z" fill="#3F4249"/>
<path d="M1022.18 310.151C1029.75 310.351 1035.69 318.251 1035.44 327.811C1035.19 337.371 1028.79 347.021 1021.22 346.821C1013.65 346.621 1007.76 336.651 1008.02 327.091C1008.26 317.531 1014.6 309.951 1022.18 310.151Z" fill="#3F4249"/>
<path opacity="0.15" d="M1024.05 362.969C1024.05 362.969 1021.47 363.099 1020.12 361.979L1024.29 368.819L1024.05 362.969Z" fill="black"/>
<path d="M1020.68 346.71C1020.68 346.71 1025.11 341.33 1030.97 344.06C1037.62 347.2 1035.83 362.39 1024.44 362.98C1018.49 363.32 1019.77 359.89 1020.88 355.27C1021.14 349.73 1020.68 346.71 1020.68 346.71Z" fill="#F69797"/>
<path opacity="0.3" d="M1031.17 348.02C1030 347.2 1028.92 346.87 1027.93 347.04C1026.94 347.21 1026.03 347.88 1025.3 349.05C1024.58 350.22 1024.14 351.59 1024.1 353.17L1023.97 354.45C1023.96 354.85 1024.25 355.15 1024.64 355.16C1025.03 355.17 1025.34 354.88 1025.35 354.49L1025.48 353.21C1025.49 352.81 1025.74 350.84 1026.46 349.77C1026.98 348.99 1027.58 348.51 1028.18 348.33C1028.78 348.25 1029.56 348.47 1030.34 348.98C1030.63 349.19 1031.13 349.1 1031.33 348.81C1031.54 348.73 1031.46 348.33 1031.17 348.02Z" fill="black"/>
<path d="M977.63 329.109C978.8 330.029 981.37 331.299 981.37 331.299C981.65 331.409 982.09 331.379 982.23 331.009C982.38 330.639 982.31 330.289 981.94 330.149C981.94 330.149 978.4 327.929 978.07 327.689C977.45 327.119 976.44 326.349 975.36 325.039C975.16 324.749 974.76 324.689 974.46 324.889C974.16 325.089 974.11 325.499 974.31 325.789C975.33 327.249 977.24 328.799 977.63 329.109Z" fill="#F69797"/>
<path opacity="0.15" d="M981.32 392.951L982.43 383.751C985.65 387.011 991.04 389.601 999.56 388.941C999.56 388.941 1005.34 388.671 1011.57 385.521C1012.02 385.251 1012.29 385.231 1012.56 385.461C1012.76 385.751 1012.66 386.021 1012.41 386.241C1011.17 387.241 1006.52 389.411 999.27 390.271C989.06 396.461 981.32 392.951 981.32 392.951Z" fill="black"/>
<path d="M969.29 349.37L969.22 352.14C969.08 357.48 973.32 361.94 978.66 362.08C984 362.22 988.46 357.98 988.6 352.64L988.67 349.87C988.69 349.08 988.51 348.28 988.03 347.68L991.79 347.78C991.28 348.36 990.96 349.14 990.94 349.93L990.87 352.7C990.73 358.04 994.97 362.5 1000.31 362.64C1005.65 362.78 1010.11 358.54 1010.25 353.2L1010.32 350.43C1010.37 348.45 1008.83 346.83 1006.85 346.78L994.69 346.46H994.59L985.2 346.21L983.72 346.17L972.94 345.89C970.97 345.85 969.34 347.39 969.29 349.37ZM994.46 347.95H994.56L1006.72 348.27C1007.91 348.3 1008.87 349.32 1008.84 350.5L1008.77 353.27C1008.65 357.82 1004.8 361.38 1000.25 361.26C995.7 361.14 992.14 357.29 992.26 352.74L992.33 349.97C992.36 348.79 993.37 347.92 994.46 347.95ZM970.57 349.5C970.6 348.31 971.62 347.35 972.8 347.38L983.58 347.66L985.06 347.7C986.25 347.73 987.21 348.75 987.18 349.93L987.11 352.7C986.99 357.25 983.14 360.81 978.59 360.69C974.04 360.57 970.48 356.72 970.6 352.17L970.57 349.5Z" fill="#21252B"/>
<path d="M979.2 407.71C979.39 400.53 989.95 394.99 1002.79 395.33C1015.63 395.67 1022.89 400.94 1025.24 407.72C1027.4 413.94 1014.95 421.65 1002.11 421.31C989.27 420.98 979.01 414.89 979.2 407.71Z" fill="#F69797"/>
<path d="M961.26 531.369L948.89 532.679L923.19 530.389C920.48 530.639 919.29 531.149 917.25 532.929L901.39 547.099C900.37 548.029 900.29 549.559 901.14 550.579C901.99 551.599 903.52 551.849 904.62 550.999L919.63 539.969L909.87 551.509C908.77 552.779 909.28 554.819 910.89 555.409C911.82 555.749 912.76 555.489 913.43 554.899L926.49 542.089L916.56 551.849C915.37 553.039 915.8 554.989 917.32 555.579C918.08 555.919 918.93 555.749 919.53 555.329L933.44 545.149L924.02 552.109C922.92 552.869 922.92 554.569 924.02 555.329C924.61 555.749 925.38 555.839 925.97 555.579L938.61 550.319C939.8 549.809 941.24 549.809 942.43 550.399L947.27 552.779C951.17 554.729 955.58 555.749 959.91 555.749H967.8C979.09 555.749 961.26 531.369 961.26 531.369Z" fill="#FA9B9B"/>
<path opacity="0.15" d="M1035.76 521.48L1040 521.14C1041.27 521.06 1041.95 519.7 1041.44 518.6L1036.94 509.52L1035.76 521.48Z" fill="black"/>
<g opacity="0.15">
<path opacity="0.15" d="M962.89 532.081L1035.76 521.391L1040.51 475.241L1085.98 477.531L1076.73 536.491C1074.95 547.601 1065.45 555.751 1054.25 555.751H971.37L962.89 532.081Z" fill="black"/>
</g>
<path d="M952.97 532.08L1036.7 524.74L1040.62 473.94L1085.98 476.93L1077.67 538.96C1075.89 550.07 1066.39 558.22 1055.19 558.22L961.2 555.83L952.97 532.08Z" fill="#21252B"/>
<path d="M1032.1 553.09C1031.91 553.09 1031.73 553.02 1031.58 552.88L1026.93 548.52C1026.62 548.23 1026.61 547.75 1026.9 547.44C1027.19 547.13 1027.67 547.12 1027.98 547.41L1032.63 551.77C1032.94 552.06 1032.95 552.54 1032.66 552.85C1032.51 553.01 1032.31 553.09 1032.1 553.09Z" fill="white"/>
<path d="M1027.6 553.239C1027.41 553.239 1027.23 553.169 1027.08 553.029C1026.77 552.739 1026.76 552.259 1027.05 551.949L1031.41 547.299C1031.7 546.989 1032.18 546.979 1032.49 547.269C1032.8 547.559 1032.81 548.039 1032.52 548.349L1028.16 552.999C1028.01 553.159 1027.8 553.239 1027.6 553.239Z" fill="white"/>
<path d="M1053.62 485.039C1053.42 485.039 1053.23 484.959 1053.08 484.819L1044.04 475.789C1043.85 475.599 1043.77 475.319 1043.84 475.049C1043.91 474.789 1044.12 474.579 1044.38 474.509L1056.72 471.189C1056.98 471.119 1057.26 471.189 1057.46 471.389C1057.65 471.579 1057.73 471.859 1057.66 472.129L1054.36 484.479C1054.29 484.739 1054.08 484.949 1053.82 485.019C1053.75 485.039 1053.68 485.039 1053.62 485.039ZM1046.04 475.639L1053.22 482.809L1054.53 477.909L1055.84 473.009L1046.04 475.639Z" fill="white"/>
<path d="M1053.03 530.48C1052.61 530.48 1052.27 530.14 1052.27 529.72C1052.27 527.84 1053.68 527.08 1054.71 526.53C1055.63 526.03 1056.01 525.78 1056.01 525.3C1056.01 524.88 1056.35 524.54 1056.77 524.54C1057.19 524.54 1057.53 524.88 1057.53 525.3C1057.53 526.74 1056.37 527.37 1055.43 527.87C1054.42 528.42 1053.79 528.8 1053.79 529.72C1053.79 530.14 1053.45 530.48 1053.03 530.48Z" fill="white"/>
<path d="M1053.03 521.62C1052.61 521.62 1052.27 521.28 1052.27 520.86C1052.27 518.98 1053.68 518.22 1054.71 517.67C1055.63 517.17 1056.01 516.92 1056.01 516.44C1056.01 516.02 1056.35 515.68 1056.77 515.68C1057.19 515.68 1057.53 516.02 1057.53 516.44C1057.53 517.88 1056.37 518.51 1055.43 519.01C1054.38 519.57 1053.79 519.94 1053.79 520.86C1053.79 521.28 1053.45 521.62 1053.03 521.62Z" fill="white"/>
<path d="M1056.76 526.05C1056.34 526.05 1056 525.71 1056 525.29C1056 524.8 1055.62 524.55 1054.7 524.06C1053.67 523.5 1052.26 522.74 1052.26 520.87C1052.26 520.45 1052.6 520.11 1053.02 520.11C1053.44 520.11 1053.78 520.45 1053.78 520.87C1053.78 521.79 1054.4 522.18 1055.42 522.72C1056.35 523.22 1057.52 523.85 1057.52 525.29C1057.52 525.71 1057.18 526.05 1056.76 526.05Z" fill="white"/>
<path d="M1056.76 517.2C1056.34 517.2 1056 516.86 1056 516.44C1056 515.95 1055.62 515.7 1054.7 515.21C1053.67 514.66 1052.26 513.89 1052.26 512.02C1052.26 511.6 1052.6 511.26 1053.02 511.26C1053.44 511.26 1053.78 511.6 1053.78 512.02C1053.78 512.94 1054.4 513.33 1055.42 513.87C1056.35 514.37 1057.52 515 1057.52 516.44C1057.52 516.85 1057.18 517.2 1056.76 517.2Z" fill="white"/>
<path d="M979.96 541.881C979.77 541.881 979.57 541.811 979.42 541.661C979.12 541.361 979.12 540.881 979.42 540.581L987.15 532.851C987.45 532.551 987.93 532.551 988.23 532.851C988.53 533.151 988.53 533.631 988.23 533.931L980.5 541.661C980.35 541.811 980.15 541.881 979.96 541.881Z" fill="white"/>
<path d="M1060.65 488.649L1051.23 479.249L1064.08 475.799L1060.65 488.649ZM1051.82 479.399L1060.49 488.059L1063.65 476.219L1051.82 479.399Z" fill="white"/>
<path d="M1060.13 533.79H1059.83C1059.83 532.27 1060.95 531.67 1061.95 531.13C1062.82 530.66 1063.57 530.26 1063.57 529.36H1063.87C1063.87 530.44 1062.97 530.93 1062.09 531.4C1061.13 531.92 1060.13 532.45 1060.13 533.79Z" fill="white"/>
<path d="M1060.13 524.931H1059.83C1059.83 523.411 1060.95 522.811 1061.95 522.271C1062.82 521.801 1063.57 521.401 1063.57 520.501H1063.87C1063.87 521.581 1062.97 522.071 1062.09 522.541C1061.13 523.061 1060.13 523.601 1060.13 524.931Z" fill="white"/>
<path d="M1063.86 529.36H1063.56C1063.56 528.46 1062.81 528.06 1061.94 527.59C1060.95 527.05 1059.82 526.45 1059.82 524.93H1060.12C1060.12 526.26 1061.11 526.8 1062.08 527.32C1062.96 527.79 1063.86 528.28 1063.86 529.36Z" fill="white"/>
<path d="M1063.86 520.501H1063.56C1063.56 519.601 1062.81 519.201 1061.94 518.731C1060.95 518.191 1059.82 517.591 1059.82 516.071H1060.12C1060.12 517.401 1061.11 517.941 1062.08 518.461C1062.96 518.941 1063.86 519.421 1063.86 520.501Z" fill="white"/>
<path d="M994.52 537.36L986.79 545.09L987 545.3L994.73 537.57L994.52 537.36Z" fill="white"/>
<path d="M1076 499.581C1075.11 499.581 1074.24 499.141 1073.74 498.331C1072.96 497.081 1073.33 495.431 1074.58 494.651C1075.83 493.871 1077.48 494.241 1078.26 495.491C1078.64 496.091 1078.76 496.811 1078.6 497.501C1078.44 498.201 1078.02 498.791 1077.42 499.171C1076.98 499.451 1076.49 499.581 1076 499.581ZM1075.99 495.761C1075.78 495.761 1075.57 495.821 1075.38 495.941C1074.85 496.281 1074.68 496.991 1075.02 497.521C1075.36 498.061 1076.07 498.221 1076.6 497.881C1076.86 497.721 1077.04 497.461 1077.11 497.161C1077.18 496.861 1077.13 496.551 1076.96 496.291C1076.75 495.951 1076.37 495.761 1075.99 495.761Z" fill="white"/>
<path opacity="0.6" d="M961.19 531.059L952.97 532.099L961.11 555.749H971.29L961.19 531.059Z" fill="black"/>
<path opacity="0.15" d="M960.33 554.76L961.69 558.92L1054.75 558.34C1065.95 558.34 1075.53 550.2 1077.23 539.08L1089.89 451.41C1092.18 436.14 1082.43 421.64 1067.41 418.07L1059.52 416.2C1071.57 421.54 1078.86 434.35 1076.83 447.76L1065.19 529.31C1063.41 540.42 1053.91 548.57 1042.71 548.57L960.33 554.76Z" fill="black"/>
<path opacity="0.15" d="M951.52 551.591C953.47 551.591 955 549.811 954.83 547.861L952.96 532.081L961.19 555.751H960C955.59 555.751 951.26 554.731 947.36 552.781L941.59 550.071C942.96 550.231 946.52 551.591 951.52 551.591Z" fill="black"/>
<path d="M972.48 555.071H888.84C888.16 555.071 887.57 555.661 887.57 556.341V558.461C887.57 559.141 888.16 559.731 888.84 559.731H972.48C973.16 559.731 973.75 559.141 973.75 558.461V556.341C973.75 555.661 973.24 555.071 972.48 555.071Z" fill="#21252B"/>
<path opacity="0.6" d="M972.48 555.071H888.84C888.16 555.071 887.57 555.661 887.57 556.341V558.461C887.57 559.141 888.16 559.731 888.84 559.731H972.48C973.16 559.731 973.75 559.141 973.75 558.461V556.341C973.75 555.661 973.24 555.071 972.48 555.071Z" fill="black"/>
<path d="M916.07 555.071H770.25C769.57 555.071 768.98 555.661 768.98 556.341V558.461C768.98 559.141 769.57 559.731 770.25 559.731H916.07C916.75 559.731 917.34 559.141 917.34 558.461V556.341C917.25 555.661 916.74 555.071 916.07 555.071Z" fill="#21252B"/>
<g opacity="0.6">
<path opacity="0.6" d="M772.11 555.921H920.56C920.81 555.921 920.98 555.751 920.98 555.501C920.98 555.251 920.81 555.081 920.56 555.081H772.11C771.86 555.081 771.69 555.251 771.69 555.501C771.69 555.751 771.94 555.921 772.11 555.921Z" fill="black"/>
</g>
<path d="M916.4 555.071H894.43C892.73 555.071 891.29 553.881 890.95 552.191L872.54 455.401C872.12 453.191 873.81 451.241 876.02 451.241H897.99C899.69 451.241 901.13 452.431 901.47 454.121L919.88 550.911C920.22 553.121 918.61 555.071 916.4 555.071Z" fill="#21252B"/>
<path opacity="0.6" d="M916.4 555.071H894.43C892.73 555.071 891.29 553.881 890.95 552.191L872.54 455.401C872.12 453.191 873.81 451.241 876.02 451.241H897.99C899.69 451.241 901.13 452.431 901.47 454.121L919.88 550.911C920.22 553.121 918.61 555.071 916.4 555.071Z" fill="black"/>
<path d="M913.27 555.071H772.2C770.5 555.071 769.06 553.881 768.72 552.191L750.31 455.401C749.89 453.191 751.58 451.241 753.79 451.241H894.78C896.48 451.241 897.92 452.431 898.26 454.121L916.67 550.911C917.08 553.121 915.47 555.071 913.27 555.071Z" fill="#21252B"/>
<path opacity="0.6" d="M832.68 500.44C833.53 502.39 832.6 504.09 830.64 504.09C830.56 504.09 830.39 504.09 830.3 504.09C832.59 506.63 836.07 508.42 839.12 508.33C843.28 508.25 845.23 504.85 843.36 500.7C841.58 496.54 836.66 493.32 832.5 493.4C829.87 493.48 828.09 494.84 827.66 496.96C829.63 497.05 831.83 498.49 832.68 500.44Z" fill="black"/>
<path d="M712.23 762.679L702.67 789.899L718.53 804.389L738.21 795.449L748.3 776.569L727.4 752.799L712.23 762.679Z" fill="#FB9C9C"/>
<path d="M711.34 765.221L747.35 779.281L832.35 620.421H983.23V559.651H809.84C799.12 559.651 789.45 566.151 785.38 576.061L711.34 765.221Z" fill="#448CC7"/>
<path opacity="0.2" d="M711.34 765.221L747.35 779.281L832.35 620.421H983.23V559.651H809.84C799.12 559.651 789.45 566.151 785.38 576.061L711.34 765.221Z" fill="white"/>
<path opacity="0.2" d="M716.86 797.341H737.14L832.34 620.431H983.22V559.661H839.74C829.02 559.661 819.35 566.161 815.28 576.071L716.86 797.341Z" fill="black"/>
<path d="M803.21 762.679L793.47 790.389L809.51 804.389L828.4 796.799L839.28 776.569L818.38 752.799L803.21 762.679Z" fill="#FB9C9C"/>
<path d="M803.21 762.68L839.28 776.57L923.18 620.42H1029.99C1042 620.42 1051.74 610.68 1051.74 598.67V558.34L900.67 559.65C889.95 559.65 880.28 566.15 876.21 576.06L803.21 762.68Z" fill="#448CC7"/>
<path opacity="0.2" d="M803.21 762.68L839.28 776.57L923.18 620.42H1029.99C1042 620.42 1051.74 610.68 1051.74 598.67V558.34L900.67 559.65C889.95 559.65 880.28 566.15 876.21 576.06L803.21 762.68Z" fill="white"/>
<path opacity="0.2" d="M899.86 607.509C905.95 595.649 912.7 592.149 926.02 592.149H1029.94L1026.45 558.479H1051.75V598.279C1051.75 610.509 1041.84 620.419 1029.61 620.419H1016.41H923.27L824.33 804.389L808.52 799.329L899.86 607.509Z" fill="black"/>
<path d="M734.45 791.64C728.93 794.11 722.44 795.23 714.83 791.49C714.83 791.49 711.81 782.2 703.38 787.6C703.38 787.6 693.65 798.48 679.19 801.41C659.14 805.47 658.24 814.81 658.24 814.81H740.52C740.52 814.81 740.22 802.14 738.88 794.13C738.55 792.07 736.36 790.78 734.45 791.64Z" fill="black"/>
<path d="M679.08 798.651C679.08 798.651 688.2 802.851 692.41 819.46L658.26 818.06C658.26 818.06 657.33 802.861 679.08 798.651Z" fill="#3F4249"/>
<path d="M658.25 824.1H740.53V814.81H658.25V824.1Z" fill="#3F4249"/>
<path d="M693.98 802.461C694.1 802.671 694.32 802.791 694.55 802.791C694.66 802.791 694.77 802.761 694.87 802.701C695.18 802.521 695.29 802.121 695.11 801.811C693.48 798.971 691.58 797.851 690.29 797.411C689.7 797.721 689.09 798.021 688.47 798.311C688.57 798.371 688.68 798.421 688.81 798.421C688.92 798.421 691.7 798.481 693.98 802.461Z" fill="white"/>
<path d="M698.07 800.271C698.19 800.481 698.41 800.601 698.64 800.601C698.75 800.601 698.86 800.571 698.96 800.511C699.27 800.331 699.38 799.931 699.2 799.621C697.48 796.621 695.45 795.541 694.16 795.151C693.65 795.481 693.12 795.801 692.57 796.131C692.67 796.191 692.77 796.231 692.89 796.231C693.01 796.241 695.79 796.291 698.07 800.271Z" fill="white"/>
<path d="M702.25 797.68C702.37 797.89 702.59 798.01 702.82 798.01C702.93 798.01 703.04 797.979 703.14 797.919C703.45 797.739 703.56 797.34 703.38 797.03C701.49 793.73 699.22 792.75 697.98 792.46C697.56 792.79 697.11 793.12 696.65 793.46C696.77 793.56 696.92 793.63 697.08 793.63C697.19 793.64 699.97 793.7 702.25 797.68Z" fill="white"/>
<path d="M689.89 814.8H658.25C658.25 814.8 658.28 814.61 658.34 814.36C658.39 814.12 658.47 813.92 658.47 813.92H689.89C690.13 813.92 690.33 814.12 690.33 814.36C690.33 814.6 690.13 814.8 689.89 814.8Z" fill="black"/>
<path d="M824.5 791.64C818.98 794.11 812.49 795.23 804.88 791.49C804.88 791.49 801.86 782.2 793.43 787.6C793.43 787.6 783.7 798.48 769.24 801.41C749.19 805.47 748.29 814.81 748.29 814.81H830.57C830.57 814.81 830.27 802.14 828.93 794.13C828.6 792.07 826.41 790.78 824.5 791.64Z" fill="black"/>
<path d="M769.13 798.651C769.13 798.651 778.25 802.851 782.46 819.46L748.31 818.06C748.32 818.06 747.38 802.861 769.13 798.651Z" fill="#3F4249"/>
<path d="M748.31 824.1H830.59V814.81H748.31V824.1Z" fill="#3F4249"/>
<path d="M784.03 802.461C784.15 802.671 784.37 802.791 784.6 802.791C784.71 802.791 784.82 802.761 784.92 802.701C785.23 802.521 785.34 802.121 785.16 801.811C783.53 798.971 781.63 797.851 780.34 797.411C779.75 797.721 779.14 798.021 778.52 798.311C778.62 798.371 778.73 798.421 778.86 798.421C778.98 798.421 781.76 798.481 784.03 802.461Z" fill="white"/>
<path d="M788.12 800.271C788.24 800.481 788.46 800.601 788.69 800.601C788.8 800.601 788.91 800.571 789.01 800.511C789.32 800.331 789.43 799.931 789.25 799.621C787.53 796.621 785.5 795.541 784.21 795.151C783.7 795.481 783.17 795.801 782.62 796.131C782.72 796.191 782.82 796.231 782.94 796.231C783.06 796.241 785.84 796.291 788.12 800.271Z" fill="white"/>
<path d="M792.3 797.68C792.42 797.89 792.64 798.01 792.87 798.01C792.98 798.01 793.09 797.979 793.19 797.919C793.5 797.739 793.61 797.34 793.43 797.03C791.54 793.73 789.27 792.75 788.03 792.46C787.61 792.79 787.16 793.12 786.7 793.46C786.82 793.56 786.97 793.63 787.13 793.63C787.24 793.64 790.02 793.7 792.3 797.68Z" fill="white"/>
<path d="M779.94 814.8H748.3C748.3 814.8 748.33 814.61 748.39 814.36C748.44 814.12 748.52 813.92 748.52 813.92H779.94C780.18 813.92 780.38 814.12 780.38 814.36C780.38 814.6 780.18 814.8 779.94 814.8Z" fill="black"/>
<path d="M1025.24 407.719C1025.24 407.719 1026.09 411.199 1023.37 412.889C1020.32 414.669 1008.52 422.559 991.9 417.559C991.9 417.559 986.64 416.119 981.64 412.469C980.54 411.619 979.69 410.429 979.52 408.989C979.52 408.819 979.52 408.739 979.52 408.569V407.379C979.52 407.379 979.52 407.379 974.85 408.479C974.85 409.919 975.27 412.639 977.65 415.009C979.01 416.369 999.11 431.889 1024.73 417.549C1024.73 417.549 1030.33 415.339 1029.73 408.809C1025.24 407.719 1025.24 407.719 1025.24 407.719Z" fill="white"/>
<path d="M977.96 358.631C979.42 358.621 980.6 357.421 980.58 355.951C980.57 354.491 979.37 353.311 977.9 353.331C976.44 353.351 975.27 354.541 975.28 356.011C975.3 357.471 976.5 358.651 977.96 358.631Z" fill="#21252B"/>
<path d="M976.72 356.91C977.05 356.91 977.33 356.63 977.32 356.29C977.32 355.95 977.04 355.68 976.71 355.69C976.37 355.69 976.1 355.97 976.1 356.31C976.11 356.64 976.38 356.91 976.72 356.91Z" fill="white"/>
<path d="M998.38 359.949C999.84 359.939 1001.02 358.739 1001 357.269C1000.99 355.809 999.79 354.629 998.32 354.649C996.86 354.669 995.69 355.859 995.7 357.329C995.72 358.789 996.91 359.959 998.38 359.949Z" fill="#21252B"/>
<path d="M997.14 358.129C997.47 358.129 997.74 357.849 997.74 357.509C997.74 357.169 997.46 356.899 997.12 356.909C996.79 356.909 996.52 357.189 996.52 357.529C996.52 357.859 996.8 358.129 997.14 358.129Z" fill="white"/>
<g opacity="0.3">
<path opacity="0.3" d="M990.12 363.839L992.25 363.549C992.66 363.529 992.95 363.109 992.93 362.699C992.91 362.289 992.49 361.999 992.08 362.019L989.95 362.309C989.04 362.449 988.29 361.769 988.15 360.849C988.01 359.939 988.69 359.189 989.61 359.049C990.02 359.029 990.31 358.609 990.29 358.199C990.27 357.789 989.85 357.499 989.44 357.519C987.71 357.689 986.45 359.279 986.73 360.999C986.81 362.859 988.39 364.019 990.12 363.839Z" fill="black"/>
</g>
<path opacity="0.15" d="M510.4 285.02L485.78 359.47L486.29 386.33L510.4 297.06V285.02Z" fill="black"/>
<path opacity="0.6" d="M462.74 297.28L503.15 308.29L505.47 301.6L464.56 290.11L462.74 297.28Z" fill="black"/>
<path opacity="0.15" d="M625.75 425.749C625.75 425.749 593.17 397.749 583.27 352.619C576.25 320.619 575.7 307.379 575.29 278.459C575.29 278.459 594.38 278.409 596.99 259.139C597.61 254.529 596.84 251.699 595.6 248.479C595.6 248.479 596.19 265.229 582.76 270.209C577.78 272.059 561.88 272.669 561.88 272.669C561.88 272.669 545.6 369.809 625.75 425.749Z" fill="black"/>
<path opacity="0.6" d="M590.21 216.77C590.21 216.77 583.96 232.13 567.62 231.47C546.11 230.61 545.74 215.87 545.74 215.87L540.08 216.83C540.08 216.83 542.68 235.8 567.62 236.45C590.55 237.04 595.81 218.22 595.81 218.22L590.21 216.77Z" fill="black"/>
<path d="M1004.06 470.321L1000.16 487.971L1005.13 484.361L1008.84 489.721L1010.69 474.411L1004.06 470.321Z" fill="#448CC7"/>
<path d="M1026.02 470.321L1029.92 487.971L1024.95 484.361L1021.24 489.721L1019.39 474.411L1026.02 470.321Z" fill="#448CC7"/>
<path d="M1014.66 477.859C1023.88 477.859 1031.35 470.389 1031.35 461.169C1031.35 451.949 1023.88 444.479 1014.66 444.479C1005.44 444.479 997.97 451.949 997.97 461.169C997.97 470.389 1005.44 477.859 1014.66 477.859Z" fill="#448CC7"/>
<path opacity="0.5" d="M1014.66 477.859C1023.88 477.859 1031.35 470.389 1031.35 461.169C1031.35 451.949 1023.88 444.479 1014.66 444.479C1005.44 444.479 997.97 451.949 997.97 461.169C997.97 470.389 1005.44 477.859 1014.66 477.859Z" fill="white"/>
<path d="M1014.66 473.191C1021.3 473.191 1026.68 467.811 1026.68 461.171C1026.68 454.531 1021.3 449.151 1014.66 449.151C1008.02 449.151 1002.64 454.531 1002.64 461.171C1002.64 467.811 1008.02 473.191 1014.66 473.191Z" fill="#448CC7"/>
<path opacity="0.7" d="M1014.66 473.191C1021.3 473.191 1026.68 467.811 1026.68 461.171C1026.68 454.531 1021.3 449.151 1014.66 449.151C1008.02 449.151 1002.64 454.531 1002.64 461.171C1002.64 467.811 1008.02 473.191 1014.66 473.191Z" fill="white"/>
<path d="M1016.91 458.81L1021.93 459.54L1018.3 463.08L1019.16 468.08L1014.67 465.72L1010.18 468.08L1011.03 463.08L1007.4 459.54L1012.42 458.81L1014.66 454.26L1016.91 458.81Z" fill="#448CC7"/>
<path d="M1284.89 825.71H39.48C39.08 825.71 38.68 825.41 38.68 824.91C38.68 824.41 39.08 824.11 39.48 824.11H1284.98C1285.38 824.11 1285.78 824.41 1285.78 824.91C1285.78 825.41 1285.39 825.71 1284.89 825.71Z" fill="#ABAFB4"/>
</g>
<defs>
<clipPath id="clip0_155_1265">
<rect width="1329.51" height="825.71" fill="white"/>
</clipPath>
</defs>
</svg>
